<?xml version="1.0" encoding="UTF-8"?>
<svg xmlns="http://www.w3.org/2000/svg" xmlns:xlink="http://www.w3.org/1999/xlink" viewBox="0 0 1920 1080">
  <defs>
    <style>
      .cls-1, .cls-2, .cls-3, .cls-4, .cls-5, .cls-6, .cls-7, .cls-8, .cls-9, .cls-10, .cls-11, .cls-12, .cls-13, .cls-14, .cls-15, .cls-16, .cls-17, .cls-18, .cls-19, .cls-20, .cls-21, .cls-22, .cls-23, .cls-24, .cls-25, .cls-26, .cls-27, .cls-28, .cls-29, .cls-30, .cls-31, .cls-32, .cls-33, .cls-34, .cls-35, .cls-36, .cls-37, .cls-38, .cls-39, .cls-40, .cls-41, .cls-42, .cls-43, .cls-44, .cls-45 {
        stroke-width: 0px;
      }

      .cls-1, .cls-39 {
        fill: #e28080;
      }

      .cls-2 {
        fill: #203869;
      }

      .cls-3 {
        fill: url(#linear-gradient-12);
      }

      .cls-4 {
        fill: #1e356c;
      }

      .cls-5, .cls-46, .cls-24 {
        opacity: .4;
      }

      .cls-5, .cls-23 {
        fill: #fff;
      }

      .cls-6 {
        fill: url(#linear-gradient);
      }

      .cls-7 {
        fill: #606060;
      }

      .cls-8 {
        fill: #007ae8;
      }

      .cls-9 {
        fill: #30313f;
      }

      .cls-10 {
        fill: #a9cefc;
      }

      .cls-11 {
        fill: #82bbf9;
      }

      .cls-12 {
        fill: url(#linear-gradient-2);
      }

      .cls-12, .cls-25, .cls-44 {
        mix-blend-mode: overlay;
      }

      .cls-12, .cls-44 {
        opacity: .52;
      }

      .cls-47 {
        clip-path: url(#clippath-2);
      }

      .cls-48 {
        isolation: isolate;
      }

      .cls-13 {
        fill: #e4e4ec;
      }

      .cls-14, .cls-38 {
        fill: #b27914;
      }

      .cls-15 {
        fill: #f7c657;
      }

      .cls-16 {
        fill: url(#linear-gradient-11);
      }

      .cls-17 {
        fill: url(#linear-gradient-5);
      }

      .cls-18 {
        fill: none;
      }

      .cls-19 {
        fill: #4d88fb;
      }

      .cls-20 {
        fill: #20386c;
      }

      .cls-49 {
        clip-path: url(#clippath-4);
      }

      .cls-21 {
        fill: #b3b3b3;
      }

      .cls-22 {
        fill: #eaabab;
      }

      .cls-24, .cls-36 {
        fill: #979797;
        mix-blend-mode: multiply;
      }

      .cls-25 {
        fill: url(#linear-gradient-10);
      }

      .cls-26 {
        fill: #122444;
      }

      .cls-27 {
        fill: url(#linear-gradient-7);
      }

      .cls-28 {
        fill: url(#linear-gradient-3);
      }

      .cls-29 {
        fill: #d1d1d1;
      }

      .cls-50 {
        clip-path: url(#clippath);
      }

      .cls-30 {
        fill: #ebb142;
      }

      .cls-31 {
        fill: url(#linear-gradient-9);
      }

      .cls-32 {
        fill: #ecb53f;
      }

      .cls-51 {
        clip-path: url(#clippath-3);
      }

      .cls-33 {
        fill: #528ef9;
      }

      .cls-34 {
        fill: #f1f1f1;
      }

      .cls-35 {
        fill: url(#linear-gradient-8);
      }

      .cls-36, .cls-40 {
        opacity: .3;
      }

      .cls-37 {
        fill: #e7b93f;
      }

      .cls-38 {
        opacity: .58;
      }

      .cls-39 {
        opacity: .45;
      }

      .cls-40 {
        fill: #d1691d;
      }

      .cls-41 {
        fill: #d0dff2;
      }

      .cls-42 {
        fill: url(#linear-gradient-4);
      }

      .cls-43 {
        fill: #2c5399;
      }

      .cls-44 {
        fill: url(#linear-gradient-6);
      }

      .cls-45 {
        fill: #daa627;
      }
    </style>
    <linearGradient id="linear-gradient" x1="946.2" y1="261.1" x2="1180.23" y2="261.1" gradientUnits="userSpaceOnUse">
      <stop offset="0" stop-color="#5f4cd6"/>
      <stop offset="1" stop-color="#7cdafa"/>
    </linearGradient>
    <linearGradient id="linear-gradient-2" x1="1057.72" y1="244.61" x2="1180.23" y2="244.61" gradientUnits="userSpaceOnUse">
      <stop offset="0" stop-color="#fff"/>
      <stop offset="1" stop-color="#7cdafa"/>
    </linearGradient>
    <linearGradient id="linear-gradient-3" x1="1037.87" y1="354.59" x2="1151.36" y2="172.08" xlink:href="#linear-gradient"/>
    <linearGradient id="linear-gradient-4" x1="946.2" y1="272.11" x2="1077.77" y2="272.11" gradientUnits="userSpaceOnUse">
      <stop offset="0" stop-color="#5f4cd6"/>
      <stop offset="1" stop-color="#fff"/>
    </linearGradient>
    <linearGradient id="linear-gradient-5" x1="1069.95" y1="54.48" x2="1303.98" y2="54.48" gradientTransform="translate(-5.94 935.72) rotate(-40.17)" gradientUnits="userSpaceOnUse">
      <stop offset="0" stop-color="#eab22a"/>
      <stop offset="1" stop-color="#db4759"/>
    </linearGradient>
    <linearGradient id="linear-gradient-6" x1="1181.08" y1="22.78" x2="1303.35" y2="22.78" gradientTransform="translate(9.43 953.2) rotate(-40.55)" gradientUnits="userSpaceOnUse">
      <stop offset="0" stop-color="#fff"/>
      <stop offset="1" stop-color="#eab22a"/>
    </linearGradient>
    <linearGradient id="linear-gradient-7" x1="1161.61" y1="147.97" x2="1275.11" y2="-34.54" xlink:href="#linear-gradient-5"/>
    <linearGradient id="linear-gradient-8" x1="1069.95" y1="65.49" x2="1201.52" y2="65.49" gradientTransform="translate(-5.94 935.72) rotate(-40.17)" gradientUnits="userSpaceOnUse">
      <stop offset="0" stop-color="#eab22a"/>
      <stop offset="1" stop-color="#fff"/>
    </linearGradient>
    <linearGradient id="linear-gradient-9" x1="1241.01" y1="15.64" x2="1426.44" y2="15.64" gradientTransform="translate(431.21 1540.66) rotate(-72.46)" gradientUnits="userSpaceOnUse">
      <stop offset="0" stop-color="#a25df5"/>
      <stop offset="1" stop-color="#8911b4"/>
    </linearGradient>
    <linearGradient id="linear-gradient-10" x1="752.52" y1="210.95" x2="913.19" y2="210.95" gradientUnits="userSpaceOnUse">
      <stop offset="0" stop-color="#a25df5"/>
      <stop offset="1" stop-color="#fff"/>
    </linearGradient>
    <linearGradient id="linear-gradient-11" x1="1313.64" y1="89.72" x2="1403.57" y2="-54.89" xlink:href="#linear-gradient-9"/>
    <linearGradient id="linear-gradient-12" x1="1240.38" y1="23.93" x2="1344.62" y2="23.93" gradientTransform="translate(429.37 1539.36) rotate(-72.35)" gradientUnits="userSpaceOnUse">
      <stop offset="0" stop-color="#8f22c4"/>
      <stop offset="1" stop-color="#fff"/>
    </linearGradient>
    <clipPath id="clippath">
      <rect class="cls-18" width="1920" height="1080"/>
    </clipPath>
    <clipPath id="clippath-2">
      <rect class="cls-18" width="1920" height="1080"/>
    </clipPath>
    <clipPath id="clippath-3">
      <rect class="cls-18" width="1920" height="1080"/>
    </clipPath>
    <clipPath id="clippath-4">
      <polygon class="cls-18" points="1144.31 931.48 1320.68 963.03 1338.66 897.81 1150.05 864.07 1144.31 931.48"/>
    </clipPath>
  </defs>
  <g class="cls-48">
    <g id="BACKGROUND">
      <rect class="cls-10" width="1920" height="1080"/>
    </g>
    <g id="Layer_4" data-name="Layer 4">
      <rect class="cls-8" x="666.07" y="552.98" width="586.09" height="218.58" rx="43.07" ry="43.07"/>
      <rect class="cls-8" x="666.07" width="586.09" height="599.49"/>
      <g>
        <path class="cls-6" d="M946.2,403.76s74.84-49.09,91.71-162.59c16.87-113.5,75.48-143.06,121.17-110.04,56.75,41.02,3.69,263.43-212.88,272.62Z"/>
        <path class="cls-12" d="M1159.08,131.13c-34.19-24.71-75.61-14.36-101.36,39.96,22.43,31.41,65.44,110.81,8.49,199.68,114.62-65.51,137.11-207.68,92.88-239.65Z"/>
        <path class="cls-28" d="M1159.08,131.13c-14.61-10.56-30.54-14.69-46.01-11.74,10.31,3.71,42.81,19.74,37.96,73.09-5.75,63.27-36.95,145.34-204.83,211.28,216.57-9.19,269.63-231.6,212.88-272.62Z"/>
        <path class="cls-42" d="M1048.65,216.63c10.74-52.91,29.12-76.17,29.12-76.17h0c-18.01,19.57-32.7,52.56-39.85,100.71-16.87,113.5-91.71,162.59-91.71,162.59,80.83-46.77,91.71-134.21,102.45-187.13Z"/>
        <path class="cls-17" d="M938.78,396.13s25.52-85.79-34.8-183.4c-60.32-97.61-34.61-158.01,21.6-162.24,69.82-5.26,172.76,198.91,13.2,345.64Z"/>
        <path class="cls-44" d="M924.97,50.69c-42.04,3.45-66.79,38.24-51.04,96.27,37.46,9.29,120.75,42.11,135.25,146.66,44.5-124.3-29.82-247.39-84.21-242.93Z"/>
        <path class="cls-27" d="M925.58,50.49c-17.98,1.36-32.81,8.48-42.73,20.71,10.27-3.81,45.44-12.53,76.15,31.36,36.42,52.05,65.52,134.89-20.21,293.57,159.55-146.73,56.62-350.9-13.2-345.64Z"/>
        <path class="cls-35" d="M896.35,187.05c-25.93-47.36-26.89-76.99-26.89-76.99h0c-1.14,26.57,8.92,61.25,34.52,102.67,60.32,97.61,34.8,183.4,34.8,183.4,31.59-87.88-16.5-161.72-42.43-209.07Z"/>
        <path class="cls-31" d="M927.82,396.13s-19.22-68.26-100.94-108.11c-81.72-39.84-90.06-91.18-54.21-117.81,44.54-33.08,199.9,60.11,155.14,225.92Z"/>
        <path class="cls-25" d="M780.89,258.31c19.89-15.93,62.29-36.67,132.31-9.9-37.67-68.64-111.93-99.44-140.52-78.2-27.38,20.34-28.94,55.07,8.21,88.1Z"/>
        <path class="cls-16" d="M772.67,170.21c-11.47,8.52-18.39,19.57-19.86,31.96,5.27-6.9,25.13-27.63,64.28-11.23,46.43,19.45,100.98,62.62,110.72,205.19,44.76-165.81-110.6-259-155.14-225.92Z"/>
        <path class="cls-3" d="M810.98,273.98c-37.37-20.82-50.52-40.28-50.52-40.28h0c10.45,18.3,31.83,37.31,66.47,54.29,81.64,40,100.73,108.3,100.73,108.3-15.9-72.27-79.3-101.49-116.67-122.31Z"/>
      </g>
      <g>
        <path class="cls-23" d="M765.65,526.15h5.49v25.04h4.17v4.33h-9.66v-29.38Z"/>
        <path class="cls-23" d="M774.68,551.19h5.84v-15.26h5.49v15.26h5.68v4.33h-17.01v-4.33ZM780.21,563.77c-.54.56-1.21.83-1.99.83s-1.42-.27-1.95-.81c-.53-.54-.79-1.21-.79-2.01s.26-1.44.79-1.99c.54-.56,1.19-.83,1.95-.83s1.45.27,1.99.81c.53.56.79,1.23.79,2.01s-.26,1.45-.79,1.99ZM787.09,563.77c-.54.56-1.19.83-1.95.83s-1.42-.27-1.95-.81c-.53-.54-.79-1.21-.79-2.01s.26-1.44.79-1.99c.54-.56,1.19-.83,1.95-.83s1.42.27,1.95.81c.53.56.79,1.23.79,2.01s-.26,1.44-.79,1.99Z"/>
        <path class="cls-23" d="M818.16,555.53c-2.27,0-3.95-.19-5.05-.57-1.18-.42-2.07-1.19-2.67-2.3-.99,2.13-3.09,3.19-6.29,3.19-2.97,0-4.82-1.08-5.53-3.23-.85,1.94-2.71,2.91-5.55,2.91h-2.03v-4.33h2.08c1.38,0,2.35-.35,2.89-1.06.58-.75.88-2.12.88-4.11v-7.59h5.49v7.71c0,2.01.17,3.37.51,4.09.39.85,1.18,1.28,2.36,1.28,2.22,0,3.34-1.78,3.34-5.33v-9.42h5.29v10.46c0,1.63.34,2.7,1.02,3.21.65.5,1.95.75,3.91.75h1.08c.2-1.56.31-3.23.31-5,0-3.84-.41-7.56-1.22-11.17l5.37-.73c.9,3.73,1.34,7.57,1.34,11.54,0,1.55-.07,3.34-.2,5.37h4.07v4.33h-11.37Z"/>
        <path class="cls-23" d="M828.9,551.19h5.84v-15.26h5.49v15.26h5.68v4.33h-17.01v-4.33ZM834.43,563.77c-.54.56-1.21.83-1.99.83s-1.42-.27-1.95-.81c-.53-.54-.79-1.21-.79-2.01s.26-1.44.79-1.99c.54-.56,1.19-.83,1.95-.83s1.45.27,1.99.81c.53.56.79,1.23.79,2.01s-.26,1.45-.79,1.99ZM841.31,563.77c-.54.56-1.19.83-1.95.83s-1.42-.27-1.95-.81c-.53-.54-.79-1.21-.79-2.01s.26-1.44.79-1.99c.54-.56,1.19-.83,1.95-.83s1.42.27,1.95.81c.53.56.79,1.23.79,2.01s-.26,1.44-.79,1.99Z"/>
        <path class="cls-23" d="M845.26,551.19h5.84v-15.26h5.49v19.59h-11.33v-4.33ZM851.81,531.62c-.56-.56-.83-1.24-.83-2.05s.28-1.46.83-2.03c.57-.56,1.25-.83,2.03-.83s1.46.28,2.03.83c.56.57.83,1.25.83,2.03s-.28,1.46-.83,2.03c-.57.56-1.25.83-2.03.83s-1.48-.27-2.03-.81Z"/>
        <path class="cls-23" d="M859.96,565.48l.35-4.5c2.17.47,4.33.71,6.49.71,4.81,0,7.22-1.84,7.22-5.53v-.63h-3.25c-7.45,0-11.17-3.22-11.17-9.66,0-2.96.88-5.38,2.65-7.28,1.98-2.12,4.78-3.17,8.4-3.17,3.27,0,6.17.48,8.71,1.44v18.76c0,3.09-1.01,5.55-3.03,7.37-2.25,2.03-5.59,3.05-10.01,3.05-2.09,0-4.2-.18-6.35-.55ZM874.02,540.49c-1.06-.5-2.38-.75-3.97-.75s-2.75.53-3.64,1.59c-.88,1.03-1.32,2.37-1.32,4.03,0,3.89,2.09,5.84,6.27,5.84h2.67v-10.7Z"/>
        <path class="cls-23" d="M884.36,551.19h12.37c-.24-6.17-3.52-10.06-9.83-11.66l1.32-4.6c4.41,1.17,7.72,3,9.95,5.49,2.35,2.64,3.64,6.23,3.89,10.76h2.73v4.33h-20.43v-4.33Z"/>
        <path class="cls-23" d="M904.15,551.19h5.84v-15.26h5.49v19.59h-11.33v-4.33ZM910.7,531.62c-.56-.56-.83-1.24-.83-2.05s.28-1.46.83-2.03c.57-.56,1.25-.83,2.03-.83s1.46.28,2.03.83c.56.57.83,1.25.83,2.03s-.28,1.46-.83,2.03c-.57.56-1.25.83-2.03.83s-1.48-.27-2.03-.81Z"/>
        <path class="cls-23" d="M922.1,526.15h5.49v29.38h-5.49v-29.38Z"/>
        <path class="cls-23" d="M963.46,551.19h4.13v4.33h-4.33c-.84,6.39-4.69,9.58-11.54,9.58-7.34,0-11.01-3.95-11.01-11.84,0-2.55.33-5.03,1-7.45l5.68-1.04c-.79,2.77-1.18,5.43-1.18,8,0,5.36,1.97,8.04,5.92,8.04s5.84-2.64,5.84-7.91v-16.97h5.49v15.26ZM949.52,540.33c-.57-.56-.85-1.24-.85-2.06s.28-1.46.85-2.03c.56-.56,1.23-.83,2.01-.83s1.48.28,2.04.83c.57.57.85,1.25.85,2.03s-.29,1.46-.85,2.03c-.56.56-1.23.83-2.04.83s-1.46-.27-2.01-.81Z"/>
        <path class="cls-23" d="M966.96,555.53v-4.33h2.38c.96,0,1.74.09,2.32.28-1.54-1.12-2.32-3.11-2.32-5.96s.89-5.17,2.69-7.04c1.98-2.05,4.69-3.07,8.14-3.07,6.28,0,9.42,3.19,9.42,9.58v10.54h-22.62ZM984.21,545.66c0-3.95-1.48-5.92-4.46-5.92-1.53,0-2.75.53-3.66,1.59-.87,1.03-1.3,2.37-1.3,4.03,0,3.89,2.08,5.84,6.24,5.84h3.17v-5.53Z"/>
        <path class="cls-23" d="M1022.62,555.53c-6.74,0-10.41-2.69-11.01-8.08h-.91c-1.21,0-1.99.39-2.36,1.18-.37.79-.39,2.16-.08,4.11l2.16,13.61h-5.29l-2.12-13.2c-.49-3.11-.13-5.52,1.08-7.24,1.33-1.86,3.6-2.79,6.79-2.79h1c.5-2.29,1.62-4.12,3.36-5.49,1.87-1.48,4.24-2.22,7.1-2.22,6.28,0,9.42,3.19,9.42,9.58v10.54h-9.13ZM1026.43,545.66c0-3.95-1.49-5.92-4.48-5.92-1.53,0-2.75.53-3.64,1.59-.87,1.03-1.3,2.37-1.3,4.03,0,3.89,2.08,5.84,6.25,5.84h3.17v-5.53Z"/>
        <path class="cls-23" d="M1037.7,526.15h5.49v29.38h-5.49v-29.38Z"/>
        <path class="cls-23" d="M1048.64,551.19h12.37c-.24-6.17-3.52-10.06-9.83-11.66l1.32-4.6c4.41,1.17,7.72,3,9.95,5.49,2.35,2.64,3.64,6.23,3.89,10.76h2.73v4.33h-20.43v-4.33Z"/>
        <path class="cls-23" d="M1068.44,551.19h1.75c.87,0,1.71.07,2.54.2-1.28-1.32-1.91-3.19-1.91-5.62,0-3.02.98-5.51,2.93-7.45,1.97-1.95,4.52-2.93,7.65-2.93s5.41.79,7.08,2.36c1.75,1.67,2.62,4.12,2.62,7.34,0,2.83-.81,4.93-2.42,6.29,1.17-.14,2.22-.2,3.17-.2h2.22v4.33h-25.63v-4.33ZM1075.66,531.95c-.54-.54-.81-1.21-.81-1.99s.27-1.46.81-2.01c.53-.56,1.18-.83,1.95-.83s1.44.28,1.97.83c.54.54.81,1.21.81,2.01s-.27,1.44-.81,1.99-1.2.83-1.97.83-1.43-.28-1.95-.83ZM1084.22,549.75c.89-1.03,1.34-2.48,1.34-4.35,0-3.77-1.52-5.66-4.56-5.66-1.3,0-2.38.44-3.23,1.32-.98,1-1.46,2.42-1.46,4.25,0,3.92,1.54,5.88,4.62,5.88,1.38,0,2.48-.48,3.3-1.45ZM1082.58,531.95c-.54-.54-.81-1.21-.81-1.99s.27-1.46.81-2.01c.53-.56,1.18-.83,1.95-.83s1.41.28,1.95.83c.53.54.79,1.21.79,2.01s-.26,1.44-.79,1.99c-.54.56-1.19.83-1.95.83s-1.42-.28-1.95-.83Z"/>
        <path class="cls-23" d="M1093.42,551.19h5.84v-15.26h5.49v15.26h3.7v4.33h-15.04v-4.33ZM1095.8,531.95c-.53-.54-.79-1.21-.79-1.99s.26-1.46.79-2.01c.54-.56,1.19-.83,1.95-.83s1.45.28,1.99.83c.53.54.79,1.21.79,2.01s-.26,1.44-.79,1.99c-.54.56-1.21.83-1.99.83s-1.42-.28-1.95-.83ZM1102.72,531.95c-.53-.54-.79-1.21-.79-1.99s.27-1.46.79-2.01c.54-.56,1.19-.83,1.95-.83s1.42.28,1.95.83c.53.54.79,1.21.79,2.01s-.27,1.44-.79,1.99c-.54.56-1.2.83-1.95.83s-1.43-.28-1.95-.83Z"/>
        <path class="cls-23" d="M1107.82,551.19h2.08c1.38,0,2.35-.35,2.89-1.06.58-.75.88-2.12.88-4.11v-7.59h5.49v7.71c0,2.01.17,3.37.51,4.09.39.85,1.18,1.28,2.36,1.28,2.22,0,3.34-1.78,3.34-5.33v-9.42h5.29v10.46c0,1.63.34,2.7,1.02,3.21.65.5,1.95.75,3.91.75h1.08c.21-1.56.31-3.23.31-5,0-3.84-.41-7.56-1.22-11.17l5.37-.73c.89,3.73,1.34,7.57,1.34,11.54,0,3.51-.21,6.75-.63,9.7h-6.88c-2.26,0-3.95-.19-5.04-.57-1.18-.42-2.07-1.19-2.66-2.3-.99,2.13-3.09,3.19-6.29,3.19-2.97,0-4.81-1.08-5.53-3.23-.86,1.94-2.71,2.91-5.55,2.91h-2.04v-4.33Z"/>
        <path class="cls-23" d="M1148.86,526.15h5.49v29.38h-5.49v-29.38Z"/>
      </g>
      <g>
        <path class="cls-23" d="M784.94,496.79c-3.28-2.31-4.91-5.39-4.91-9.25s1.82-7.5,5.46-10.41c2.16-1.72,6.03-3.82,11.61-6.3-5.92-5.63-10.9-9-14.92-10.12l.84-7.02c7.64-5.51,14.83-8.26,21.55-8.26,5.24,0,9.25,1.23,12.01,3.68,2.48,2.18,3.71,5.04,3.71,8.55,0,5.34-2.84,9.95-8.52,13.83,3.03,1.6,6.09,2.4,9.17,2.4h4.95v7.75h-6.04c-6.16,0-11.68-1.84-16.56-5.53-4.95,2.43-8.01,4.03-9.17,4.8-2.69,1.8-4.04,3.68-4.04,5.64,0,4.27,4.05,6.41,12.16,6.41,3.83,0,7.57-.32,11.21-.95l.58,7.43c-4.32.8-8.61,1.2-12.88,1.2-7.13,0-12.53-1.29-16.2-3.86ZM805.07,466.73c3.64-2.35,5.46-4.96,5.46-7.83,0-1.84-.58-3.32-1.75-4.44-1.26-1.21-3.05-1.82-5.35-1.82-3.08,0-6.86,1.49-11.32,4.48,2.43.97,6.75,4.17,12.96,9.61Z"/>
        <path class="cls-23" d="M824.76,473.9h10.45v-27.3h9.83v27.3h10.16v7.75h-30.43v-7.75ZM834.66,496.39c-.97.99-2.16,1.49-3.57,1.49s-2.55-.49-3.5-1.46c-.95-.97-1.42-2.17-1.42-3.6s.47-2.57,1.42-3.57c.97-1,2.14-1.49,3.5-1.49s2.6.49,3.57,1.46c.95.99,1.42,2.2,1.42,3.6s-.47,2.6-1.42,3.57ZM846.96,496.39c-.97.99-2.14,1.49-3.49,1.49s-2.55-.49-3.49-1.46c-.95-.97-1.42-2.17-1.42-3.6s.47-2.57,1.42-3.57c.97-1,2.13-1.49,3.49-1.49s2.55.49,3.49,1.46c.95.99,1.42,2.2,1.42,3.6s-.47,2.57-1.42,3.57Z"/>
        <path class="cls-23" d="M882.23,481.65c-8.03,0-13.6-1.94-16.71-5.82-1.5,3.88-5.45,5.82-11.83,5.82h-1.13v-7.75c2.91,0,5.06-.72,6.44-2.15,1.53-1.58,2.29-4.25,2.29-8.01,0-5.05,1.6-9.25,4.8-12.59,3.54-3.66,8.4-5.5,14.56-5.5,11.23,0,16.85,5.71,16.85,17.14v11.1h6.26v7.75h-21.55ZM887.91,464c0-7.06-2.66-10.59-7.97-10.59-2.74,0-4.93.95-6.55,2.84-1.55,1.84-2.33,4.25-2.33,7.21,0,6.96,3.72,10.45,11.17,10.45h5.68v-9.9Z"/>
        <path class="cls-23" d="M902.62,473.9h28.86c.24-1.99.36-3.88.36-5.68,0-4.85-1.09-8.42-3.28-10.7-2.33-2.4-6.12-3.6-11.36-3.6-2.77,0-5.62.21-8.55.62v-7.68c3.49-.46,6.67-.69,9.54-.69,8.23,0,14.22,1.83,17.98,5.5,3.62,3.49,5.42,8.89,5.42,16.2,0,2.11-.1,4.13-.29,6.04h5.82v7.75h-44.51v-7.75ZM916.67,496.5c-1.02-1-1.53-2.22-1.53-3.68s.51-2.62,1.53-3.64c.99-1,2.2-1.49,3.6-1.49s2.64.5,3.64,1.49c1.02.99,1.53,2.21,1.53,3.64s-.51,2.64-1.53,3.64c-1,1.02-2.21,1.53-3.64,1.53s-2.61-.5-3.6-1.49Z"/>
        <path class="cls-23" d="M945.97,473.9h9.25v-44.81h9.83v44.81h7.46v7.75h-26.53v-7.75Z"/>
        <path class="cls-23" d="M971.38,473.9h9.25v-44.81h9.83v52.56h-19.07v-7.75Z"/>
        <path class="cls-23" d="M1014.8,499.45l.62-8.04c3.88.85,7.75,1.27,11.61,1.27,8.61,0,12.92-3.3,12.92-9.9v-1.13h-5.82c-13.32,0-19.98-5.76-19.98-17.29,0-5.29,1.58-9.63,4.73-13.03,3.54-3.79,8.55-5.68,15.03-5.68,5.85,0,11.04.86,15.58,2.58v33.56c0,5.53-1.81,9.92-5.42,13.18-4.03,3.64-10,5.46-17.91,5.46-3.74,0-7.52-.33-11.36-.98ZM1039.95,454.75c-1.89-.9-4.26-1.35-7.1-1.35s-4.91.95-6.52,2.84c-1.58,1.84-2.37,4.25-2.37,7.21,0,6.96,3.74,10.45,11.21,10.45h4.77v-19.15Z"/>
        <path class="cls-23" d="M1058.44,473.9h22.13c-.44-11.04-6.3-17.99-17.58-20.86l2.37-8.23c7.89,2.09,13.82,5.36,17.8,9.83,4.2,4.73,6.52,11.15,6.95,19.25h4.88v7.75h-36.54v-7.75Z"/>
        <path class="cls-23" d="M1093.85,473.9h10.45v-27.3h9.83v35.05h-20.27v-7.75ZM1105.58,438.88c-1-.99-1.49-2.22-1.49-3.68s.5-2.62,1.49-3.64c1.02-.99,2.23-1.49,3.64-1.49s2.62.5,3.64,1.49c.99,1.02,1.49,2.23,1.49,3.64s-.5,2.62-1.49,3.64c-1.02,1-2.23,1.49-3.64,1.49s-2.65-.49-3.64-1.46Z"/>
        <path class="cls-23" d="M1125.96,429.09h9.83v52.56h-9.83v-52.56Z"/>
      </g>
      <g>
        <path class="cls-23" d="M783.11,720.57v9.47h-5.25v-9.47h-9.37v-5.03h9.37v-9.5h5.25v9.5h9.37v5.03h-9.37Z"/>
        <path class="cls-23" d="M803.48,731.43v-1.78c1.07-.02,2.01-.11,2.81-.3.95-.2,1.85-.51,2.7-.95.85-.44,1.59-.97,2.23-1.62.79-.77,1.45-1.66,1.97-2.65.53-.99.94-2.08,1.25-3.27.3-1.18.53-2.42.68-3.7l-.25-.1c-1.27.87-2.51,1.5-3.74,1.9-1.23.39-2.69.59-4.4.59-1.94,0-3.59-.42-4.95-1.25-1.36-.83-2.37-1.99-3.05-3.48s-1.01-3.23-1.01-5.22c0-2.19.51-4.14,1.54-5.86,1.03-1.72,2.5-3.04,4.43-3.96s4.2-1.38,6.83-1.38,4.88.55,6.7,1.64c1.82,1.09,3.17,2.68,4.07,4.77.9,2.09,1.34,4.61,1.34,7.57,0,4.13-.7,7.67-2.1,10.63-1.4,2.96-3.43,5.27-6.1,6.93-2.67,1.66-5.9,2.63-9.68,2.91l-1.28-1.46ZM809.6,716.18c.61,0,1.18-.06,1.7-.17.53-.12,1.02-.29,1.49-.53s.9-.53,1.31-.86c.4-.34.67-.61.8-.83.13-.21.24-.53.33-.94s.14-.97.14-1.68c0-3.22-.43-5.69-1.29-7.41-.86-1.72-2.13-2.58-3.79-2.58-.97,0-1.79.19-2.45.57-.67.38-1.21.91-1.63,1.6-.42.69-.72,1.52-.9,2.48-.18.96-.27,2.02-.27,3.17,0,4.79,1.52,7.18,4.56,7.18Z"/>
        <path class="cls-23" d="M848.84,700.12v1.53c-3.6.08-6.52,1.2-8.76,3.34-2.24,2.15-3.72,5.22-4.46,9.21l.25.1c1.28-.89,2.57-1.54,3.87-1.95,1.3-.41,2.72-.62,4.27-.62,1.89,0,3.52.42,4.87,1.25,1.36.83,2.38,2,3.07,3.52.69,1.51,1.04,3.27,1.04,5.28,0,2.19-.46,4.12-1.38,5.78s-2.34,2.97-4.25,3.91c-1.92.94-4.26,1.41-7.04,1.41-2.55,0-4.74-.51-6.57-1.53s-3.24-2.52-4.21-4.51c-.97-1.99-1.46-4.41-1.46-7.25,0-3.85.81-7.33,2.43-10.43,1.62-3.11,3.92-5.61,6.89-7.5,2.98-1.89,6.35-2.97,10.11-3.23l1.33,1.7ZM841.1,715.15c-.81,0-1.56.12-2.27.36-.71.24-1.33.56-1.87.96-.54.4-.91.73-1.1.99-.19.25-.33.62-.41,1.1-.08.48-.12,1.32-.12,2.52,0,3.01.42,5.27,1.26,6.78.84,1.51,2.12,2.27,3.85,2.27.99,0,1.81-.19,2.48-.57.67-.38,1.2-.91,1.62-1.59.41-.68.71-1.5.89-2.47.18-.96.27-2.03.27-3.19,0-2.35-.39-4.13-1.17-5.34-.78-1.21-1.92-1.81-3.42-1.81Z"/>
        <path class="cls-23" d="M878.76,700.12v1.53c-3.6.08-6.52,1.2-8.76,3.34-2.24,2.15-3.72,5.22-4.46,9.21l.25.1c1.28-.89,2.57-1.54,3.87-1.95,1.3-.41,2.72-.62,4.27-.62,1.89,0,3.52.42,4.87,1.25,1.36.83,2.38,2,3.07,3.52.69,1.51,1.04,3.27,1.04,5.28,0,2.19-.46,4.12-1.38,5.78s-2.34,2.97-4.25,3.91c-1.92.94-4.26,1.41-7.04,1.41-2.55,0-4.74-.51-6.57-1.53s-3.24-2.52-4.21-4.51c-.97-1.99-1.46-4.41-1.46-7.25,0-3.85.81-7.33,2.43-10.43,1.62-3.11,3.92-5.61,6.89-7.5,2.98-1.89,6.35-2.97,10.11-3.23l1.33,1.7ZM871.02,715.15c-.81,0-1.56.12-2.27.36-.71.24-1.33.56-1.87.96-.54.4-.91.73-1.1.99-.19.25-.33.62-.41,1.1-.08.48-.12,1.32-.12,2.52,0,3.01.42,5.27,1.26,6.78.84,1.51,2.12,2.27,3.85,2.27.99,0,1.81-.19,2.48-.57.67-.38,1.2-.91,1.62-1.59.41-.68.71-1.5.89-2.47.18-.96.27-2.03.27-3.19,0-2.35-.39-4.13-1.17-5.34-.78-1.21-1.92-1.81-3.42-1.81Z"/>
        <path class="cls-23" d="M889.07,730.96v-6.17h4.46c.41,1.79,1.07,3.13,1.97,4.01.9.88,2.07,1.32,3.5,1.32,1.79,0,3.12-.55,3.97-1.67.85-1.11,1.28-2.82,1.28-5.14s-.55-4.03-1.65-5.23c-1.1-1.2-2.7-1.8-4.79-1.8-.81,0-1.67.07-2.6.22-.93.15-1.76.33-2.48.54l-2.22-1.38v-16.85h14.58c.61,0,1.05-.04,1.33-.12.28-.08.51-.22.69-.42.18-.2.38-.56.59-1.08h2.71l-.49,7.87h-15.15v8.88c.99-.3,1.99-.51,3.02-.65,1.03-.14,2.29-.21,3.79-.21,2.04,0,3.83.38,5.37,1.13,1.54.76,2.73,1.85,3.58,3.29.85,1.44,1.27,3.13,1.27,5.07,0,2.27-.51,4.17-1.53,5.71-1.02,1.54-2.49,2.69-4.42,3.45-1.92.76-4.23,1.15-6.91,1.15-1.73,0-3.49-.17-5.28-.52-1.79-.35-3.33-.81-4.61-1.41Z"/>
        <path class="cls-23" d="M929.77,732.88c-2.57,0-4.72-.56-6.45-1.69-1.74-1.13-3.07-2.95-4.01-5.46-.94-2.52-1.41-5.77-1.41-9.77,0-3.77.48-6.95,1.43-9.56s2.36-4.59,4.21-5.95c1.85-1.36,4.07-2.03,6.67-2.03,4.05,0,7.06,1.38,9.05,4.13,1.99,2.75,2.98,6.97,2.98,12.64s-1.06,10.22-3.17,13.21-5.22,4.48-9.31,4.48ZM925.41,715.25c0,3.62.16,6.5.48,8.63.32,2.14.83,3.71,1.52,4.72.69,1.01,1.61,1.52,2.76,1.52.62,0,1.17-.15,1.64-.46.47-.3.89-.78,1.26-1.43.37-.65.69-1.51.95-2.59s.45-2.42.57-4.02.17-3.39.17-5.37c0-2.94-.11-5.42-.33-7.42-.22-2.01-.54-3.55-.95-4.64-.41-1.08-.9-1.86-1.46-2.32-.56-.46-1.21-.69-1.95-.69-.87,0-1.61.29-2.21.86-.6.58-1.08,1.45-1.44,2.62s-.62,2.63-.78,4.39-.23,3.82-.23,6.19Z"/>
        <path class="cls-23" d="M953.08,731.43v-1.78c1.07-.02,2.01-.11,2.81-.3.95-.2,1.85-.51,2.7-.95s1.59-.97,2.23-1.62c.79-.77,1.45-1.66,1.97-2.65.53-.99.94-2.08,1.25-3.27.3-1.18.53-2.42.68-3.7l-.25-.1c-1.27.87-2.51,1.5-3.74,1.9-1.23.39-2.69.59-4.4.59-1.94,0-3.59-.42-4.95-1.25-1.36-.83-2.37-1.99-3.05-3.48-.67-1.49-1.01-3.23-1.01-5.22,0-2.19.51-4.14,1.54-5.86,1.03-1.72,2.5-3.04,4.43-3.96,1.92-.92,4.2-1.38,6.83-1.38s4.88.55,6.7,1.64c1.82,1.09,3.17,2.68,4.07,4.77.9,2.09,1.34,4.61,1.34,7.57,0,4.13-.7,7.67-2.1,10.63-1.4,2.96-3.43,5.27-6.11,6.93-2.67,1.66-5.9,2.63-9.68,2.91l-1.28-1.46ZM959.2,716.18c.61,0,1.18-.06,1.7-.17s1.02-.29,1.49-.53.9-.53,1.31-.86c.4-.34.67-.61.8-.83.13-.21.24-.53.33-.94.09-.41.14-.97.14-1.68,0-3.22-.43-5.69-1.29-7.41-.86-1.72-2.13-2.58-3.79-2.58-.97,0-1.79.19-2.45.57-.67.38-1.21.91-1.63,1.6-.42.69-.72,1.52-.9,2.48s-.27,2.02-.27,3.17c0,4.79,1.52,7.18,4.56,7.18Z"/>
        <path class="cls-23" d="M986.82,730.86c.59-.16,1.06-.34,1.42-.53.35-.19.62-.44.8-.76s.3-.74.35-1.25c.05-.51.07-1.15.07-1.92v-3.67h-13.22v-2.66l14.97-21.41h5.55v20.97h.76c.81,0,1.37-.05,1.7-.16.33-.11.61-.31.85-.6s.46-.82.68-1.58h2.59l-.3,5.45h-6.29v3.67c0,.87.04,1.57.12,2.08.08.52.22.93.42,1.23.2.3.47.54.81.69.35.16.78.31,1.31.46v1.63h-12.6v-1.63ZM981.03,719.61h8.44v-5.65c0-2.37.08-4.86.25-7.47h-.25l-8.44,12.7v.42Z"/>
        <path class="cls-23" d="M1028.36,700.12v1.53c-3.6.08-6.52,1.2-8.76,3.34-2.24,2.15-3.72,5.22-4.46,9.21l.25.1c1.28-.89,2.57-1.54,3.87-1.95,1.3-.41,2.72-.62,4.27-.62,1.89,0,3.51.42,4.87,1.25,1.36.83,2.38,2,3.07,3.52s1.04,3.27,1.04,5.28c0,2.19-.46,4.12-1.38,5.78-.92,1.67-2.34,2.97-4.25,3.91-1.92.94-4.26,1.41-7.04,1.41-2.55,0-4.74-.51-6.57-1.53s-3.24-2.52-4.21-4.51c-.97-1.99-1.46-4.41-1.46-7.25,0-3.85.81-7.33,2.43-10.43,1.62-3.11,3.92-5.61,6.89-7.5,2.98-1.89,6.35-2.97,10.11-3.23l1.33,1.7ZM1020.62,715.15c-.81,0-1.56.12-2.27.36s-1.33.56-1.88.96c-.54.4-.91.73-1.1.99-.19.25-.32.62-.41,1.1-.08.48-.12,1.32-.12,2.52,0,3.01.42,5.27,1.26,6.78.84,1.51,2.12,2.27,3.85,2.27.99,0,1.81-.19,2.48-.57.67-.38,1.2-.91,1.62-1.59.41-.68.71-1.5.89-2.47.18-.96.27-2.03.27-3.19,0-2.35-.39-4.13-1.17-5.34s-1.92-1.81-3.42-1.81Z"/>
        <path class="cls-23" d="M1038.67,730.96v-6.17h4.46c.41,1.79,1.07,3.13,1.97,4.01s2.07,1.32,3.5,1.32c1.79,0,3.12-.55,3.97-1.67.85-1.11,1.28-2.82,1.28-5.14s-.55-4.03-1.65-5.23c-1.1-1.2-2.7-1.8-4.79-1.8-.81,0-1.67.07-2.6.22-.93.15-1.75.33-2.48.54l-2.22-1.38v-16.85h14.58c.61,0,1.05-.04,1.33-.12.28-.08.51-.22.69-.42.18-.2.38-.56.59-1.08h2.71l-.49,7.87h-15.15v8.88c.99-.3,1.99-.51,3.02-.65,1.03-.14,2.29-.21,3.79-.21,2.04,0,3.83.38,5.36,1.13,1.54.76,2.73,1.85,3.58,3.29.85,1.44,1.27,3.13,1.27,5.07,0,2.27-.51,4.17-1.53,5.71-1.02,1.54-2.49,2.69-4.42,3.45s-4.23,1.15-6.91,1.15c-1.73,0-3.49-.17-5.28-.52-1.79-.35-3.33-.81-4.61-1.41Z"/>
        <path class="cls-23" d="M1072.76,731.43v-1.78c1.07-.02,2.01-.11,2.81-.3.95-.2,1.85-.51,2.7-.95s1.59-.97,2.23-1.62c.79-.77,1.45-1.66,1.97-2.65.53-.99.94-2.08,1.25-3.27.3-1.18.53-2.42.68-3.7l-.25-.1c-1.27.87-2.51,1.5-3.74,1.9-1.23.39-2.69.59-4.4.59-1.94,0-3.59-.42-4.95-1.25-1.36-.83-2.37-1.99-3.05-3.48-.67-1.49-1.01-3.23-1.01-5.22,0-2.19.51-4.14,1.54-5.86,1.03-1.72,2.5-3.04,4.43-3.96,1.92-.92,4.2-1.38,6.83-1.38s4.88.55,6.7,1.64c1.82,1.09,3.17,2.68,4.07,4.77.9,2.09,1.34,4.61,1.34,7.57,0,4.13-.7,7.67-2.1,10.63-1.4,2.96-3.43,5.27-6.11,6.93-2.67,1.66-5.9,2.63-9.68,2.91l-1.28-1.46ZM1078.88,716.18c.61,0,1.18-.06,1.7-.17s1.02-.29,1.49-.53.9-.53,1.31-.86c.4-.34.67-.61.8-.83.13-.21.24-.53.33-.94.09-.41.14-.97.14-1.68,0-3.22-.43-5.69-1.29-7.41-.86-1.72-2.13-2.58-3.79-2.58-.97,0-1.79.19-2.45.57-.67.38-1.21.91-1.63,1.6-.42.69-.72,1.52-.9,2.48s-.27,2.02-.27,3.17c0,4.79,1.52,7.18,4.56,7.18Z"/>
        <path class="cls-23" d="M1122.02,700.45l-13.69,32.12h-5.06v-1.7l12.38-25.09v-.37h-10.98c-.72,0-1.31.06-1.75.17-.44.12-.81.3-1.09.56s-.5.59-.68,1-.36,1.05-.56,1.92h-2.86l.64-10.24h23.63v1.63Z"/>
        <path class="cls-23" d="M1128.43,730.96v-6.17h4.46c.41,1.79,1.07,3.13,1.97,4.01s2.07,1.32,3.5,1.32c1.79,0,3.12-.55,3.97-1.67.85-1.11,1.28-2.82,1.28-5.14s-.55-4.03-1.65-5.23c-1.1-1.2-2.7-1.8-4.79-1.8-.81,0-1.67.07-2.6.22-.93.15-1.75.33-2.48.54l-2.22-1.38v-16.85h14.58c.61,0,1.05-.04,1.33-.12.28-.08.51-.22.69-.42.18-.2.38-.56.59-1.08h2.71l-.49,7.87h-15.15v8.88c.99-.3,1.99-.51,3.02-.65,1.03-.14,2.29-.21,3.79-.21,2.04,0,3.83.38,5.36,1.13,1.54.76,2.73,1.85,3.58,3.29.85,1.44,1.27,3.13,1.27,5.07,0,2.27-.51,4.17-1.53,5.71-1.02,1.54-2.49,2.69-4.42,3.45s-4.23,1.15-6.91,1.15c-1.73,0-3.49-.17-5.28-.52-1.79-.35-3.33-.81-4.61-1.41Z"/>
      </g>
      <g>
        <path class="cls-23" d="M805.2,658.2c-3.86,0-6.2-.87-7.03-2.61-.79,1.89-2.37,2.83-4.73,2.83-1.36,0-2.3-.39-2.85-1.17.01,3.3-.97,5.79-2.94,7.47-1.71,1.45-4.04,2.18-6.99,2.18-6.51,0-9.76-3.59-9.76-10.76,0-2.32.3-4.57.91-6.77l5.16-.94c-.71,2.51-1.07,4.94-1.07,7.27,0,4.87,1.73,7.3,5.2,7.3,3.16,0,4.73-2.39,4.73-7.16v-13.18h4.99v7.01c0,1.78.21,3.03.65,3.77s1.15,1.11,2.16,1.11c1.91,0,2.87-1.62,2.87-4.84v-8.56h4.77v9.5c0,1.47.32,2.44.96,2.92.59.46,1.78.68,3.55.68h.98c.18-1.76.28-3.28.28-4.55,0-3.49-.37-6.87-1.11-10.15l4.9-.67c.8,3.39,1.2,6.88,1.2,10.48,0,1.41-.06,3.03-.18,4.88h3.72v3.94h-10.36Z"/>
        <path class="cls-23" d="M814.98,654.27h5.31v-13.87h4.99v17.81h-10.3v-3.94ZM817.14,636.77c-.48-.49-.72-1.1-.72-1.81s.24-1.33.72-1.83c.49-.5,1.08-.76,1.78-.76s1.32.25,1.81.76c.48.49.72,1.1.72,1.83s-.24,1.31-.72,1.81c-.49.51-1.1.76-1.81.76s-1.29-.25-1.78-.76ZM823.43,636.77c-.48-.49-.72-1.1-.72-1.81s.24-1.33.72-1.83c.49-.5,1.08-.76,1.77-.76s1.29.25,1.78.76c.48.49.72,1.1.72,1.83s-.24,1.31-.72,1.81c-.49.51-1.08.76-1.78.76s-1.29-.25-1.77-.76Z"/>
        <path class="cls-23" d="M831.29,631.5h4.99v26.7h-4.99v-26.7Z"/>
        <path class="cls-23" d="M840.57,667.25l.31-4.09c1.97.43,3.94.65,5.9.65,4.38,0,6.56-1.68,6.56-5.03v-.57h-2.96c-6.77,0-10.15-2.93-10.15-8.78,0-2.69.8-4.89,2.4-6.62,1.8-1.92,4.35-2.88,7.64-2.88,2.97,0,5.61.44,7.91,1.31v13.04h3.7v3.94h-3.7v.07c0,2.81-.92,5.04-2.75,6.69-2.05,1.85-5.08,2.77-9.1,2.77-1.9,0-3.82-.17-5.77-.5ZM853.35,644.54c-.96-.46-2.16-.68-3.61-.68s-2.5.48-3.31,1.44c-.8.94-1.2,2.16-1.2,3.66,0,3.54,1.9,5.31,5.7,5.31h2.42v-9.73Z"/>
        <path class="cls-23" d="M861.33,654.27h4.7v-22.76h4.99v26.7h-9.69v-3.94Z"/>
        <path class="cls-23" d="M877.46,631.5h4.99v26.7h-4.99v-26.7Z"/>
        <path class="cls-23" d="M923.46,658.2v-9.39c0-1.82-.31-3.11-.92-3.85s-1.71-1.11-3.27-1.11c-.84,0-1.67.07-2.5.22v14.13h-7.91c-4.94,0-8.55-1-10.82-3.01-2.06-1.81-3.09-4.54-3.09-8.19,0-2.17.33-4.15.98-5.95l5.34-.87c-.86,1.89-1.29,3.97-1.29,6.25,0,2.75.68,4.72,2.05,5.92,1.44,1.28,3.89,1.92,7.34,1.92h2.59v-13.63c2.34-.48,4.88-.72,7.6-.72,3.18,0,5.47.75,6.88,2.24,1.24,1.33,1.87,3.37,1.87,6.12v5.99h6.8v-22.76h4.99v22.76h3.79v3.94h-20.43Z"/>
        <path class="cls-23" d="M943.49,654.27h5.79c-1.96-1.16-2.94-3.04-2.94-5.64s.81-4.54,2.44-6.12c1.79-1.73,4.28-2.59,7.47-2.59,1.69,0,3.25.24,4.7.72l-.87,3.98c-1.16-.53-2.47-.79-3.94-.79s-2.58.44-3.46,1.31c-.88.88-1.31,2.04-1.31,3.49,0,1.7.68,3.04,2.05,4.03,1.49,1.07,3.67,1.61,6.55,1.61h2.96v3.94h-19.43v-3.94Z"/>
        <path class="cls-23" d="M974.88,631.5h4.99v22.76h3.79v3.94h-8.78v-26.7Z"/>
        <path class="cls-23" d="M983.09,654.27h5.31v-13.87h4.99v13.87h3.72v3.94h-14.02v-3.94ZM989.05,636.48c-.51-.5-.76-1.13-.76-1.87s.25-1.33.76-1.85c.52-.51,1.13-.76,1.85-.76s1.33.25,1.85.76c.51.52.76,1.13.76,1.85s-.25,1.33-.76,1.85c-.52.51-1.13.76-1.85.76s-1.34-.25-1.85-.74Z"/>
        <path class="cls-23" d="M996.54,654.27h1.33c3.49,0,6.43-.39,8.82-1.17-3.37-3.16-6.02-5-7.95-5.53l.41-3.57c3.88-2.8,7.53-4.2,10.95-4.2,2.66,0,4.7.62,6.12,1.87,1.25,1.11,1.87,2.56,1.87,4.34,0,2.69-1.29,5.11-3.86,7.27,1.36.65,2.76.98,4.22.98h2.5v3.94h-3.07c-2.85,0-5.45-.78-7.8-2.35-3.5,1.57-7.67,2.35-12.5,2.35h-1.02v-3.94ZM1010.77,650.97c1.57-1.23,2.35-2.67,2.35-4.33,0-.94-.3-1.69-.89-2.26-.64-.62-1.55-.92-2.72-.92-1.57,0-3.48.76-5.75,2.27.99.39,3.32,2.14,7.01,5.23Z"/>
        <path class="cls-23" d="M1020.35,658.2v-3.94h2.16c.88,0,1.58.09,2.11.26-1.41-1.02-2.11-2.83-2.11-5.42s.81-4.7,2.44-6.4c1.8-1.86,4.26-2.79,7.4-2.79,5.71,0,8.56,2.9,8.56,8.71v9.58h-20.56ZM1036.03,649.24c0-3.59-1.35-5.38-4.05-5.38-1.39,0-2.5.48-3.33,1.44-.79.94-1.18,2.16-1.18,3.66,0,3.54,1.89,5.31,5.68,5.31h2.88v-5.03Z"/>
        <path class="cls-23" d="M1067.61,631.5h4.99v22.76h3.57v3.94h-3.75c-.81,5.81-4.14,8.71-9.97,8.71-6.51,0-9.76-3.59-9.76-10.76,0-2.32.3-4.57.91-6.77l5.16-.94c-.71,2.51-1.07,4.94-1.07,7.27,0,4.87,1.73,7.3,5.2,7.3,3.16,0,4.73-2.43,4.73-7.3v-24.2Z"/>
        <path class="cls-23" d="M1075.6,654.27h5.07v-13.87h5.01v.96c0,2.12-.15,3.99-.46,5.6h.07c.81-2.23,2.12-3.98,3.94-5.25,1.7-1.2,3.58-1.79,5.64-1.79,2.6,0,4.59.76,5.97,2.29,1.36,1.49,2.04,3.59,2.04,6.3,0,2.93-.88,5.23-2.64,6.88-1.97,1.87-4.96,2.81-8.95,2.81h-15.68v-3.94ZM1091.73,654.27c3.99,0,5.99-1.82,5.99-5.46,0-3.28-1.29-4.92-3.86-4.92-1.97,0-3.76,1.06-5.36,3.18-1.52,2.01-2.48,4.41-2.88,7.19h6.12Z"/>
        <path class="cls-23" d="M1107.74,631.5h4.99v26.7h-4.99v-26.7Z"/>
        <path class="cls-23" d="M1117.02,667.25l.31-4.09c1.97.43,3.94.65,5.9.65,4.38,0,6.56-1.68,6.56-5.03v-.57h-2.96c-6.77,0-10.15-2.93-10.15-8.78,0-2.69.8-4.89,2.4-6.62,1.8-1.92,4.35-2.88,7.64-2.88,2.97,0,5.61.44,7.91,1.31v13.04h3.7v3.94h-3.7v.07c0,2.81-.92,5.04-2.75,6.69-2.05,1.85-5.08,2.77-9.1,2.77-1.9,0-3.82-.17-5.77-.5ZM1129.8,644.54c-.96-.46-2.16-.68-3.61-.68s-2.5.48-3.31,1.44c-.8.94-1.2,2.16-1.2,3.66,0,3.54,1.9,5.31,5.7,5.31h2.42v-9.73Z"/>
        <path class="cls-23" d="M1137.79,654.27h5.31v-13.87h4.99v17.81h-10.3v-3.94ZM1139.95,636.77c-.48-.49-.72-1.1-.72-1.81s.24-1.33.72-1.83c.49-.5,1.08-.76,1.78-.76s1.32.25,1.81.76c.48.49.72,1.1.72,1.83s-.24,1.31-.72,1.81c-.49.51-1.1.76-1.81.76s-1.29-.25-1.78-.76ZM1146.24,636.77c-.48-.49-.72-1.1-.72-1.81s.24-1.33.72-1.83c.49-.5,1.08-.76,1.78-.76s1.29.25,1.77.76c.48.49.72,1.1.72,1.83s-.24,1.31-.72,1.81c-.49.51-1.08.76-1.77.76s-1.29-.25-1.78-.76Z"/>
      </g>
    </g>
    <g id="OBJECTS">
      <g>
        <g class="cls-50">
          <g>
            <path class="cls-23" d="M-69.56,968.07s-.81-25.34,20.35-26.97c21.16-1.64,25.52,18.03,25.52,18.03,0,0-3.95-36.64,23.31-38.74,26.26-2.02,30.32,38.06,30.32,38.06,0,0,11.7-40.08,46.16-35.62,43.33,5.61,35.21,46.2,35.21,46.2,0,0,32.22-15.99,56.29,6.57,17.8,16.69,13.91,36.86,13.91,36.86,0,0,32.07-40.42,52.8-17.04,12.18,13.74,10.1,36.28-3.91,58.43-21.03,33.26-114.27,33.58-177.97,29.8-70.04-4.15-118.62-.78-121.99-115.6Z"/>
            <path class="cls-23" d="M2014.39,1042.37c-17.25-28.21-58.16,7.94-58.16,7.94,0,0,7.8-20.29-7.64-40.98-20.88-27.97-57.41-17.3-57.41-17.3,0,0,16-40.77-28.09-54.66-35.06-11.04-54.69,28.52-54.69,28.52,0,0,3.21-42.51-24.51-45.28-28.79-2.88-31.48,36.02-31.48,36.02,0,0-.89-21.29-23.23-23.52-12.23-1.22-18.91,6.18-22.47,13.13-2.32-6.83-4.38-14.04-6.1-21.67,0,0-125.85-9.66-148.3-5.7-22.44,3.96-21.72,25.58-21.72,25.58,0,0-5.69-39.16-34.61-34.06-27.85,4.92-21.36,47.7-21.36,47.7,0,0-22.89-38.55-57.54-24.7-43.57,17.42-24.27,57.47-24.27,57.47,0,0-37.79-8.02-56.79,21.89-14.05,22.12-4.61,42.06-4.61,42.06,0,0-44.17-33.47-59.48-3.6-8.99,17.54-.8,40.43,19.7,59.72,29.76,28.01,384.13-2.55,466.45-23.55,14.91,5,32,8.67,50.46,13.1,65.66,15.76,162.82,32.75,190.91,2.02,18.71-20.47,25.06-43.56,14.93-60.13Z"/>
          </g>
        </g>
        <g>
          <g>
            <path class="cls-23" d="M895.28,847.32c2.17-1.14,4.12-2.64,5.23-4.93,1.62-3.41.47-7.27-2.33-9.7-3.75-3.26-11.36-5.53-16.24-2.95-.08-1.83-.4-3.65-1.28-5.25-1.36-2.47-4.02-3.79-6.82-3.53-6.28.6-10.22,7.03-9.92,12.96,0,.01.01.03.01.05-6.96,1.51-13.25,6.18-16.49,12.54-1.75,3.45-2.68,7.69-.93,11.33,1.6,3.35,5.23,5.23,8.64,6.19,2.18.62,4.67.87,6.86.27-.77,2.78-1.03,5.67.25,8.41,1.6,3.39,5.16,4.66,8.7,4.57,6.33-.18,13.61-3.14,15.8-9.27,2.1,1.65,4.8,2.42,7.54,2.12,3.98-.43,7.11-3.08,8.56-6.76,2.71-6.88-1.42-13.47-7.59-16.04ZM900.39,861.87c-.87,2.73-3.04,4.9-5.92,5.37-2.69.44-5.69-.52-7.29-2.81-.82-1.19-2.52-.72-2.64.72-.55,6.26-7.77,8.95-13.15,9.25-2.78.15-5.7-.51-6.77-3.4-1.17-3.17.2-6.57,1.33-9.53.5-1.32-1.47-2.42-2.37-1.37-2.44,2.77-6.91,1.69-9.87.41-1.67-.73-3.33-1.76-4.33-3.34-1.14-1.79-1.17-4.01-.68-6.02,1.84-7.55,9.09-13.12,16.47-14.55.84-.16,1.11-.85.99-1.5.37-.22.64-.61.6-1.18-.23-4.35,2.34-9.47,7.07-10.11,5.17-.7,5.42,5.33,5.25,8.93-.05,1.15,1.66,1.98,2.43,1,3.14-3.98,10.28-2.02,13.84.35,2.32,1.53,3.95,4.35,2.62,7.07-1.39,2.83-4.6,4.08-7.36,5.16-1.49.59-1.26,2.65.39,2.78,6.29.56,11.45,6.41,9.41,12.78Z"/>
            <path class="cls-23" d="M900.39,861.87c-.87,2.73-3.04,4.9-5.92,5.37-2.69.44-5.69-.52-7.29-2.81-.82-1.19-2.52-.72-2.64.72-.55,6.26-7.77,8.95-13.15,9.25-2.78.15-5.7-.51-6.77-3.4-1.17-3.17.2-6.57,1.33-9.53.5-1.32-1.47-2.42-2.37-1.37-2.44,2.77-6.91,1.69-9.87.41-1.67-.73-3.33-1.76-4.33-3.34-1.14-1.79-1.17-4.01-.68-6.02,1.84-7.55,9.09-13.12,16.47-14.55.84-.16,1.11-.85.99-1.5.37-.22.64-.61.6-1.18-.23-4.35,2.34-9.47,7.07-10.11,5.17-.7,5.42,5.33,5.25,8.93-.05,1.15,1.66,1.98,2.43,1,3.14-3.98,10.28-2.02,13.84.35,2.32,1.53,3.95,4.35,2.62,7.07-1.39,2.83-4.6,4.08-7.36,5.16-1.49.59-1.26,2.65.39,2.78,6.29.56,11.45,6.41,9.41,12.78Z"/>
          </g>
          <path class="cls-23" d="M1112.02,837.98c-1.14-.74-2.51-1.13-3.88-.95-.95.12-1.83.51-2.47,1.14-.04.03-.09.05-.12.08-1.09.94-1.7,2.25-1.74,3.68-.04,1.56.66,2.99,1.74,4.08,1.07,1.07,2.53,1.76,4.06,1.51,1.49-.25,3.06-1.08,3.88-2.39,1.48-2.35.91-5.61-1.47-7.15Z"/>
          <path class="cls-23" d="M1290.42,832.31c-1.14-.74-2.51-1.13-3.88-.95-.95.12-1.83.51-2.47,1.14-.04.03-.09.05-.12.08-1.09.94-1.7,2.25-1.74,3.68-.04,1.56.66,2.99,1.74,4.08,1.07,1.07,2.53,1.76,4.06,1.51,1.49-.25,3.06-1.08,3.88-2.39,1.48-2.35.91-5.61-1.47-7.15Z"/>
          <path class="cls-23" d="M1044.74,777.89c-1.64-1.06-3.6-1.62-5.56-1.37-1.37.17-2.62.74-3.54,1.64-.06.04-.12.07-.18.12-1.56,1.34-2.44,3.22-2.49,5.27-.05,2.23.94,4.29,2.49,5.85,1.53,1.54,3.62,2.53,5.82,2.16,2.14-.36,4.39-1.55,5.57-3.42,2.12-3.37,1.3-8.04-2.11-10.25Z"/>
          <g>
            <path class="cls-23" d="M1170.81,797.8c1.56-.82,2.97-1.9,3.76-3.55,1.17-2.45.34-5.24-1.68-6.99-2.7-2.35-8.18-3.98-11.7-2.13-.06-1.32-.29-2.63-.92-3.78-.98-1.78-2.9-2.73-4.91-2.54-4.52.43-7.36,5.06-7.14,9.34,0,0,0,.02,0,.03-5.02,1.09-9.54,4.45-11.88,9.03-1.26,2.49-1.93,5.54-.67,8.16,1.15,2.41,3.76,3.76,6.23,4.46,1.57.45,3.36.63,4.94.2-.56,2-.74,4.08.18,6.05,1.15,2.44,3.71,3.35,6.27,3.29,4.56-.13,9.8-2.26,11.38-6.68,1.51,1.19,3.46,1.74,5.43,1.53,2.86-.31,5.12-2.22,6.17-4.87,1.96-4.96-1.02-9.7-5.47-11.55ZM1174.49,808.28c-.63,1.96-2.19,3.53-4.26,3.87-1.94.32-4.1-.38-5.25-2.02-.59-.86-1.82-.52-1.9.52-.39,4.51-5.6,6.45-9.47,6.66-2,.11-4.11-.37-4.88-2.45-.84-2.28.15-4.73.96-6.86.36-.95-1.06-1.74-1.71-.99-1.76,2-4.97,1.22-7.11.29-1.2-.52-2.4-1.27-3.12-2.41-.82-1.29-.84-2.89-.49-4.34,1.33-5.44,6.55-9.45,11.86-10.48.61-.11.8-.61.71-1.08.27-.16.46-.44.43-.85-.16-3.13,1.69-6.82,5.09-7.28,3.72-.51,3.9,3.84,3.78,6.43-.03.83,1.19,1.42,1.75.72,2.26-2.86,7.4-1.46,9.97.25,1.67,1.1,2.85,3.13,1.89,5.09-1,2.04-3.31,2.94-5.3,3.71-1.07.43-.91,1.91.28,2,4.53.4,8.25,4.61,6.77,9.2Z"/>
            <path class="cls-23" d="M1174.49,808.28c-.63,1.96-2.19,3.53-4.26,3.87-1.94.32-4.1-.38-5.25-2.02-.59-.86-1.82-.52-1.9.52-.39,4.51-5.6,6.45-9.47,6.66-2,.11-4.11-.37-4.88-2.45-.84-2.28.15-4.73.96-6.86.36-.95-1.06-1.74-1.71-.99-1.76,2-4.97,1.22-7.11.29-1.2-.52-2.4-1.27-3.12-2.41-.82-1.29-.84-2.89-.49-4.34,1.33-5.44,6.55-9.45,11.86-10.48.61-.11.8-.61.71-1.08.27-.16.46-.44.43-.85-.16-3.13,1.69-6.82,5.09-7.28,3.72-.51,3.9,3.84,3.78,6.43-.03.83,1.19,1.42,1.75.72,2.26-2.86,7.4-1.46,9.97.25,1.67,1.1,2.85,3.13,1.89,5.09-1,2.04-3.31,2.94-5.3,3.71-1.07.43-.91,1.91.28,2,4.53.4,8.25,4.61,6.77,9.2Z"/>
          </g>
          <path class="cls-23" d="M768.69,790.2c1.49-.72,2.6-1.92,3.15-3.44.14-.23.25-.49.33-.77.93-3.21-.38-6.85-2.81-9.05-2.61-2.37-6.88-2.9-10.14-1.71-1.73.63-3.29,1.9-4.02,3.62-.74,1.74-.75,3.7-.14,5.48,1.24,3.62,4.97,5.73,8.56,6.36,1.68.29,3.51.25,5.07-.49Z"/>
          <path class="cls-23" d="M662.98,814.61c1.37-.24,2.67-.9,3.57-1.98.63-.75,1.01-1.65,1.06-2.58.01-.05.03-.1.04-.15.16-1.46-.29-2.87-1.26-3.97-1.06-1.19-2.57-1.79-4.14-1.85-1.54-.06-3.12.44-4.09,1.7-.94,1.22-1.54,2.94-1.25,4.49.53,2.8,3.22,4.84,6.08,4.34Z"/>
          <path class="cls-23" d="M160.03,573.59c-6.31,1.17-8.73,7.43-7.88,13.25.3,2.08-2.29,2.56-3.48,1.32-.5-.31-.86-.82-.9-1.56-.17-3.58-1.48-7.01-3.77-9.78-1.1-1.33-2.42-2.52-3.9-3.43-1.48-.91-3.1-1.52-3.6-3.36-.3-1.08.27-2.17,1.33-2.53,3-1.06,6.23-2.12,8.47-4.49,2.23-2.33,3.03-5.59,3.14-8.74.08-2.58,3.94-2.76,4.06-.13.26,5.8,1.17,12.73,6.89,15.72,1.42.75,1.41,3.4-.36,3.73Z"/>
          <path class="cls-23" d="M1437.76,616.54c-4.84,1.29-8.26,5.92-7.59,11,.16,1.09-.26,2.16-1.42,2.5-.32.08-.71.06-1.07-.03-.92-.08-1.75-.73-1.65-1.93.4-5.68-4.25-9.63-8.23-12.94-1.28-1.07-.37-2.89.92-3.39,5-1.94,8.75-6.88,9.29-12.22.26-2.55,4.01-2.65,4.06,0,.07,5.1,1.31,10.73,6.19,13.3,1.56.81,1.15,3.26-.49,3.7Z"/>
        </g>
      </g>
      <g class="cls-47">
        <g>
          <g>
            <path class="cls-1" d="M413.11,574.02s7.83,4.57,12.45-2.33l12.38-30.84-13.56-7.93-11.27,41.1Z"/>
            <g>
              <path class="cls-2" d="M287.12,598.75s12.14,31.55,2.89,54.74l-76.79,24.76s13.8-63.3,38.99-89.88l34.92,10.39Z"/>
              <g>
                <path class="cls-26" d="M277.16,659.85l-2.74-1.24c10.8-23.79,2.59-61.75,2.5-62.13l2.93-.65c.35,1.59,8.51,39.31-2.7,64.02Z"/>
                <path class="cls-26" d="M229.94,673.59l-2.96-.52c7.28-41.47,32.23-82.54,32.48-82.95l2.56,1.57c-.25.41-24.91,41-32.09,81.9Z"/>
                <rect class="cls-26" x="227.45" y="626.3" width="70.11" height="3" transform="translate(-402.69 771.18) rotate(-79.47)"/>
              </g>
            </g>
            <path class="cls-30" d="M287.47,603.74c-9.72,1.18-26.34.87-37.18-12.11-2.65-3.17-3.09-7.65-1.39-11.41l11.16-24.7,34.93,12.63.23,26.75c.04,4.5-3.3,8.3-7.76,8.84Z"/>
            <polygon class="cls-22" points="456.55 753.9 462.86 819.35 484.12 860.21 453.23 906.05 400.4 869.84 383.46 751.58 456.55 753.9"/>
            <path class="cls-22" d="M134.9,769.83l-24.61,109.54c-1.67,7.45,2.18,15,9.16,18.09,13.13,5.81,36.63,12.42,67.27,5.35l7.91-60.97-10.19-3.55,13.01-46.99-62.55-21.46Z"/>
            <polygon class="cls-1" points="184.44 838.29 187.72 839.43 185.01 849.05 159.4 837.31 185.01 791.29 190.48 788.9 197.45 791.29 184.44 838.29"/>
            <polygon class="cls-1" points="199.61 785.21 194.56 801.72 131.17 786.42 133.99 773.89 199.61 785.21"/>
            <path class="cls-23" d="M463.79,785.5s-35.59,17.01-59.82,15.55l-11.06,50.25,10.05,107.81-197.7-14.85-4.07-152.96s-32.95-.53-65-8.44c-6.68-1.65-3.92-6.67-1.29-13.02l34.9-72.4c4.82-11.62,25.86-31.73,37.21-37.16,0,0,72.63-26.63,98.1-28.15,17.91-1.07,54.24,4.66,70.84,11.47,9.25,3.8,34.19,20.78,34.19,20.78,9.82,5.49,26.09,23.38,31.24,33.39,9.41,18.29,19.15,53.59,22.41,87.75Z"/>
            <path class="cls-22" d="M288.07,641.89c-2.28,10.57,17.16,23.74,43.44,29.41,26.27,5.68,49.42,1.72,51.71-8.85,2.28-10.57-17.16-23.74-43.44-29.41-26.27-5.68-49.42-1.72-51.71,8.85Z"/>
            <path class="cls-19" d="M369.98,641.55s13.62,2.29,20.31,10.75c1.69,2.13,6.44,17.62,11.15,42.89,6.51,34.89,10.11,74.86,10.11,74.86l-18.65,81.24,27.92,238.04H152.76l45.83-294.87,29.43-69.04s12.65-29.8,16.59-39.78c4.99-12.65,25.07-39.05,33.57-48.75,2.02-2.3,4.85-3.72,7.9-3.95l17.3-1.29s-33.79,36.28-39.91,56.36c-3.66,12.01-11.55,53.02-11.55,53.02,0,0,73.17,20.98,140.01,12.2l-3.41-54.64s-5.15-27.14-7.97-35.19c-2.25-6.41-10.56-21.86-10.56-21.86Z"/>
            <rect class="cls-23" x="528.81" y="800.88" width="16.79" height="478.57" transform="translate(-73.59 41.44) rotate(-4.13)"/>
            <path class="cls-9" d="M419.25,738.61c-1.43,10.66-3.76,21.12-6.26,31.56-2.59,10.29-5.4,20.92-9.02,30.88,1.39-10.5,3.8-21.25,6.26-31.56,2.61-10.41,5.37-20.77,9.02-30.88h0Z"/>
            <path class="cls-9" d="M380.54,669.78c-11.5,14.35-32.03,17.65-49.27,14.2-8.7-1.63-17.68-2.95-25.82-6.77-8.18-3.76-15.03-10.21-19.45-17.98,5.45,6.86,12.28,12.56,20.41,15.8,7.97,3.36,16.71,4.43,25.39,6.21,16.79,3.46,36.12,1.07,48.74-11.46h0Z"/>
            <path class="cls-22" d="M438.41,496.22l-33.83,104.08c-.99,3.03-2.52,5.84-4.56,8.29-4.98,5.94-22.19,17.72-30.88,17.03,0,0,2.2,36.94,1.37,40.23,0,0-40.79,4.6-72.59-11.69l10.01-39.53s-20.81-11.38-24.31-32.07l.29-109.2c.03-9.91,3.93-19.45,11.01-26.4,12.2-11.98,36.64-26.01,83.15-22.75,0,0,72.13,17.82,60.35,72Z"/>
            <path class="cls-39" d="M306.44,467.88s64.86-13.95,115.29,9.17c0,0-94.65-106.47-115.29-9.17Z"/>
            <g class="cls-46">
              <path class="cls-1" d="M346.61,509.37c3.15,2.57,2.75-.69,1.2,6.99-.15.74-1.8,4.63-2.51,4.88-1.38.49-1.96.22-3.31-.36-5.67-2.45-10.93-4.3-16.94-2.91-2.82.66-4.51,1.71-7.46,2.08-3.06.38-4.71-8.1-4.93-11.17-.1-1.52,1.23-2.49,3.23-2.79.76-.11,2.57-.34,3.32-.48,3.6-.64,3.35-.05,7.01,0,2.49.03,4.97.39,7.44.74,3.98.57,7.97,1.14,11.95,1.72.57.08,1.33.57.97,1.02"/>
            </g>
            <g class="cls-46">
              <path class="cls-1" d="M410.6,524.03c1.45,1.82,1.69-.59.69,1.51-.73,1.54-2.53,5.38-4.06,6.12-2.46,1.19-2.32,2.41-3.64,1.93-1.52-.55-3.05-1.06-4.56-1.63-5.6-2.1-10.53-2.39-16.43-3.39-.51-.09-1.6.91-2.01.58-.64-.52-.6-1.21-.67-2.04-.15-1.71.16-4.42.49-6.1.22-1.1.51-2.2,1.26-3.04.87-.99,2.26-.3,3.55-.56,2.99-.61,6.82-1.12,9.83-.6,4.64.79,7.22,3.19,11.62,4.85,1.42.54,2.85,1.12,4.07,2.02"/>
            </g>
            <path class="cls-2" d="M415.76,473.57s-92.85-66.34-131.93,28.78l-.22,77.49s-32.78-16.36-34.94-60.66c-1.03-21.11.53-57.86,17.2-82.36,18.09-26.58,62.63-68.55,122.85-36.05,17.08,9.22,29.85,40.96,27.04,72.79Z"/>
            <path class="cls-20" d="M399.33,410.03s41.37,8.92,42.62,71.15c.36,17.91,8.37,34.49-8.61,71.15l-10.12-9.9s6.25-59.74-7.45-68.86c0,0,3.11-41.3-16.43-63.55Z"/>
            <path class="cls-1" d="M368.63,626.2s-25.78,9.22-52.69-10.22c0,0,9.84,33.14,52.69,20.93v-10.71Z"/>
            <path class="cls-26" d="M415.4,455.15c-33.79-30.06-78.05-40.75-116.19-11.83-20.69,15.4-35.76,37.02-48.77,59.04,9.59-19.23,21.42-37.87,37.14-52.83,15.62-15.16,36.39-26.06,58.52-26.1,26.3-.11,51.27,13.2,69.31,31.72h0Z"/>
            <path class="cls-2" d="M366.99,532.92c.49,7.73,1.12,15.49,2.84,22.99.5,1.81.93,3.67,1.62,5.41.34.99.92,2.05.99,3.16.17,2.02-.91,4.1-2.71,5.08-1.52.78-3.14.73-4.76,1.02,0,0-5.8.75-5.8.75l-.27.04c-5.05-1.32-14.77-5.39-10.8-12-2.29,6.41,6.54,8.53,11.13,9.52,0,0-.44-.01-.44-.01,2.02-.39,6.67-1.26,8.63-1.58,1.59-.19,2.41-1.84,1.9-3.25-.05-.15-.55-1.53-.63-1.72-3.17-9.43-3.18-19.68-1.69-29.41h0Z"/>
            <path class="cls-37" d="M467.51,820.34s-55.15,10.96-57.8,76.74l25.91,14.95,36.87,5.98,29.9,29.23s25.25,14.28,35.88,8.97l27.24-25.58v-46.51s2.66-25.25-15.95-20.93l-10.96,2.66-22.59-13.29s-11.43-7.64-19.67,4.62l-14.88-10.6-13.95-26.24Z"/>
            <path class="cls-40" d="M511.34,951.66s-27.22-18.53-6.76-63.59l18.19,11.38-11.44,52.21Z"/>
            <path class="cls-14" d="M469.5,841.27c-17.99,17.65-33.87,39.18-37.21,64.78-1.2-25.78,16.6-50.74,37.21-64.78h0Z"/>
            <path class="cls-37" d="M551.72,927.98s-17.94,10.3-18.6,10.3-21.93-5.15-21.93-5.15c0,0-14.97,4.25.14,18.53"/>
            <path class="cls-14" d="M551.72,927.98c-5.69,4.08-11.56,7.96-17.69,11.34-.5.32-1.41.26-1.79.15-7.23-1.4-14.27-3.13-21.37-4.99,0,0,.7-.01.7-.01-10.18,3.27-5.21,11.45-.23,17.2-1.59-1.22-3.12-2.56-4.46-4.12-5.67-6.21-3.8-13.27,4.23-15.85,6.36,1.34,15.26,3.58,21.65,5.17.34.09.41.08.2.08-.03,0-.09.04-.01,0l.29-.13c6.14-2.96,12.21-6.14,18.48-8.84h0Z"/>
            <path class="cls-37" d="M555.21,906.05l-26.08,9.14-25.41-4.57s-7.64,16.19,7.47,22.51"/>
            <path class="cls-14" d="M555.21,906.05c-8.49,3.88-17.19,7.28-25.93,10.54-3.85-.58-9.22-1.54-13.12-2.21-4.23-.8-8.47-1.55-12.68-2.43l1.46-.75c-3.83,8.44-2.7,17.47,6.25,21.93-2.14-.67-4.21-1.72-5.96-3.27-5.85-5.2-5.36-14.11-2.35-20.74,8.74,1.34,17.82,2.98,26.5,4.72l-.69.06c8.76-2.87,17.58-5.6,26.53-7.85h0Z"/>
            <path class="cls-37" d="M554.38,885.45l-28.9,7.64-23.69-3.82s-11.52,8.8,1.93,21.34l25.41,4.57"/>
            <path class="cls-14" d="M554.38,885.45c-9.51,3.29-19.15,6.19-28.82,8.96-7.89-1.12-16.15-2.36-24.01-3.68l1.13-.28c-1.31,1.07-2.57,2.71-3.25,4.31-2.55,5.48,1.04,11.26,5,15.1,0,0-.53-.26-.53-.26,8.43,1.76,16.85,3.56,25.23,5.59-8.65-1.02-17.26-2.29-25.87-3.58-5.11-4.19-9.45-11.28-6.48-17.98,1.01-2.36,2.53-4.29,4.58-5.91,2.19.35,4.4.67,6.59,1.04,5.74.95,12.04,2.02,17.74,3.06,0,0-.54.03-.54.03,9.7-2.34,19.42-4.56,29.23-6.39h0Z"/>
            <path class="cls-37" d="M537.13,864.99s10.33,18.15-9.77,16.82l-22.77-5.98-5.6,30.23-16.86-.84,15.07-35.91,39.93-4.32Z"/>
            <path class="cls-14" d="M482.13,885.45c-.48-10.49,4.32-23.45,14.21-28.27-6.96,8.06-10.46,18.48-14.21,28.27h0Z"/>
            <path class="cls-1" d="M284.23,554.83s-9.84,2.84-13.1-11.82l-2.78-24.14,15.48-16.51.4,52.47Z"/>
            <g>
              <path class="cls-1" d="M372.56,590.53s-8,9.15-16.71,9.15c-5.82,0-13.56-3.78-17.49-6.34-2.84-1.85-5.66-7.69-7-14.29l41.2,11.48Z"/>
              <path class="cls-23" d="M369.34,590.68s-5.36,4.9-14.07,4.92c-1.96,0-9.94-3.03-12.68-4.51-2.99-1.61-6.7-4.33-8.04-10.93l34.79,10.51Z"/>
              <path class="cls-2" d="M372.56,590.53c-14.08-2.43-27.9-6.27-41.2-11.48,14.08,2.41,27.9,6.28,41.2,11.48h0Z"/>
            </g>
            <g>
              <path class="cls-5" d="M330.97,530.03s8.06,2.18,9.08-9.97l-8.54-1.13-.55,11.11Z"/>
              <path class="cls-2" d="M322.95,526.22c0,5.92.34,8.39,3.94,8.39s6.76-2.27,7.35-8.48c.55-5.89-.17-8.17-5.39-8.17-5.64,0-5.89,2.33-5.89,8.25Z"/>
              <path class="cls-2" d="M345.31,522.09c-5.05-.31-9.52-.93-14.37-1.19-4.91-.39-9.2-.13-14.31-.24,7.51-7.6,21.83-6.56,28.68,1.43h0Z"/>
            </g>
            <g>
              <path class="cls-5" d="M390.1,540.56s7.89,3.56,8.91-8.6l-7.83-1.93-1.09,10.52Z"/>
              <path class="cls-20" d="M383.06,535.81c0,5.78.18,9,3.7,9s6.76-3.02,7.33-9.08c.54-5.76-.16-7.98-5.27-7.98-5.51,0-5.76,2.28-5.76,8.06Z"/>
              <path class="cls-20" d="M404.73,534.62c-4.41-1.09-8.16-2.4-12.36-3.37-4.23-1.08-7.89-1.33-12.46-1.85,7.13-7.15,20.75-3.63,24.82,5.23h0Z"/>
            </g>
            <path class="cls-2" d="M349.52,512.45s-19.75-12.26-38.79-2.66c0,0,3.24-17.77,39.96-2.26l-1.17,4.92Z"/>
            <path class="cls-2" d="M378.53,520.14s19.81-7.47,34.58,7.84c0,0,1.33-19.15-31.49-13.65l-3.09,5.81Z"/>
            <path class="cls-23" d="M271.85,551.22c0,3.54,2.87,6.41,6.41,6.41s6.41-2.87,6.41-6.41-2.87-6.41-6.41-6.41-6.41,2.87-6.41,6.41Z"/>
            <path class="cls-23" d="M413.15,575.5c0,3.54,2.87,6.41,6.41,6.41s6.41-2.87,6.41-6.41-2.87-6.41-6.41-6.41-6.41,2.87-6.41,6.41Z"/>
            <path class="cls-26" d="M411.56,432.21c-14.79-12.77-32.04-23-50.79-28.58-33.87-10.12-64.09,1.22-88.91,25.14,3.17-3.5,6.89-7.34,10.5-10.46,0,0,1.84-1.66,1.84-1.66l1.96-1.53c2.34-1.87,5.59-4.22,8.11-5.75,39.38-25.45,86.9-8.49,117.3,22.83h0Z"/>
            <path class="cls-26" d="M418.35,476.21c-.85-20.25-3.8-41.17-14.05-58.96-1.47-2.52-3.18-4.89-4.98-7.22,2.1,2.06,3.97,4.35,5.71,6.74,11.46,16.99,14.8,39.31,13.31,59.44h0Z"/>
            <path class="cls-14" d="M537.13,864.99c6.95,10.41,3.3,19.13-9.87,18.24-7.61-1.81-15.47-3.99-23-6.2l1.54-.98c-2.07,9.87-4.32,20.22-6.83,30,1.17-10.03,2.77-20.5,4.37-30.46l.21-1.29,1.34.31c7.57,1.73,15.36,3.73,22.82,5.81,11.15.98,13.56-4.77,9.41-15.43h0Z"/>
            <g>
              <g>
                <g>
                  <polygon class="cls-11" points="570.61 637.24 561.9 633.5 573.58 744.34 582.16 746.89 570.61 637.24"/>
                  <polygon class="cls-11" points="553.17 629.61 544.47 625.87 556.15 736.71 564.73 739.26 553.17 629.61"/>
                  <polygon class="cls-11" points="535.74 621.98 527.03 618.24 538.71 729.08 547.3 731.63 535.74 621.98"/>
                  <polygon class="cls-11" points="500.87 606.71 492.17 602.98 503.85 713.81 512.43 716.36 500.87 606.71"/>
                  <polygon class="cls-11" points="483.44 599.08 474.73 595.35 486.41 706.18 495 708.73 483.44 599.08"/>
                  <polygon class="cls-11" points="466.01 591.45 457.3 587.71 468.98 698.55 477.56 701.1 466.01 591.45"/>
                  <polygon class="cls-11" points="518.31 614.35 509.6 610.61 521.28 721.44 529.86 724 518.31 614.35"/>
                </g>
                <g>
                  <polygon class="cls-33" points="526.94 617.33 518.23 613.59 529.91 724.43 538.49 726.98 526.94 617.33"/>
                  <polygon class="cls-33" points="561.8 632.59 553.09 628.86 564.77 739.69 573.36 742.25 561.8 632.59"/>
                  <polygon class="cls-33" points="544.37 624.96 535.66 621.23 547.34 732.06 555.92 734.61 544.37 624.96"/>
                  <polygon class="cls-33" points="509.5 609.7 500.8 605.96 512.47 716.8 521.06 719.35 509.5 609.7"/>
                  <polygon class="cls-33" points="492.07 602.07 483.36 598.33 495.04 709.17 503.63 711.72 492.07 602.07"/>
                  <polygon class="cls-33" points="474.64 594.44 465.93 590.7 477.61 701.54 486.19 704.09 474.64 594.44"/>
                  <polygon class="cls-33" points="457.2 586.81 448.5 583.07 460.18 693.91 468.76 696.46 457.2 586.81"/>
                </g>
              </g>
              <path class="cls-4" d="M583.66,742.63c.58,15.48-.77,72.21-50.84,80.06l1.02,10.91-21.1,2.22-1.35-14.38s-39.65-2.34-47.63-53.59l-6.78-72.38c-.4-4.27,3.38-7.49,7.03-5.99l116.19,47.92c2,.82,3.36,2.88,3.45,5.22Z"/>
              <path class="cls-32" d="M580.22,737.41l-116.19-47.92c-3.65-1.51-7.43,1.72-7.03,5.99l1.02,10.85,125.1,53.14c.71-7.13.69-13.15.55-16.83-.09-2.34-1.45-4.4-3.45-5.22Z"/>
            </g>
            <path class="cls-2" d="M322.95,448.91s-21.88,77.93-60.44,79.79l-6.4-19.55,66.84-60.25Z"/>
            <g>
              <g>
                <polygon class="cls-23" points="358.7 814.21 342.06 750.32 316.38 753.13 301.42 811.73 358.7 814.21"/>
                <path class="cls-43" d="M319.91,749.33l19.62-.55c1.31-.04,2.32-1.17,2.22-2.47l-1.78-21.77c-.18-2.24-2.09-3.94-4.33-3.88l-12.77.36c-2.2.06-3.98,1.8-4.1,3.99l-1.21,21.91c-.07,1.34,1.01,2.45,2.35,2.41Z"/>
                <path class="cls-20" d="M313.77,743.17h31.73c2.7,0,4.88,2.19,4.88,4.88v4.07c0,3.03-2.46,5.5-5.5,5.5h-30.5c-3.03,0-5.5-2.46-5.5-5.5v-4.07c0-2.7,2.19-4.88,4.88-4.88Z" transform="translate(680.27 1491.21) rotate(178.39)"/>
              </g>
              <g>
                <g>
                  <rect class="cls-45" x="366" y="739.38" width="48.51" height="98.65" rx="9.74" ry="9.74" transform="translate(207.17 -72.01) rotate(14.32)"/>
                  <path class="cls-37" d="M411.79,743.3l-28.12-7.18h0l-9-2.3c-5.19-1.33-10.52,1.84-11.85,7.03l-19.58,76.7c-1.33,5.19,1.84,10.52,7.03,11.85l28.12,7.18h0l9,2.3c5.19,1.33,10.52-1.84,11.85-7.03l19.58-76.7c1.33-5.19-1.84-10.52-7.03-11.85Z"/>
                </g>
                <g>
                  <path class="cls-45" d="M373.13,740.63c-.36,1.41-1.8,2.26-3.21,1.9-1.41-.36-2.26-1.8-1.9-3.21.36-1.41,1.8-2.26,3.21-1.9,1.41.36,2.26,1.8,1.9,3.21Z"/>
                  <path class="cls-45" d="M385.38,759.4c-.51,1.99-2.53,3.19-4.53,2.69-1.99-.51-3.19-2.53-2.69-4.53.51-1.99,2.53-3.19,4.53-2.69,1.99.51,3.19,2.53,2.69,4.53Z"/>
                  <path class="cls-45" d="M403.75,745.72c-.51,1.99-2.53,3.19-4.53,2.69-1.99-.51-3.19-2.53-2.69-4.53.51-1.99,2.53-3.19,4.53-2.69,1.99.51,3.19,2.53,2.69,4.53Z"/>
                  <path class="cls-45" d="M385.71,739.79c-.23.91-1.15,1.45-2.06,1.22-.91-.23-1.45-1.15-1.22-2.06.23-.91,1.15-1.45,2.06-1.22.91.23,1.45,1.15,1.22,2.06Z"/>
                  <path class="cls-45" d="M399.69,760.26c-.23.91-1.15,1.45-2.06,1.22-.91-.23-1.45-1.15-1.22-2.06.23-.91,1.15-1.45,2.06-1.22.91.23,1.45,1.15,1.22,2.06Z"/>
                  <path class="cls-45" d="M372.83,766.98c-.23.91-1.15,1.45-2.06,1.22-.91-.23-1.45-1.15-1.22-2.06.23-.91,1.15-1.45,2.06-1.22.91.23,1.45,1.15,1.22,2.06Z"/>
                  <path class="cls-45" d="M394.84,784.82c-.36,1.41-1.8,2.27-3.21,1.91s-2.27-1.8-1.91-3.21,1.8-2.27,3.21-1.91c1.41.36,2.27,1.8,1.91,3.21Z"/>
                  <path class="cls-45" d="M376.23,789.63c-.48,1.88-2.4,3.02-4.28,2.54-1.88-.48-3.02-2.4-2.54-4.28.48-1.88,2.4-3.02,4.28-2.54,1.88.48,3.02,2.4,2.54,4.28Z"/>
                  <path class="cls-45" d="M362.55,774.9c-.19.74-.94,1.19-1.68,1-.74-.19-1.19-.94-1-1.68.19-.74.94-1.19,1.68-1,.74.19,1.19.94,1,1.68Z"/>
                  <path class="cls-45" d="M383.24,804.2c-.19.74-.94,1.19-1.68,1-.74-.19-1.19-.94-1-1.68.19-.74.94-1.19,1.68-1,.74.19,1.19.94,1,1.68Z"/>
                  <path class="cls-45" d="M360.3,804.07c-.42,1.64-2.09,2.63-3.73,2.21s-2.63-2.09-2.21-3.73c.42-1.64,2.09-2.63,3.73-2.21s2.63,2.09,2.21,3.73Z"/>
                  <path class="cls-45" d="M369.61,822.86c-.25.97-1.23,1.55-2.2,1.31-.97-.25-1.55-1.23-1.31-2.2.25-.97,1.23-1.55,2.2-1.31.97.25,1.55,1.23,1.31,2.2Z"/>
                  <path class="cls-45" d="M387.63,820.75c-.37,1.46-1.86,2.35-3.33,1.97-1.46-.37-2.35-1.86-1.97-3.33.37-1.46,1.86-2.35,3.33-1.97,1.46.37,2.35,1.86,1.97,3.33Z"/>
                  <path class="cls-45" d="M393.54,794.97c-.28,1.11-1.42,1.79-2.53,1.5-1.11-.28-1.79-1.42-1.5-2.53.28-1.11,1.42-1.79,2.53-1.5s1.79,1.42,1.5,2.53Z"/>
                  <path class="cls-45" d="M389.54,770.03c-.28,1.11-1.42,1.79-2.53,1.5s-1.79-1.42-1.5-2.53c.28-1.11,1.42-1.79,2.53-1.5,1.11.28,1.79,1.42,1.5,2.53Z"/>
                  <path class="cls-45" d="M371.9,752.12c-.28,1.11-1.42,1.79-2.53,1.5-1.11-.28-1.79-1.42-1.5-2.53.28-1.11,1.42-1.79,2.53-1.5,1.11.28,1.79,1.42,1.5,2.53Z"/>
                </g>
              </g>
              <g>
                <path class="cls-20" d="M302.09,746.58c.12,0,.23,0,.35,0,.19,0,.39-.03.59-.05.4-.04.8-.08,1.24-.16-4.63-4.94-8.14-20.47-8.72-23.17h0c-.03-.13-.05-.22-.06-.29,0,0,0-.02,0-.03-.01-.05-.02-.09-.02-.09,0,0-5.29.54-7.25,1.92.68,9.99,9.83,20.71,10.57,21.25.09.06.2.12.32.18.04.02.09.04.13.05.09.04.18.07.28.1.06.02.13.04.2.05.1.03.2.05.31.07.08.02.17.03.25.05.11.02.23.03.35.05.1.01.2.02.3.03.13.01.26.02.39.02.11,0,.22.01.33.01.14,0,.29,0,.44,0Z"/>
                <g>
                  <rect class="cls-19" x="307.52" y="710.1" width="4.11" height="7.91" transform="translate(619.14 1428.12) rotate(180)"/>
                  <g>
                    <g>
                      <path class="cls-20" d="M301.42,707.79h5.29c.94,0,1.69.76,1.69,1.69v9.69c0,.94-.76,1.69-1.69,1.69h-5.29v-13.08h0Z"/>
                      <path class="cls-29" d="M260.06,758.88v-21.01s.18-6.33-5.78-6.14c-5.96.18-8.67-.9-7.05-4.52,1.27-2.83,11.71-12.72,17.24-17.94,2.06-1.94,4.78-3.02,7.61-3.02h30.09v15.72s-18.43,2.53-18.43,14.64v22.27h-23.67Z"/>
                      <path class="cls-13" d="M266.66,758.88v-21.01s.61-6.14-12.38-6.14c-5.97,0-8.67-.9-7.05-4.52,1.27-2.83,11.71-12.72,17.24-17.94,2.06-1.94,4.78-3.02,7.61-3.02h30.09v15.72s-18.43,2.53-18.43,14.64v22.27h-17.08Z"/>
                      <path class="cls-34" d="M302.17,707.79h-25.68c-2.8,0-5.47,1.2-7.33,3.29l-5.45,6.14c-1.43,1.61-1.52,4-.21,5.71h0c1.35,1.77,3.8,2.28,5.75,1.2l5.67-3.15c1.57-.87,3.33-1.33,5.12-1.33h22.14v-11.86Z"/>
                    </g>
                    <rect class="cls-20" x="252.29" y="754.57" width="40.23" height="14.06"/>
                    <path class="cls-13" d="M308.31,776.07l14.69,28.13c2.76,5.29,4.21,11.17,4.21,17.14v76.22c0,5.89-4.77,10.66-10.66,10.66h-67.27c-5.89,0-10.66-4.77-10.66-10.66v-116.5c0-6.86,5.56-12.43,12.43-12.43h44.99c5.16,0,9.89,2.87,12.28,7.44Z"/>
                  </g>
                </g>
              </g>
              <g>
                <g>
                  <path class="cls-20" d="M222.52,790.52l4.84,121.47c0,21,18.01,38.03,40.23,38.03h105.12c22.22,0,40.23-17.03,40.23-38.03l4.84-121.47h-195.26Z"/>
                  <rect class="cls-43" x="210.36" y="789.56" width="215.12" height="12.88" rx="3.55" ry="3.55"/>
                  <path class="cls-43" d="M415.33,826.82h-195.8c-3.05,0-5.52-2.47-5.52-5.52h0c0-3.05,2.47-5.52,5.52-5.52h195.8c3.05,0,5.52,2.47,5.52,5.52h0c0,3.05-2.47,5.52-5.52,5.52Z"/>
                </g>
                <path class="cls-21" d="M323.93,790.49c-1.35-.71-3.02-.19-3.73,1.16-.38.72-38.21,72.6-60.55,104.9-10.21,14.76-21.44,22.51-31.61,21.8-7.44-.51-12.47-5.42-14.71-9.85-4.64-9.18,4.02-29.11,11.95-43.59l-.43-10.34c-7.66,12.57-23.75,41.97-16.45,56.42,3.73,7.38,11.11,12.31,19.26,12.87.54.04,1.1.06,1.68.06,8.63,0,21.2-4.5,34.85-24.23,22.53-32.57,60.51-104.75,60.89-105.47.71-1.35.19-3.02-1.16-3.73Z"/>
              </g>
            </g>
            <g>
              <path class="cls-37" d="M179.95,842.57c-2.86,14.16-11.63,59.41-9.93,73.6.22,1.82,1.58,3.27,3.37,3.64l6.56,1.33c3.52.71,7.16-.37,9.72-2.88l1.28-1.26,61.48,2.27s30.5,17.16,66.6,11.06c1.05-.18,1.91-.95,2.47-1.86h0c1.38-2.27.29-5.23-2.23-6.06l-26.22-4.63,35.64.52c5.09-.19,9.41-3.77,10.57-8.73l1.3-5.59s9.11-9.43,4.88-19.51c0,0,2.63-4.11,3.15-9.36.5-5.09-3.6-9.46-8.71-9.31l-60.79,1.76,25.57-11.1c3.65-1.59,5.31-5.85,3.7-9.49h0c-1.36-3.06-4.62-4.78-7.9-4.14-9.54,1.85-32.36,5.69-53.41,15.39,0,0-31.4-11.66-61.97-18.94-2.33-.55-4.65.95-5.12,3.29Z"/>
              <path class="cls-40" d="M190.94,916.99l-1.28,1.26c-2.56,2.52-6.2,3.6-9.72,2.88l-6.56-1.33c-1.79-.36-3.15-1.82-3.37-3.64-.18-1.54-.24-3.45-.2-5.64l30.47-6.38c14.35-3.01,29.28-1.35,42.62,4.73l48.48,22.08c-22.76-2.58-38.96-11.69-38.96-11.69l-61.48-2.27Z"/>
              <g>
                <path class="cls-14" d="M285.1,885.08c9.89-1.02,20.21-1.22,30.16-1.35,9.95-.02,20.24.02,30.17.74-9.98,1.64-20.06,2.05-30.15,2.2-10.09,0-20.16-.25-30.18-1.58h0Z"/>
                <path class="cls-14" d="M286.79,901.9c17.85-.86,35.97-.95,53.75,1.05-8.79,1.29-18.03,1.41-26.91,1.34-8.97-.3-18.05-.46-26.84-2.4h0Z"/>
                <path class="cls-14" d="M197.45,851.3c.17,10.29-.56,20.52-1.47,30.75-1.02,10.1-2.22,20.55-4.3,30.48-.2-10.14.58-20.64,1.47-30.75,1.02-10.22,2.21-20.4,4.3-30.48h0Z"/>
              </g>
            </g>
          </g>
          <g>
            <polygon class="cls-33" points="1759.09 450.47 1806.08 431.6 1807.72 439.08 1760.12 455.49 1759.09 450.47"/>
            <polygon class="cls-11" points="1811 445.46 1762.86 463.7 1760.12 455.49 1807.72 436.71 1811 445.46"/>
            <path class="cls-33" d="M1763.04,459.51s5.29,18.24,5.84,18.05c.55-.18,48.17-18.42,48.17-18.42l-6.04-13.68-47.96,14.04Z"/>
            <polygon class="cls-11" points="1815.38 459.14 1821.95 474.93 1776.9 493.79 1768.87 477.56 1815.38 459.14"/>
            <polygon class="cls-33" points="1820.3 472.64 1828.32 487.77 1782.19 508.93 1776.25 491.95 1820.3 472.64"/>
            <polygon class="cls-11" points="1781.33 506.63 1828.32 487.77 1829.96 495.25 1782.36 511.66 1781.33 506.63"/>
            <polygon class="cls-33" points="1833.24 501.63 1785.1 519.86 1782.36 511.66 1829.96 492.87 1833.24 501.63"/>
            <path class="cls-11" d="M1785.28,515.67s5.29,18.24,5.84,18.05c.55-.18,48.17-18.42,48.17-18.42l-6.04-13.68-47.96,14.04Z"/>
            <polygon class="cls-33" points="1837.62 515.31 1844.19 531.1 1799.14 549.96 1791.12 533.72 1837.62 515.31"/>
            <polygon class="cls-11" points="1842.54 528.8 1849.06 546.67 1804.43 565.09 1798.5 548.11 1842.54 528.8"/>
            <polygon class="cls-33" points="1800.42 560.43 1847.42 541.56 1849.06 549.04 1801.46 565.45 1800.42 560.43"/>
            <polygon class="cls-11" points="1852.34 555.42 1804.19 573.66 1801.46 565.45 1849.06 546.67 1852.34 555.42"/>
            <path class="cls-33" d="M1804.38,569.47s5.29,18.24,5.84,18.05c.55-.18,48.17-18.42,48.17-18.42l-6.04-13.68-47.96,14.04Z"/>
            <polygon class="cls-11" points="1856.72 569.1 1863.29 584.89 1818.24 603.75 1810.21 587.52 1856.72 569.1"/>
            <polygon class="cls-33" points="1861.64 582.6 1869.66 597.73 1823.53 618.89 1817.59 601.91 1861.64 582.6"/>
            <polygon class="cls-11" points="1822.67 616.59 1869.66 597.73 1871.3 605.2 1823.7 621.62 1822.67 616.59"/>
            <polygon class="cls-33" points="1874.58 611.59 1826.44 629.82 1823.7 621.62 1871.3 602.83 1874.58 611.59"/>
            <path class="cls-11" d="M1826.62,625.63s5.29,18.24,5.84,18.05c.55-.18,46.5-18.42,46.5-18.42l-4.38-13.68-47.96,14.04Z"/>
            <polygon class="cls-33" points="1878.96 625.26 1885.53 641.06 1840.48 659.91 1832.46 643.68 1878.96 625.26"/>
            <polygon class="cls-11" points="1883.88 638.76 1892.82 655.44 1845.77 675.05 1839.84 658.07 1883.88 638.76"/>
            <path class="cls-1" d="M1515,579.34s-8.61.13-11.62-7.89c0,0-12.28-39.09-9.77-45.6,0,0,2.76-10.35,11.78-4.55l9.61,58.04Z"/>
            <path class="cls-22" d="M1459.94,789.04l-10.19,25.82-24.83-25.82-67.84,30.64,56.37,81.37c10.04,14.5,27.44,22.05,44.89,19.49l11.99-1.76c16.42-2.41,30.3-13.41,36.41-28.85l28.43-71.89-75.23-29Z"/>
            <path class="cls-1" d="M1515.99,810.65l-57.79-15.68-5.46,12.35h0l40.47,28.66s11.32,53.67-39.92,85c1.68-.06,3.37-.19,5.06-.43l11.99-1.76c16.42-2.41,30.3-13.41,36.41-28.85l28.43-71.89-19.18-7.39Z"/>
            <path class="cls-37" d="M1373.14,860.44c14.86-4.84,48.15-19.49,71.03-42.6,3.76-3.79,4.35-9.69,1.28-14.06l-3.42-4.88c-1.58-2.26-4.1-3.68-6.86-3.86h0l-42.52-51.13,7.39-25.04s.76-58.96-31.95-63.96c0,0-5.34-11.35-22.36-6.68l-14.02,11.97s-12.02-2.29-15.02,8.72c0,0-10.01-3.34-15.69,11.68,0,0-14.35,1.67-14.02,22.36l10.75,36.84,32.15,24.07,31.31,69.03s-3.18,2.71-3.28,7.84c-.1,4.92,2.44,10.36,4.18,13.41,2.12,3.71,6.88,7.64,11.04,6.29Z"/>
            <path class="cls-40" d="M1294.17,716.44l15.5,28.06s13.78,16.41,37.27,0c0,0,40.97-25.73,42.28-28.06,1.31-2.33-17.92-36.42-17.92-36.42l-77.13,36.42Z"/>
            <path class="cls-22" d="M1832.46,791.78l27.6,122.85c1.88,8.36-2.44,16.82-10.27,20.29-14.73,6.52-41.08,13.93-75.45,6l-8.87-68.38,11.43-3.98-14.59-52.7,70.15-24.07Z"/>
            <polygon class="cls-1" points="1776.9 868.56 1773.22 869.84 1776.25 880.62 1804.98 867.46 1776.25 815.85 1770.12 813.17 1762.31 815.85 1776.9 868.56"/>
            <polygon class="cls-1" points="1759.88 809.03 1765.55 827.55 1836.64 810.39 1833.48 796.34 1759.88 809.03"/>
            <path class="cls-23" d="M1446.13,801.08s57.38,27.36,84.56,25.71l12.41,56.35-11.27,120.91,247.07-27.9-20.79-160.3s36.95-.6,72.9-9.47c7.49-1.85,9.88-9.11,6.93-16.23l-35.93-80.54c-5.4-13.03-15.43-23.61-28.16-29.7l-131.18-57.22-80.56,27.51-61,34.1c-11.01,6.16-20.03,15.38-25.81,26.6-10.56,20.51-24.1,59.91-29.18,90.18Z"/>
            <path class="cls-19" d="M1566.35,637.77s-9.44,4.52-16.94,14.02c-1.89,2.39-10.6,27.95-15.89,56.29-7.3,39.13-11.34,83.96-11.34,83.96l20.91,91.11-20.98,204.66h261.52l-22.62-268.39-33.01-77.42s-10.99-32.92-15.41-44.11c-6.9-17.5-37.39-65.31-37.39-65.31l-24.68-11.28s39.36,59.53,46.22,82.05c4.11,13.47,4.45,56.16,4.45,56.16,0,0-82.07,23.53-157.02,13.68l3.83-61.28,4.27-32.93,14.05-41.21Z"/>
            <rect class="cls-20" x="1226.08" y="651.11" width="534.48" height="19.79" transform="translate(-119.84 406.72) rotate(-14.92)"/>
            <path class="cls-22" d="M1493.86,479.74l24.88,117.22c.76,3.6,2.72,6.82,5.54,9.18,11.21,9.36,24.06,20.58,34.23,28.24l-3.6,38.71c-1.27,3.74.13,7.89,3.47,9.99,5.87,3.67,16.75,7.91,33.7,5.14,0,0,44.29,3.66,52.81-48.46l.66-39.19s6.04-20.02,6.99-26.9c3.58-25.87,2.18-104.45,2.18-104.45,0,0-22.55-59.13-96.22-56.63,0,0-79.18,16.54-64.65,67.15Z"/>
            <path class="cls-26" d="M1530.46,443.47s57.95,2.3,74.86,10.3c0,0,19.15-5.84,33.88,44.12l-5.71-64.73-12.72-12.86s-71.9-.18-90.32,23.16Z"/>
            <path class="cls-1" d="M1616.41,620.09s-21.74,24.5-57.9,14.29l-1.84,21.51s43.67-.12,59.74-35.8Z"/>
            <path class="cls-20" d="M1506.55,544.55h-2.51l-11.03-24.05s-13.53-23.22-5.68-40.43c0,0-19.71-3.01-26.73-22.22,0,0-2.77-11.61-7.93-21.81,0,0-1.81-2.86-3.55-6.08-1.04-1.92,1.86-8.51,3.29-10.17,13.38-15.44,53.2-29.26,81.2-30.77,24.82-1.34,76.52,1.86,94.56,34.94l-19.89,20.36s-7.57,11.72-23.05,3.51c-15.16-8.04-47.72-12.75-68.49,4.68-7.07,5.93-21.51,16.47-22.45,29.28l12.26,62.76Z"/>
            <path class="cls-20" d="M1672.68,500.32l-25.67,44.23-9.58-2.76,1.77-43.89s-4.79-41.3-28.92-45.27l16.54-29.01s31.89,6.86,41.37,44.23l4.48,32.49Z"/>
            <g>
              <path class="cls-23" d="M1560.54,597.62s7.63,4.51,18.04,2.35c2.34-.49,11.12-6.11,14.03-8.56,3.17-2.67,6.92-6.85,6.87-15.07l-38.94,21.27Z"/>
              <path class="cls-20" d="M1556.66,598.25c7.24-4.91,14.87-9.09,22.59-13.16,7.68-3.91,15.7-7.85,23.77-10.88-7.12,4.85-14.97,9.14-22.59,13.16-7.77,3.97-15.59,7.79-23.77,10.88h0Z"/>
              <path class="cls-20" d="M1575.26,607.74c8.14-.44,15.47-1.86,22.56-5.81-4.76,6.97-15,9.11-22.56,5.81h0Z"/>
            </g>
            <g>
              <path class="cls-20" d="M1605.8,523.74c0,6.57.68,11.13-3.31,11.13s-8.56-4.34-9.2-11.23c-.61-6.53.18-9.06,5.98-9.06,6.26,0,6.54,2.59,6.54,9.15Z"/>
              <path class="cls-20" d="M1580.99,519.15c8.3-6.3,20.53-7.44,29.87-2.82-10.17-.5-19.98.38-29.87,2.82h0Z"/>
            </g>
            <g>
              <path class="cls-20" d="M1542.86,530.84c0,6.41.66,10.88-3.24,10.88s-8.36-4.24-8.99-10.97c-.6-6.38.18-8.85,5.84-8.85,6.12,0,6.38,2.53,6.38,8.94Z"/>
              <path class="cls-20" d="M1519.65,529.52c6.09-8.08,18.79-11.53,27.52-5.8-9.74-1.47-18.94,1.26-27.52,5.8h0Z"/>
            </g>
            <path class="cls-20" d="M1549.72,523.47c-.14,12.21-.83,24.48-3.58,36.42-1.28,5.24-5.73,14.23-.02,17.97,4.33,1.98,9.53,2.48,13.97.6l.17-.07h.09s3.88-.36,3.88-.36c4.35-.48,4.92-5.02,3.93-8.58,1.8,3.99,1.24,8.89-3.76,9.96,0,0-3.83.66-3.83.66l.26-.08c-4.9,2.54-10.87,2.24-15.85.09-7.6-4.45-3.3-14.39-1.37-20.85,2.94-11.72,4.21-23.81,6.11-35.75h0Z"/>
            <path class="cls-7" d="M1513.56,756.76c4.05,11.17,7.22,23.1,10.12,34.63,2.76,11.57,5.46,23.61,7.02,35.39-4.06-11.17-7.22-23.1-10.12-34.63-2.75-11.57-5.45-23.61-7.02-35.39h0Z"/>
            <path class="cls-37" d="M1342.32,660.66s12.95,10.76,16.05,23.16l7.85,30.81c.96,3.75,5.33,5.44,8.56,3.3l5.89-3.9c3.13-2.07,4.72-5.81,4-9.5-1.29-6.53-4.48-18.61-12.37-38.29"/>
            <path class="cls-14" d="M1342.32,660.66c7.43,5.82,14.26,13.39,17.12,22.6,2.53,8.85,5.09,18.39,7.41,27.33.29,1.04.7,2.84,1.01,3.83.84,2.81,4.4,3.66,6.59,1.79,0,0,.85-.55.85-.55l3.38-2.21c7.11-4.02,4.24-9.91,2.91-16.31-2.58-10.39-5.94-20.63-9.3-30.89,4.63,9.76,8.69,19.8,11.78,30.22,1.88,6.59,4.48,13.26-1.88,18.42-1.24.9-3.86,2.6-5.12,3.46l-.84.56c-4.4,3.46-10.87.94-11.77-4.58-2.15-8.62-4.44-17.9-6.41-26.53-1.6-10.59-8.2-19.48-15.74-27.13h0Z"/>
            <path class="cls-37" d="M1326.09,672.69s18.42,18.05,20.61,38.48l1.93,13.37c.64,4.41,5.62,6.69,9.37,4.28l6.99-4.48c1.98-1.27,3.06-3.54,2.78-5.88-1.37-11.12-6.48-43.63-20.62-58.91"/>
            <path class="cls-14" d="M1326.09,672.69c9.6,9.06,17.69,20.36,21.05,33.33,1.04,4.29,1.94,11.72,2.71,16.13,0,0,.36,2.26.36,2.26.58,3.49,4.74,4.89,7.45,2.69,1.4-.9,3.47-2.25,4.88-3.14.32-.21,1.16-.74,1.47-.93,1.1-.67,1.91-1.82,2.12-3.09.11-.59.05-1.25-.04-1.85-1.04-8.33-2.52-16.77-4.5-24.92-3.02-11.85-6.78-23.85-14.46-33.61,4.44,4.36,7.73,9.8,10.45,15.4,6.37,13.62,9.76,28.46,11.77,43.3.45,3.15-1.31,6.31-4.06,7.82,0,0-.97.63-.97.63-.97.62-2.93,1.89-3.91,2.5-.31.19-1.16.74-1.47.93-3.53,2.39-8.73,1.19-10.86-2.51-.94-1.52-1.09-3.36-1.31-5.07l-1.21-9.22c-.24-1.54-.63-5.28-1.01-6.75-2.82-12.75-10.09-24.04-18.46-33.92h0Z"/>
            <path class="cls-37" d="M1309.67,683.27s21.87,24.87,24.73,50.07c.49,4.32,5.33,6.65,9.08,4.45l3.6-2.12c1.84-1.08,2.99-3.04,2.99-5.18.02-9.91-1.93-38.7-24-56.15"/>
            <path class="cls-14" d="M1309.67,683.27c8.15,8.68,15,18.62,20.09,29.43,2.86,6.1,5.02,12.67,6.05,19.4l.18,1.11c.3,2.82,3.58,4.59,6.13,3.44.49-.22,2.18-1.25,2.7-1.56,0,0,.96-.56.96-.56,1.51-.73,2.66-2.22,2.68-3.94-.03-14.84-3.29-29.99-11.12-42.74-3.05-4.99-6.87-9.51-11.26-13.51,4.85,3.43,9.09,7.75,12.61,12.61,8.97,12.63,12.91,28.36,13,43.72-.03,2.81-1.77,5.41-4.24,6.69-.61.36-2.24,1.32-2.87,1.68-5.31,3.22-11.62-.37-11.9-6.53-.82-6.46-2.77-12.71-5.26-18.79-4.55-10.84-10.72-21-17.74-30.46h0Z"/>
            <path class="cls-37" d="M1294.17,699.5s15.61,32.68,26.04,44.8c2.61,3.04,7.08,3.63,10.4,1.39h0c2.46-1.66,3.79-4.53,3.43-7.47-1.21-9.95-5.72-33.28-22.25-52.38"/>
            <path class="cls-14" d="M1294.17,699.5c8.07,13.99,15.63,28.39,25.24,41.32,0,0,1.25,1.52,1.25,1.52,2.24,3.44,6.98,4.19,9.94,1.24,1.64-1.55,2.17-3.92,1.72-6.08-.34-2.64-.78-5.26-1.31-7.88-3.15-15.78-9.45-30.81-19.22-43.78,13.74,14.25,21.84,33.86,23.93,53.49-.04,8.19-10.21,12.4-16.05,6.7-.92-.88-1.93-2.34-2.74-3.33-9.43-13.38-16.44-28.19-22.76-43.2h0Z"/>
            <path class="cls-32" d="M1764.17,451.96l82.41,223.09c.57,1.65-.26,3.46-1.88,4.09l-7.31,2.87s-53.92-27.56-77.27-100.87c0,0-31-81.39-7.66-125.47l6.63-5.21c1.76-1.38,4.35-.62,5.08,1.49Z"/>
            <path class="cls-1" d="M1449.76,814.86c11.38,6.19,23.59,17.74,27.69,30.26-8.34-10.71-18.65-20.17-27.69-30.26h0Z"/>
            <path class="cls-14" d="M1363.58,842.39c16.17-9.91,35.05-19.82,51.87-28.79,5.78-3.14,11.67-6.13,17.15-9.78-9.54,9.23-21.53,15.51-33.01,21.97-11.7,6.17-23.55,12.06-36,16.6h0Z"/>
            <path class="cls-19" d="M1736.99,582.93c-1.22.32-1.55,1.8-.67,2.7,2.02,2.08,3.89,5.59,4.99,9.81,1.2,4.61,1.21,8.95.24,11.78-.4,1.18.69,2.32,1.9,2l26.46-6.9c5.36-1.4,8.57-6.88,7.17-12.24l-1.77-6.79c-1.4-5.36-6.88-8.57-12.24-7.17l-26.08,6.8Z"/>
            <path class="cls-7" d="M1555.41,704.72c15.43,9.69,35.32,8.77,51.78,2.28,27.1-10.35,44.47-24.87,55.74-52.09-8.89,30.46-29.35,46.6-58.71,56.34-16.01,5.04-35.29,4.31-48.81-6.52h0Z"/>
            <path class="cls-22" d="M1646.71,523.5s0-24.89,20.88-22.22c7,.9,11.92,10.22,7.31,27.73-1.94,7.35-7.93,29.35-7.93,29.35-.93,4.03-3.47,7.66-7.23,9.38-3.51,1.61-7.85,1.61-11.19-4.82"/>
            <path class="cls-20" d="M1657.73,546.72c-2.4-4.92-4.18-13.52.32-17.79,1.24-1.01,3.06-1.53,4.49-.81,2.94,1.4,1.65,5.01-.13,6.74.15-1.34.91-3.52-.26-4.43-.21-.14-.71-.22-.92-.18h.14c-1.19.28-1.86,1.06-2.36,2.35-1.44,4.41-.91,9.44-1.27,14.12h0Z"/>
            <path class="cls-10" d="M1259.28,709.13l-51.46,13.52c-6.76,1.78-10.81,8.7-9.03,15.47,1.78,6.76,8.7,10.81,15.47,9.03l51.46-13.52c1.15-.3,1.84-1.48,1.53-2.63l-5.34-20.34c-.3-1.15-1.48-1.84-2.63-1.53ZM1219.55,740.34c-3.97,1.04-8.03-1.33-9.07-5.3-1.04-3.97,1.33-8.03,5.3-9.07,3.97-1.04,8.03,1.33,9.07,5.3,1.04,3.97-1.33,8.03-5.3,9.07Z"/>
            <path class="cls-20" d="M1570.95,499.07c-1.62.63-2.48,2.42-1.99,4.09.57,1.96,1.47,4.53,2.67,6.52,1.19,1.98,3.73,2.82,5.95,1.94,5.12-2.04,17.79-5.68,35.38-1.15,1.58.41,3.16-.61,3.25-2.15v-.03c.07-1.23-.39-2.43-1.3-3.32-4.66-4.59-17.44-16.15-43.96-5.89Z"/>
            <path class="cls-20" d="M1509.99,524.47s12.13-16.58,33.49-9.66c1.81.59,3.71-.75,3.7-2.66-.02-2.14-.36-4.99-1.58-8.1-.44-1.12-1.43-1.92-2.63-2.04-5.38-.55-21.37-.76-31.96,13.94-1.48,2.06-2.13,4.62-1.89,7.14l.86,1.38Z"/>
            <g>
              <path class="cls-26" d="M1471.39,459.1c4.54-11.41,14.78-19.53,25.09-25.59,5.91-3.29,12.15-5.84,18.57-7.89,2.6-.7,5.19-1.4,7.8-2.01-2.48,1.03-4.98,1.97-7.47,2.93-4.21,1.78-8.63,3.77-12.7,5.79-1.09.62-4.09,2.24-5.23,2.86-10.11,6.1-20.06,13.51-26.05,23.91h0Z"/>
              <path class="cls-26" d="M1517.61,397.69c31.3-7.61,66.31-1.64,92.68,17.04-27.74-16.2-61.03-21.87-92.68-17.04h0Z"/>
            </g>
            <g>
              <g>
                <polygon class="cls-13" points="1595.3 858.72 1611.93 794.83 1637.62 797.64 1652.57 856.24 1595.3 858.72"/>
                <path class="cls-43" d="M1634.09,793.83l-19.62-.55c-1.31-.04-2.32-1.17-2.22-2.47l1.78-21.77c.18-2.24,2.09-3.94,4.33-3.88l12.77.36c2.2.06,3.98,1.8,4.1,3.99l1.21,21.91c.07,1.34-1.01,2.45-2.35,2.41Z"/>
                <path class="cls-20" d="M1609.11,787.68h30.5c3.03,0,5.5,2.46,5.5,5.5v4.07c0,2.7-2.19,4.88-4.88,4.88h-31.73c-2.7,0-4.88-2.19-4.88-4.88v-4.07c0-3.03,2.46-5.5,5.5-5.5Z" transform="translate(23.03 -45.44) rotate(1.61)"/>
              </g>
              <g>
                <path class="cls-20" d="M1668.83,789.52c-.12,0-.23,0-.35,0-.19,0-.39-.03-.59-.05-.4-.04-.8-.08-1.24-.16,4.63-4.94,8.14-20.47,8.72-23.17h0c.03-.13.05-.22.06-.29,0,0,0-.02,0-.03.01-.05.02-.09.02-.09,0,0,5.29.54,7.25,1.92-.68,9.99-9.83,20.71-10.57,21.25-.09.06-.2.12-.32.18-.04.02-.09.04-.13.05-.09.04-.18.07-.28.1-.06.02-.13.04-.2.05-.1.03-.2.05-.31.07-.08.02-.17.03-.25.05-.11.02-.23.03-.35.05-.1.01-.2.02-.3.03-.13.01-.26.02-.39.02-.11,0-.22.01-.33.01-.14,0-.29,0-.44,0Z"/>
                <g>
                  <rect class="cls-19" x="1659.29" y="753.05" width="4.11" height="7.91"/>
                  <g>
                    <g>
                      <path class="cls-20" d="M1662.51,750.74h5.29c.94,0,1.69.76,1.69,1.69v9.69c0,.94-.76,1.69-1.69,1.69h-5.29v-13.08h0Z" transform="translate(3332.01 1514.55) rotate(180)"/>
                      <path class="cls-29" d="M1710.85,801.82v-21.01s-.18-6.32,5.78-6.14c5.96.18,8.67-.9,7.05-4.52-1.27-2.83-11.71-12.72-17.24-17.94-2.06-1.94-4.78-3.02-7.61-3.02h-30.09v15.72s18.43,2.53,18.43,14.64v22.27h23.67Z"/>
                      <path class="cls-13" d="M1704.26,801.82v-21.01s-.61-6.14,12.38-6.14c5.97,0,8.67-.9,7.05-4.52-1.27-2.83-11.71-12.72-17.24-17.94-2.06-1.94-4.78-3.02-7.61-3.02h-30.09v15.72s18.43,2.53,18.43,14.64v22.27h17.08Z"/>
                      <path class="cls-34" d="M1668.75,750.74h25.68c2.8,0,5.47,1.2,7.33,3.29l5.45,6.14c1.43,1.61,1.52,4,.21,5.71h0c-1.35,1.77-3.8,2.28-5.75,1.2l-5.67-3.15c-1.57-.87-3.33-1.33-5.12-1.33h-22.14v-11.86Z"/>
                    </g>
                    <rect class="cls-20" x="1678.4" y="797.51" width="40.23" height="14.06" transform="translate(3397.03 1609.08) rotate(180)"/>
                    <path class="cls-13" d="M1662.61,819.01l-14.69,28.12c-2.76,5.29-4.21,11.17-4.21,17.14v76.22c0,5.89,4.77,10.66,10.66,10.66h67.27c5.89,0,10.66-4.77,10.66-10.66v-116.5c0-6.86-5.56-12.43-12.43-12.43h-44.99c-5.16,0-9.89,2.87-12.28,7.44Z"/>
                  </g>
                </g>
              </g>
              <g>
                <g>
                  <path class="cls-20" d="M1731.48,835.03l-4.84,121.47c0,21-18.01,38.03-40.23,38.03h-105.12c-22.22,0-40.23-17.03-40.23-38.03l-4.84-121.47h195.26Z"/>
                  <rect class="cls-43" x="1528.52" y="834.06" width="215.12" height="12.88" rx="3.55" ry="3.55"/>
                  <path class="cls-43" d="M1538.66,871.33h195.8c3.05,0,5.52-2.47,5.52-5.52h0c0-3.05-2.47-5.52-5.52-5.52h-195.8c-3.05,0-5.52,2.47-5.52,5.52h0c0,3.05,2.47,5.52,5.52,5.52Z"/>
                </g>
                <path class="cls-21" d="M1630.06,835c1.35-.71,3.02-.19,3.73,1.16.38.72,38.21,72.6,60.55,104.9,10.21,14.76,21.44,22.51,31.61,21.8,7.44-.51,12.47-5.42,14.71-9.85,4.64-9.18-4.02-29.11-11.95-43.59l.43-10.34c7.66,12.57,23.75,41.97,16.45,56.42-3.73,7.38-11.11,12.31-19.26,12.87-.54.04-1.1.06-1.68.06-8.63,0-21.2-4.5-34.85-24.23-22.53-32.57-60.51-104.75-60.89-105.47-.71-1.35-.19-3.02,1.16-3.73Z"/>
              </g>
              <g>
                <polygon class="cls-10" points="1553.6 792.83 1539.72 833.97 1606.59 833.97 1578.01 792.83 1553.6 792.83"/>
                <rect class="cls-20" x="1551.91" y="780.13" width="27.65" height="13.9" rx="2.25" ry="2.25"/>
                <path class="cls-20" d="M1599.56,756.6h5.84c.88,0,1.6.72,1.6,1.6v9.14c0,.88-.72,1.6-1.6,1.6h-5.84v-12.35h0Z"/>
                <path class="cls-20" d="M1591.15,770.61s4.69,5.52,6.11,11.04c.29,1.12,1.57,1.23,1.89.14,1.11-3.79,1.96-9.56-.75-14.77,0,0-7.14-1.97-7.25,3.6Z"/>
                <path class="cls-37" d="M1544.1,782.96c5.4-.06,29.46-.03,35.56-.03.89,0,1.72-.42,2.25-1.14l8.82-12.02,7.97.22c1.74.05,3.19-1.31,3.26-3.04l.57-7.97c.12-2.86-2.32-6.2-5.19-6.28h-31.34c-1.04-.02-2.06.34-2.86,1.01l-20.36,17.06c-1.71,1.43-2.39,3.74-1.73,5.87l1.63,5.29c.19.62.75,1.05,1.41,1.04Z"/>
                <g>
                  <path class="cls-19" d="M1556.33,792.81c-.35,0-.63-.28-.63-.63v-8.56c0-.35.28-.63.63-.63s.63.28.63.63v8.56c0,.35-.28.63-.63.63Z"/>
                  <path class="cls-19" d="M1560.82,792.81c-.35,0-.63-.28-.63-.63v-8.56c0-.35.28-.63.63-.63s.63.28.63.63v8.56c0,.35-.28.63-.63.63Z"/>
                  <path class="cls-19" d="M1565.31,792.81c-.35,0-.63-.28-.63-.63v-8.56c0-.35.28-.63.63-.63s.63.28.63.63v8.56c0,.35-.28.63-.63.63Z"/>
                  <path class="cls-19" d="M1569.8,792.81c-.35,0-.63-.28-.63-.63v-8.56c0-.35.28-.63.63-.63s.63.28.63.63v8.56c0,.35-.28.63-.63.63Z"/>
                  <path class="cls-19" d="M1574.3,792.81c-.35,0-.63-.28-.63-.63v-8.56c0-.35.28-.63.63-.63s.63.28.63.63v8.56c0,.35-.28.63-.63.63Z"/>
                </g>
                <path class="cls-14" d="M1549.95,773.97c10.12-.67,20.24-.61,30.36-.25l-.35.16c1.91-2.06,3.85-4.09,5.84-6.06-1.7,2.31-3.47,4.57-5.28,6.81,0,0-.23,0-.23,0-10.13.23-20.25.14-30.35-.67h0Z"/>
              </g>
              <g>
                <path class="cls-23" d="M1547.76,816.02l-4.16,56.55c-.61,8.35,4.91,15.91,13.05,17.85l40.07,9.59c4.79,1.15,9.39-2.48,9.39-7.41v-57.5l20.51-1.29-17.16-18.57c-2.54-2.72-6.04-4.34-9.76-4.49l-43.92-1.87c-4.16-.18-7.71,2.98-8.01,7.13Z"/>
                <g>
                  <path class="cls-7" d="M1563.96,809.24c-5.33,26.92-6.09,54.54-4.44,81.88-.29-1.7-.55-3.39-.8-5.1-3.55-25.25-2.36-52.35,5.24-76.78h0Z"/>
                  <path class="cls-7" d="M1585.55,810.31c-4.18,28.48-4.95,57.31-3.12,86.03-.3-1.78-.58-3.56-.83-5.35-1.87-12.48-2.34-25.23-1.92-37.83.57-14.42,2.19-28.88,5.87-42.85h0Z"/>
                </g>
              </g>
              <polygon class="cls-7" points="1605.57 825.86 1606.1 835.1 1626.61 833.82 1605.57 825.86"/>
            </g>
            <path class="cls-37" d="M1781.93,873.35c3.21,15.88,13.05,66.63,11.14,82.54-.24,2.04-1.77,3.67-3.78,4.08l-7.36,1.5c-3.94.8-8.03-.41-10.9-3.23l-1.43-1.41-68.95,2.54s-34.21,19.25-74.69,12.41c-1.18-.2-2.14-1.06-2.77-2.08h0c-1.55-2.54-.33-5.87,2.5-6.79l29.41-5.2-39.98.58c-5.7-.22-10.56-4.23-11.85-9.79l-1.46-6.27s-10.21-10.58-5.47-21.88c0,0-2.95-4.6-3.53-10.5-.56-5.7,4.04-10.61,9.77-10.44l68.17,1.97-28.67-12.45c-4.1-1.78-5.96-6.56-4.15-10.64h0c1.52-3.43,5.18-5.36,8.86-4.65,10.7,2.08,36.29,6.38,59.9,17.26,0,0,35.22-13.08,69.5-21.24,2.61-.62,5.21,1.06,5.74,3.69Z"/>
            <path class="cls-40" d="M1769.6,956.82l1.43,1.41c2.87,2.82,6.95,4.04,10.9,3.23l7.36-1.5c2.01-.41,3.54-2.04,3.78-4.08.21-1.72.27-3.87.22-6.32l-34.18-7.16c-16.09-3.37-32.83-1.51-47.79,5.3l-54.37,24.77c25.52-2.9,43.7-13.11,43.7-13.11l68.95-2.54Z"/>
            <g>
              <path class="cls-14" d="M1664.01,921.03c-11.24,1.49-22.54,1.78-33.85,1.78-11.31-.16-22.62-.62-33.81-2.46,11.12-.82,22.68-.86,33.84-.83,11.16.15,22.72.38,33.82,1.52h0Z"/>
              <path class="cls-14" d="M1662.11,939.89c-9.86,2.15-20.05,2.37-30.1,2.69-10.08.11-20.17-.08-30.18-1.5,20.03-2.26,40.19-2.15,60.28-1.18h0Z"/>
              <path class="cls-14" d="M1762.31,883.15c2.33,11.13,3.68,22.86,4.83,34.18.99,11.34,1.87,23.1,1.65,34.48-2.34-11.13-3.69-22.86-4.83-34.18-.99-11.34-1.86-23.11-1.65-34.48h0Z"/>
            </g>
          </g>
        </g>
      </g>
      <g class="cls-51">
        <g>
          <g>
            <rect class="cls-23" x="378.96" y="1129.08" width="480.41" height="17.32" transform="translate(-552.34 1690.38) rotate(-86.7)"/>
            <path class="cls-37" d="M623.35,890.69l-4.39,76.06,20.06,1.16,4.39-76.06c.32-5.54-3.91-10.29-9.45-10.61-5.54-.32-10.29,3.91-10.61,9.45ZM628.22,891.11c.16-2.85,2.6-5.02,5.45-4.86,2.85.16,5.02,2.6,4.86,5.45-.16,2.85-2.6,5.02-5.45,4.86-2.85-.16-5.02-2.6-4.86-5.45Z"/>
          </g>
          <g>
            <g>
              <polygon class="cls-11" points="1144.31 931.48 1320.68 963.03 1338.66 897.81 1150.05 864.07 1144.31 931.48"/>
              <g class="cls-49">
                <g>
                  <path class="cls-33" d="M1300.26,963.75c-.08,0-.16,0-.24-.03-.52-.13-.84-.67-.71-1.19l18.4-72.44c.13-.52.67-.84,1.19-.71.52.13.84.67.71,1.19l-18.4,72.44c-.11.44-.51.74-.95.74Z"/>
                  <path class="cls-33" d="M1280.73,960.25c-.07,0-.15,0-.22-.03-.53-.12-.85-.65-.73-1.17l16.89-72.71c.12-.53.64-.86,1.17-.73.53.12.85.65.73,1.17l-16.89,72.71c-.11.45-.51.76-.95.76Z"/>
                  <path class="cls-33" d="M1261.2,956.76c-.07,0-.13,0-.2-.02-.53-.11-.87-.63-.75-1.16l15.39-72.98c.11-.53.62-.87,1.16-.75.53.11.87.63.75,1.16l-15.39,72.98c-.1.46-.5.78-.96.78Z"/>
                  <path class="cls-33" d="M1241.67,953.27c-.06,0-.12,0-.18-.02-.53-.1-.88-.61-.78-1.14l13.88-73.25c.1-.53.61-.88,1.14-.78.53.1.88.61.78,1.14l-13.88,73.25c-.09.47-.5.8-.96.8Z"/>
                  <path class="cls-33" d="M1222.14,949.77c-.05,0-.11,0-.16-.01-.53-.09-.89-.59-.8-1.13l12.37-73.52c.09-.53.59-.89,1.13-.8.53.09.89.59.8,1.13l-12.37,73.52c-.08.48-.5.82-.96.82Z"/>
                  <path class="cls-33" d="M1202.61,946.28s-.1,0-.14-.01c-.53-.08-.9-.58-.83-1.11l10.87-73.79c.08-.53.57-.9,1.11-.83.53.08.9.58.83,1.11l-10.87,73.79c-.07.49-.49.84-.97.84Z"/>
                  <path class="cls-33" d="M1183.09,942.78s-.08,0-.12,0c-.54-.07-.92-.56-.85-1.09l9.36-74.06c.07-.54.55-.91,1.09-.85.54.07.92.56.85,1.09l-9.36,74.06c-.06.49-.48.86-.97.86Z"/>
                  <path class="cls-33" d="M1163.56,939.29s-.07,0-.1,0c-.54-.06-.93-.54-.87-1.08l7.86-74.33c.06-.54.55-.93,1.08-.87.54.06.93.54.87,1.08l-7.86,74.33c-.05.5-.48.88-.97.88Z"/>
                </g>
              </g>
            </g>
            <rect class="cls-23" x="1161.83" y="949.85" width="12.99" height="712.24" transform="translate(2088.41 2797.28) rotate(-169.86)"/>
            <rect class="cls-4" x="1219.48" y="938.88" width="24.49" height="25.27" transform="translate(2276.66 2105.07) rotate(-169.86)"/>
            <path class="cls-32" d="M1234.5,936.03c29.59,5.29,58.61,14.4,86.26,27.07,2.72,1.25,3.93,4.62,2.69,7.54s-4.44,4.29-7.16,3.02c-53.74-24.62-112.6-35.15-171.54-30.69-2.99.25-5.53-2.16-5.67-5.32-.15-3.16,2.15-5.91,5.14-6.14,30.33-2.3,60.7-.78,90.29,4.52Z"/>
            <path class="cls-24" d="M1232.46,947.44c2.48.44,4.96.91,7.42,1.41,1,.2,1.65,1.18,1.45,2.18-.2,1-1.18,1.58-2.18,1.45-4.86-.98-9.81-1.86-14.7-2.63-1.08-.24-1.7-1.1-1.54-2.11s1.1-1.7,2.11-1.54c2.47.39,4.96.81,7.44,1.25Z"/>
            <path class="cls-33" d="M1156.27,868.83l174.92,31.29c.98.17,1.91-.48,2.08-1.45h0c.17-.98-.48-1.91-1.45-2.08l-174.92-31.29c-.98-.17-1.91.48-2.08,1.45h0c-.17.98.48,1.91,1.45,2.08Z"/>
          </g>
          <g>
            <path class="cls-15" d="M1098.56,965.23l-177.68-6.63c-3.81-.14-7.01,2.83-7.15,6.64h0c-.14,3.81,2.83,7.01,6.64,7.15l177.68,6.63c3.81.14,7.01-2.83,7.15-6.64h0c.14-3.81-2.83-7.01-6.64-7.15Z"/>
            <path class="cls-37" d="M1097.26,979l-176.12-6.57,12.5,145.36c.25,2.92,2.64,5.2,5.57,5.31l128.79,4.81c2.93.11,5.48-1.98,5.95-4.88l23.3-144.02Z"/>
            <path class="cls-4" d="M909.43,972.81h9.68v11.39h-9.68c-1.04,0-1.88-.84-1.88-1.88v-7.63c0-1.04.84-1.88,1.88-1.88Z" transform="translate(37.14 -33.39) rotate(2.14)"/>
            <path class="cls-4" d="M1100.81,979.96h9.68v11.39h-9.68c-1.04,0-1.88-.84-1.88-1.88v-7.63c0-1.04.84-1.88,1.88-1.88Z" transform="translate(2171.88 2011.82) rotate(-177.86)"/>
            <path class="cls-15" d="M919.58,986.21c-1.2-.05-2.2-.99-2.3-2.21l-1.63-19.42c-.11-1.33.88-2.5,2.21-2.61,1.33-.11,2.5.88,2.61,2.21l1.63,19.43c.11,1.33-.88,2.5-2.21,2.61-.1,0-.21.01-.31,0Z"/>
            <path class="cls-15" d="M1097.79,992.87c1.2.04,2.26-.82,2.46-2.03l3.08-19.25c.21-1.32-.69-2.56-2.01-2.77-1.32-.21-2.56.69-2.77,2l-3.08,19.25c-.21,1.32.69,2.56,2.01,2.77.1.02.21.03.31.03Z"/>
            <path class="cls-38" d="M1092.06,981.74l-164.54-6.14c-.81-.03-1.44-.71-1.41-1.52h0c.03-.81.71-1.44,1.52-1.41l164.54,6.14c.81.03,1.44.71,1.41,1.52h0c-.03.81-.71,1.44-1.52,1.41Z"/>
            <path class="cls-4" d="M1107.39,986.77c-.09,0-.18-.01-.27-.03-1.4-.2-2.37-1.5-2.17-2.91.55-3.81.9-7.65,1.04-11.42,2.09-55.97-39.51-103.13-92.73-105.11-53.22-1.99-98.22,41.94-100.31,97.91-.14,3.77-.08,7.63.19,11.47.1,1.41-.97,2.64-2.38,2.74-1.42.1-2.64-.97-2.74-2.38-.28-4.02-.34-8.06-.2-12.01,2.19-58.8,49.58-104.94,105.63-102.85s99.86,51.63,97.67,110.43c-.15,3.95-.51,7.98-1.09,11.97-.19,1.31-1.34,2.25-2.63,2.2Z"/>
          </g>
          <g>
            <path class="cls-33" d="M813.68,947.43l26.11-4.09c-10.51-40.68-37.08-57.76-57.82-64.91-23.02-7.94-43.82-5.42-44.69-5.31l2.74,23.48c.16-.02,15.89-1.77,32.83,4.34,20.55,7.41,34.27,23.04,40.84,46.49Z"/>
            <path class="cls-36" d="M777.02,902.61l-27.43-26.03c-1.1-1.04-2.83-1-3.87.1-1.04,1.1-1,2.83.1,3.87l18.99,18.02c2.61.62,5.3,1.38,8.03,2.36,1.43.51,2.82,1.08,4.18,1.67Z"/>
            <path class="cls-33" d="M815.82,947.1l-78.18-74.22-31.01,4.86-8.5,83.7c-.28,2.76-.21,5.54.22,8.26l24.98,159.52c.59,3.74,4.44,6.25,8.6,5.6l126.97-19.88c4.16-.65,7.07-4.21,6.48-7.96l-25.62-163.63-23.95,3.75Z"/>
            <rect class="cls-11" x="709.58" y="988.81" width="143.79" height="94.02" transform="translate(-150.84 133.37) rotate(-8.9)"/>
            <rect class="cls-33" x="714.69" y="1062.25" width="143.79" height="12.34" transform="translate(-155.82 134.55) rotate(-8.9)"/>
            <rect class="cls-37" x="702.9" y="858.36" width="35.94" height="17.04" rx="1.6" ry="1.6" transform="translate(-125.43 121.96) rotate(-8.9)"/>
            <g>
              <rect class="cls-14" x="715.2" y="859.14" width="1.32" height="17.04" transform="translate(-125.59 121.16) rotate(-8.9)"/>
              <rect class="cls-14" x="720.15" y="858.37" width="1.32" height="17.04" transform="translate(-125.4 121.91) rotate(-8.9)"/>
              <rect class="cls-14" x="725.1" y="857.59" width="1.32" height="17.04" transform="translate(-125.22 122.66) rotate(-8.9)"/>
              <rect class="cls-14" x="730.05" y="856.82" width="1.32" height="17.04" transform="translate(-125.04 123.42) rotate(-8.9)"/>
              <rect class="cls-14" x="735" y="856.04" width="1.32" height="17.04" transform="translate(-124.92 124.25) rotate(-8.9)"/>
              <rect class="cls-14" x="705.31" y="860.69" width="1.32" height="17.04" transform="translate(-126 119.71) rotate(-8.9)"/>
              <rect class="cls-14" x="710.25" y="859.92" width="1.32" height="17.04" transform="translate(-125.81 120.46) rotate(-8.9)"/>
            </g>
            <path class="cls-36" d="M836.12,943.92l-18.27,2.86c-1.17.18-2.26-.61-2.44-1.78-.18-1.17.61-2.26,1.78-2.44l18.27-2.86c1.17-.18,2.26.61,2.44,1.78.18,1.17-.61,2.26-1.78,2.44Z"/>
          </g>
        </g>
      </g>
    </g>
    <g id="Layer_5" data-name="Layer 5">
      <g>
        <path class="cls-23" d="M-134.2,206.74c18.29,4.22,34.26,6.47,48.02,7.46.46,7.27,3.35,14.65,12.02,18.4,5.44,2.33,10.5,3.39,15.12,3.62,2.68,20.96,13.48,43.06,47.2,42.65,27.13-.35,44.91-9.79,56.45-20.54,4.16,4.37,9.08,7.84,14.99,9.65,8.91,2.72,16.6,2.06,22.94-.18.14,1.32.31,2.62.57,3.92,5.82,27.01,26.42,52.92,73.39,41.93,19.04-4.48,30.02-15.47,36.33-26.99,8.31,12.19,22.7,22.56,47.02,26.79,23.52,4.06,41.71-3.66,55.45-15.42,2.25,14.63,14.36,26.29,29.74,27.37,13.35.93,25.36-6.37,31.1-17.58,52.73,22.79,91.72-22.25,89.96-43.76,6.47,8.01,28.38,8.48,41.01,2.63,3.83-1.75,7.17-4.49,9.93-7.74,8.24,3.99,17.34,6.49,27.01,7.16,40.7,2.84,75.98-27.84,78.82-68.51.55-7.95-.19-15.74-2.04-23.07-7.52-30.19-33.76-53.46-66.51-55.75-11.47-.8-22.54,1.08-32.56,5.08-6.99-11.51-21.86-28.36-50.84-33.54-3.31-.61-6.82-.94-10.46-.99-7.55-28.09-32.21-49.65-62.87-51.79-32.02-2.23-60.49,17.43-70.84,46.2-4.16-2.33-8.96-4.07-14.45-4.86-5.32-.75-9.89-.46-13.8.44-4.69-7.68-11.93-13.81-20.53-16.48-11.97-3.64-25.53-.32-35.08,7.68-6.83-17.51-23.29-30.45-43.29-31.84-24.07-1.68-45.34,13.9-51.74,36.21-21.1-8.74-37.39-.59-46.83,8.52-12.04,11.62-18.31,35.77-13.01,51.46-15.17-4.21-27.3,5.39-24.59,20.92-34.05-19.99-66.45-3.47-84.09,9.89-.24-.34-.51-.68-.78-1.02-17.06-14.6-39.34-5.64-42.6,6.01-33.92-13.54-67.46-7.76-102.15,12.4-.21.13-.4.26-.58.4-8.62,6.08,20.4,15.83,52.55,23.27Z"/>
        <path class="cls-41" d="M-134.2,206.74c18.29,4.22,34.26,6.47,48.02,7.46.46,7.27,3.35,14.65,12.02,18.4,5.44,2.33,10.5,3.39,15.12,3.62,2.68,20.96,13.48,43.06,47.2,42.65,27.13-.35,44.91-9.79,56.45-20.54,4.16,4.37,9.08,7.84,14.99,9.65,8.91,2.72,16.6,2.06,22.94-.18.14,1.32.31,2.62.57,3.92,5.82,27.01,26.42,52.92,73.39,41.93,19.04-4.48,30.02-15.47,36.33-26.99,8.31,12.19,22.7,22.56,47.02,26.79,23.52,4.06,41.71-3.66,55.45-15.42,2.25,14.63,14.36,26.29,29.74,27.37,13.35.93,25.36-6.37,31.1-17.58,52.73,22.79,91.72-22.25,89.96-43.76,6.47,8.01,28.38,8.48,41.01,2.63,3.83-1.75,7.17-4.49,9.93-7.74,8.24,3.99,17.34,6.49,27.01,7.16,40.7,2.84,75.98-27.84,78.82-68.51.55-7.95-.19-15.74-2.04-23.07-24.51-6.26-51.94-4.76-68.73,29.22-11.76-22.93-33.15-20.28-39.01-4.5-9.77-15.91-27.22-27.98-51.07-34.02-24.31-6.19-42.44,5.38-54.71,16.9.31.11.63.22.94.33,43.16,15.32,39.41,57.8,39.41,57.8,0,0-16-42.48-101.84-47.77,0,0,12.94-16.98,41.29-14.74-9.54-14.64-25.2-25.15-43.91-27.54-9.17-1.14-18.07-.18-26.34,2.45-.18-2.38-.48-4.76-.99-7.13-3.11-14.42-14.22-28.21-28.93-29.44-24.65-2.1-46.14,21.2-43.5,51.93,0,0-28.23-8.45-46.85,35.53,0,0,4.12-32.27,24.78-50.37-11.61-10.85-31.81-10.71-39.31-8.08-17.4,6.11-23.23,18.89-24.36,31.44,0,0-14.88-10.43-27.4-4.51-15.72,7.42-10.94,23.86-10.94,23.86-22.23-6.33-31.52-10.19-43.86,19.02,22.43-7.07,45.43,1.1,60.34,19.87-22.18-14.97-53.13-15.78-76.09-1.95,2.75-20.55-25.25-37.38-42.14-25.37-2.71-18.51-23.41-29.99-41.76-26.51-14.84,2.84-24.09,16.26-22.86,32.83-10.81-27.2-40.1-20.33-78.7-23.25-13-.99-29.25-.52-41.07-7.06-8.62,6.08,20.4,15.83,52.55,23.27Z"/>
      </g>
      <g>
        <path class="cls-23" d="M1964.39,116.97c-.31.51-.7,1.02-1.21,1.5-21.99,20.74-112.09,14.71-112.09,14.71,0,0,2.99,18.4-12.77,20.55-10.51,1.43-19.18-6.8-19.18-6.8,0,0-15.16,27.52-41.99,30.92-20.9,2.64-32.64-12.17-32.64-12.17,0,0-3.4,39.53-58.2,38.22-23.89-.59-37.89-9.49-46.09-19.34-7.5,5.74-17.17,9.26-28.61,4.92-10.96-4.18-16.64-11.78-19.59-18.81-16.43,2.66-35.41,1.07-50.21-13.55-13.5-13.3-14.47-31.62-8.32-47.21,4.3-11,12.17-20.64,21.64-26.19,26.13-15.31,54.8-9.41,61.42,2.68,2.81-15.29,17.77-16.58,22.99-12.07,1-19.9,16.91-37.5,43.73-40.84,26.78-3.36,46.44,11.7,50.41,29.06,4.96-10.06,18.34-15,28.65-10.57,10.27,4.47,15.9,17.56,11.99,28.07,13.52-17.5,37.44-26.31,59.08-21.74,21.66,4.57,39.98,22.28,45.29,43.77,34.51-21.97,93.16,1.86,85.7,14.9Z"/>
        <path class="cls-41" d="M1964.39,116.97c-.31.51-.7,1.02-1.21,1.5-21.99,20.74-112.09,14.71-112.09,14.71,0,0,2.99,18.4-12.77,20.55-10.51,1.43-19.18-6.8-19.18-6.8,0,0-15.16,27.52-41.99,30.92-20.9,2.64-32.64-12.17-32.64-12.17,0,0-3.4,39.53-58.2,38.22-23.89-.59-37.89-9.49-46.09-19.34-7.5,5.74-17.17,9.26-28.61,4.92-10.96-4.18-16.64-11.78-19.59-18.81-16.43,2.66-35.41,1.07-50.21-13.55-13.5-13.3-14.47-31.62-8.32-47.21,21.6,5.33,31.64,29.18,33.85,31.93-6-22.4,15.04-47.54,38.18-45.55,21.5,1.84,42.19,15.78,46.56,43.24-21.48,1.76-41.89,9-47.6,27.19,15.08-16.35,44.12-24.41,59.18-8.01-.23-8.05,6.68-47.87,32.07-60.35,25.41-12.48,63.01,0,71.19,17.38,8.42-24.67,54.65-21.41,68.28-8.81-13.81,3.83-26.13,12.66-34.2,24.47,12.56-9.86,20.1-9.49,34.37-2.25,6.84-21.93,28.83-17.09,39.39-10.66,14.84-16.46,43.32-11.8,54.22-9.34,6,1.35,20.96,5.27,35.41,7.85Z"/>
      </g>
    </g>
  </g>
</svg>