<?xml version="1.0" encoding="utf-8"?>
<!-- Generator: Adobe Illustrator 28.1.0, SVG Export Plug-In . SVG Version: 6.00 Build 0)  -->
<svg version="1.1" id="Layer_1" xmlns="http://www.w3.org/2000/svg" xmlns:xlink="http://www.w3.org/1999/xlink" x="0px" y="0px"
	 viewBox="0 0 514.68 538.06" style="enable-background:new 0 0 514.68 538.06;" xml:space="preserve">
<style type="text/css">
	.st0{fill:#3848F8;stroke:#000000;stroke-miterlimit:10;}
	.st1{fill:#3848F8;}
	.st2{fill:#FFFFFF;}
	.st3{fill:#A5B2FF;}
</style>
<g>
	<path class="st0" d="M136.02,408.78c-0.17,1.15-2.49,2.37-4.26,3.22c-11.19,5.35-20.8,13.67-28.61,23.3
		C92.2,448.78,85.41,464.66,77.58,480c-4.57,8.95-9,17.97-13.91,26.72c-2.5,4.45-5.78,8.49-8.97,12.51
		c-2.64,3.32-6.03,5.87-9.86,7.74c-9.58,4.66-19.27,1.32-23.82-8.28c-2.81-5.93-3.9-12.23-3.4-18.76
		c1.08-14.18,5.96-27.12,13.43-39.07c18.56-29.69,50.89-47.54,84.95-52.99c3.48-0.56,6.98-0.98,10.49-1.27
		c2.37-0.2,4.92-0.34,7.24,0.34C135.52,407.48,136.12,408.12,136.02,408.78z"/>
	<path class="st0" d="M119.02,118.78c-0.17,1.15-2.49,2.37-4.26,3.22c-11.19,5.35-20.8,13.67-28.61,23.3
		C75.2,158.78,68.41,174.66,60.58,190c-4.57,8.95-9,17.97-13.91,26.72c-2.5,4.45-5.78,8.49-8.97,12.51
		c-2.64,3.32-6.03,5.87-9.86,7.74c-9.58,4.66-19.27,1.32-23.82-8.28c-2.81-5.93-3.9-12.23-3.4-18.76
		c1.08-14.18,5.96-27.12,13.43-39.07c18.56-29.69,50.89-47.54,84.95-52.99c3.48-0.56,6.98-0.98,10.49-1.27
		c2.37-0.2,4.92-0.34,7.24,0.34C118.52,117.48,119.12,118.12,119.02,118.78z"/>
	<g>
		<polygon points="205.38,31.32 191.54,97.53 102.28,116.15 		"/>
		<polygon points="393.39,522.35 407.8,458.64 496.5,437.52 		"/>
		<polygon points="361.44,369.96 444.94,300.61 191.59,333.52 124.95,406.24 		"/>
		<polygon points="514.68,129.21 375.72,206.31 37.16,282.51 179.64,205.4 		"/>
		<polygon class="st1" points="514.68,0 514.68,129.2 69.65,247.97 102.28,116.15 		"/>
		<polygon class="st1" points="444.94,171.41 444.94,300.61 4.54,414.32 37.16,282.51 126.43,257.36 		"/>
		<polygon class="st1" points="496.5,308.32 496.5,437.52 92.32,538.06 124.95,406.24 		"/>
	</g>
	<g>
		<path d="M208.61,188.03l-7.58,1.68l-14.31-64.73l7.58-1.68L208.61,188.03z"/>
		<path d="M277.81,172.74l-9.3,2.05l-44.71-44.23c-1.13-1.11-2.12-2.31-2.97-3.6l-0.27,0.06c0.55,1.33,1.32,4.27,2.33,8.81
			l10.34,46.76l-7.58,1.68l-14.31-64.73l9.84-2.17l43.63,43.62c1.82,1.81,3.01,3.06,3.58,3.75l0.18-0.04
			c-0.71-1.8-1.56-4.94-2.56-9.42l-10.08-45.59l7.58-1.68L277.81,172.74z"/>
		<path d="M294.78,168.99l-14.31-64.73l17.88-3.95c22.81-5.04,36.54,2.96,41.19,23.99c2.21,9.99,0.81,18.72-4.18,26.18
			c-5,7.46-12.8,12.37-23.43,14.72L294.78,168.99z M289.57,109.45l11.27,51.01l9.66-2.13c8.49-1.88,14.59-5.61,18.31-11.2
			c3.72-5.59,4.66-12.55,2.82-20.89c-3.66-16.58-14.31-22.92-31.95-19.03L289.57,109.45z"/>
		<path d="M385.93,149.98c-9.18,2.03-17.2,0.63-24.06-4.2c-6.86-4.83-11.36-12.09-13.5-21.78c-2.3-10.41-1.32-19.34,2.94-26.78
			c4.26-7.44,11.23-12.23,20.92-14.38c8.94-1.98,16.8-0.56,23.59,4.25c6.79,4.81,11.26,12.08,13.41,21.8
			c2.33,10.56,1.38,19.53-2.86,26.91C402.13,143.18,395.32,147.91,385.93,149.98z M373.2,89.83c-6.8,1.5-11.78,5.18-14.94,11.02
			c-3.16,5.84-3.86,12.75-2.09,20.73c1.76,7.97,5.25,13.93,10.46,17.88c5.21,3.95,11.14,5.18,17.79,3.71
			c7.1-1.57,12.19-5.12,15.26-10.66c3.07-5.54,3.68-12.48,1.84-20.81c-1.89-8.55-5.33-14.71-10.34-18.5
			C386.18,89.41,380.18,88.28,373.2,89.83z"/>
	</g>
	<g>
		<path class="st2" d="M202.61,184.03l-7.58,1.68l-14.31-64.73l7.58-1.68L202.61,184.03z"/>
		<path class="st2" d="M271.81,168.74l-9.3,2.05l-44.71-44.23c-1.13-1.11-2.12-2.31-2.97-3.6l-0.27,0.06
			c0.55,1.33,1.32,4.27,2.33,8.81l10.34,46.76l-7.58,1.68l-14.31-64.73l9.84-2.17l43.63,43.62c1.82,1.81,3.01,3.06,3.58,3.75
			l0.18-0.04c-0.71-1.8-1.56-4.94-2.56-9.42l-10.08-45.59l7.58-1.68L271.81,168.74z"/>
		<path class="st2" d="M288.78,164.99l-14.31-64.73l17.88-3.95c22.81-5.04,36.54,2.96,41.19,23.99c2.21,9.99,0.81,18.72-4.18,26.18
			c-5,7.46-12.8,12.37-23.43,14.72L288.78,164.99z M283.57,105.45l11.27,51.01l9.66-2.13c8.49-1.88,14.59-5.61,18.31-11.2
			c3.72-5.59,4.66-12.55,2.82-20.89c-3.66-16.58-14.31-22.92-31.95-19.03L283.57,105.45z"/>
		<path class="st2" d="M379.93,145.98c-9.18,2.03-17.2,0.63-24.06-4.2c-6.86-4.83-11.36-12.09-13.5-21.78
			c-2.3-10.41-1.32-19.34,2.94-26.78c4.26-7.44,11.23-12.23,20.92-14.38c8.94-1.98,16.8-0.56,23.59,4.25
			c6.79,4.81,11.26,12.08,13.41,21.8c2.33,10.56,1.38,19.53-2.86,26.91C396.13,139.18,389.32,143.91,379.93,145.98z M367.2,85.83
			c-6.8,1.5-11.78,5.18-14.94,11.02c-3.16,5.84-3.86,12.75-2.09,20.73c1.76,7.97,5.25,13.93,10.46,17.88
			c5.21,3.95,11.14,5.18,17.79,3.71c7.1-1.57,12.19-5.12,15.26-10.66c3.07-5.54,3.68-12.48,1.84-20.81
			c-1.89-8.55-5.33-14.71-10.34-18.5C380.18,85.41,374.18,84.28,367.2,85.83z"/>
	</g>
	<g>
		<path d="M183.92,278.96l-26.65,5.89l5.22,23.6l24.65-5.45l1.59,7.18l-24.65,5.45l6.68,30.22l-7.99,1.77l-15.08-68.23l34.64-7.66
			L183.92,278.96z"/>
		<path d="M238.1,332.16c-9.68,2.14-18.13,0.66-25.36-4.43c-7.23-5.09-11.97-12.74-14.23-22.96c-2.43-10.98-1.39-20.39,3.09-28.23
			c4.49-7.85,11.84-12.9,22.05-15.16c9.42-2.08,17.71-0.59,24.87,4.48c7.16,5.07,11.87,12.73,14.14,22.98
			c2.46,11.13,1.46,20.59-3.01,28.37C255.18,324.99,247.99,329.97,238.1,332.16z M224.68,268.75c-7.17,1.58-12.42,5.46-15.75,11.62
			c-3.33,6.16-4.07,13.44-2.21,21.85c1.86,8.41,5.53,14.69,11.03,18.85c5.49,4.16,11.75,5.46,18.76,3.92
			c7.49-1.65,12.85-5.4,16.08-11.24c3.23-5.84,3.88-13.15,1.94-21.94c-1.99-9.01-5.62-15.51-10.9-19.5
			C238.36,268.3,232.04,267.12,224.68,268.75z"/>
		<path d="M332.73,310.05l-9.52,2.1l-15.65-16.6c-1.44-1.55-2.79-2.84-4.05-3.87c-1.26-1.04-2.49-1.84-3.7-2.4
			c-1.21-0.57-2.44-0.9-3.71-1c-1.27-0.1-2.65,0.01-4.14,0.34l-6.57,1.45l6.42,29.03l-7.99,1.77l-15.08-68.23l20.37-4.5
			c2.98-0.66,5.82-0.89,8.5-0.71c2.69,0.19,5.13,0.84,7.32,1.95c2.19,1.11,4.06,2.69,5.61,4.72c1.55,2.04,2.66,4.58,3.33,7.62
			c0.53,2.38,0.65,4.64,0.38,6.78c-0.28,2.14-0.9,4.13-1.87,5.98c-0.97,1.85-2.27,3.52-3.88,5.03c-1.61,1.5-3.51,2.81-5.69,3.93
			l0.04,0.19c1.25,0.26,2.37,0.62,3.36,1.08c0.98,0.46,1.96,1.06,2.91,1.78c0.96,0.72,1.93,1.56,2.93,2.52
			c0.99,0.96,2.12,2.09,3.37,3.37L332.73,310.05z M278.32,258.09l5.47,24.74l10.85-2.4c2-0.44,3.78-1.15,5.34-2.13
			c1.56-0.98,2.84-2.17,3.83-3.57c0.99-1.4,1.65-2.99,1.99-4.78c0.34-1.79,0.28-3.7-0.17-5.73c-0.81-3.65-2.62-6.23-5.43-7.76
			c-2.82-1.52-6.46-1.79-10.93-0.8L278.32,258.09z"/>
	</g>
	<g>
		<path class="st2" d="M177.92,276.96l-26.65,5.89l5.22,23.6l24.65-5.45l1.59,7.18l-24.65,5.45l6.68,30.22l-7.99,1.77l-15.08-68.23
			l34.64-7.66L177.92,276.96z"/>
		<path class="st2" d="M232.1,330.16c-9.68,2.14-18.13,0.66-25.36-4.43c-7.23-5.09-11.97-12.74-14.23-22.96
			c-2.43-10.98-1.39-20.39,3.09-28.23c4.49-7.85,11.84-12.9,22.05-15.16c9.42-2.08,17.71-0.59,24.87,4.48
			c7.16,5.07,11.87,12.73,14.14,22.98c2.46,11.13,1.46,20.59-3.01,28.37C249.18,322.99,241.99,327.97,232.1,330.16z M218.68,266.75
			c-7.17,1.58-12.42,5.46-15.75,11.62c-3.33,6.16-4.07,13.44-2.21,21.85c1.86,8.41,5.53,14.69,11.03,18.85
			c5.49,4.16,11.75,5.46,18.76,3.92c7.49-1.65,12.85-5.4,16.08-11.24c3.23-5.84,3.88-13.15,1.94-21.94
			c-1.99-9.01-5.62-15.51-10.9-19.5C232.36,266.3,226.04,265.12,218.68,266.75z"/>
		<path class="st2" d="M326.73,308.05l-9.52,2.1l-15.65-16.6c-1.44-1.55-2.79-2.84-4.05-3.87c-1.26-1.04-2.49-1.84-3.7-2.4
			c-1.21-0.57-2.44-0.9-3.71-1c-1.27-0.1-2.65,0.01-4.14,0.34l-6.57,1.45l6.42,29.03l-7.99,1.77l-15.08-68.23l20.37-4.5
			c2.98-0.66,5.82-0.89,8.5-0.71c2.69,0.19,5.13,0.84,7.32,1.95c2.19,1.11,4.06,2.69,5.61,4.72c1.55,2.04,2.66,4.58,3.33,7.62
			c0.53,2.38,0.65,4.64,0.38,6.78c-0.28,2.14-0.9,4.13-1.87,5.98c-0.97,1.85-2.27,3.52-3.88,5.03c-1.61,1.5-3.51,2.81-5.69,3.93
			l0.04,0.19c1.25,0.26,2.37,0.62,3.36,1.08c0.98,0.46,1.96,1.06,2.91,1.78c0.96,0.72,1.93,1.56,2.93,2.52
			c0.99,0.96,2.12,2.09,3.37,3.37L326.73,308.05z M272.32,256.09l5.47,24.74l10.85-2.4c2-0.44,3.78-1.15,5.34-2.13
			c1.56-0.98,2.84-2.17,3.83-3.57c0.99-1.4,1.65-2.99,1.99-4.78c0.34-1.79,0.28-3.7-0.17-5.73c-0.81-3.65-2.62-6.23-5.43-7.76
			c-2.82-1.52-6.46-1.79-10.93-0.8L272.32,256.09z"/>
	</g>
	<g>
		<path d="M297.76,462.27l-8.84,1.95l-11.45-17.51l-28.91,6.39l-2.57,20.62l-8.89,1.96l11.08-73.96l8.27-1.83L297.76,462.27z
			 M273.26,440.11l-17.12-26.68c-0.56-0.87-1.24-2.32-2.05-4.33l-0.19,0.04c0.11,2,0.08,3.61-0.08,4.81l-4.18,31.39L273.26,440.11z"
			/>
		<path d="M343.16,452.24l-35.37,7.82l-15.07-68.18l7.99-1.77l13.47,60.95l27.38-6.05L343.16,452.24z"/>
		<path d="M388.99,442.11l-35.37,7.82l-15.07-68.18l7.99-1.76l13.47,60.95l27.39-6.05L388.99,442.11z"/>
	</g>
	<g>
		<path class="st2" d="M291.76,458.27l-8.84,1.95l-11.45-17.51l-28.91,6.39l-2.57,20.62l-8.89,1.96l11.08-73.96l8.27-1.83
			L291.76,458.27z M267.26,436.11l-17.12-26.68c-0.56-0.87-1.24-2.32-2.05-4.33l-0.19,0.04c0.11,2,0.08,3.61-0.08,4.81l-4.18,31.39
			L267.26,436.11z"/>
		<path class="st2" d="M337.16,448.24l-35.37,7.82l-15.07-68.18l7.99-1.77l13.47,60.95l27.38-6.05L337.16,448.24z"/>
		<path class="st2" d="M382.99,438.11l-35.37,7.82l-15.07-68.18l7.99-1.76l13.47,60.95l27.39-6.05L382.99,438.11z"/>
	</g>
	<g>
		<path class="st2" d="M4.56,414.06c2.61-2.53,5.31-5.01,8.09-7.43c2.91-2.2,5.79-4.56,8.85-6.62c6.09-4.19,12.57-7.91,19.28-11.12
			c13.44-6.46,27.74-11.04,42.18-14.38c28.95-6.63,58.45-8.25,86.92-9.26c28.49-1.11,56.46-1.87,83.75-6.18
			c13.65-2.12,27.11-5.2,40.24-9.75c6.57-2.25,13.05-4.93,19.51-7.82c3.2-1.48,6.34-3.13,9.43-4.91c3.15-1.71,6.15-3.68,9.21-5.7
			c-2.02,3.06-4.37,5.88-6.82,8.67c-2.51,2.71-5.18,5.29-7.96,7.77c-5.62,4.87-11.68,9.21-18.04,13.18
			c-12.76,7.88-26.8,13.64-41.13,17.88c-28.78,8.43-58.44,10.96-87.23,12.04c-28.84,0.99-56.92,0.89-84.68,3.57
			C59.75,400.06,31.75,410.06,4.56,414.06z"/>
		<g>
			<path class="st3" d="M193.56,374.41c0.01,1.19-6.08,2.25-15.88,3.12c-9.8,0.89-23.29,1.58-38.07,2.73
				c-7.39,0.6-14.39,1.31-20.75,2.03c-6.35,0.78-12.07,1.54-16.87,2.29c-9.6,1.44-15.64,2.42-16.03,1.24
				c-0.35-1.06,5.11-4.1,14.67-7.12c4.77-1.53,10.56-2.94,17.04-4.18c6.49-1.18,13.69-2.15,21.25-2.77
				c15.14-1.18,28.83-0.92,38.68-0.26C187.48,372.17,193.56,373.24,193.56,374.41z"/>
		</g>
	</g>
	<g>
		<path class="st2" d="M206.82,463.06c0,0-4.01-22.3-23.4-33.45c-19.39-11.15-29.17,13.55-12.15,20.91
			C188.28,457.88,200.13,454.57,206.82,463.06z"/>
		<path class="st2" d="M206.63,436.83c0,0,0.33-16.63-12.02-27.45c-12.35-10.82-22.95,5.55-11.76,13.3
			C194.03,430.44,203.04,429.76,206.63,436.83z"/>
	</g>
	<g>
		<path class="st2" d="M391.51,423.06c0,0,4.01-22.3,23.4-33.45c19.39-11.15,29.17,13.55,12.15,20.91
			C410.04,417.88,398.19,414.57,391.51,423.06z"/>
		<path class="st2" d="M391.69,396.83c0,0-0.33-16.63,12.02-27.45c12.35-10.82,22.95,5.55,11.76,13.3
			C404.29,390.44,395.28,389.76,391.69,396.83z"/>
	</g>
	<g>
		<path class="st2" d="M121.3,328.86c0,0-4.01-22.3-23.4-33.45c-19.39-11.15-29.17,13.55-12.15,20.91
			C102.77,323.69,114.62,320.38,121.3,328.86z"/>
		<path class="st2" d="M121.12,302.64c0,0,0.33-16.63-12.02-27.45c-12.35-10.82-22.95,5.55-11.76,13.3
			C108.52,296.24,117.53,295.57,121.12,302.64z"/>
	</g>
	<g>
		<path class="st2" d="M339.99,276.86c0,0,4.01-22.3,23.4-33.45c19.39-11.15,29.17,13.55,12.15,20.91
			C358.53,271.69,346.68,268.38,339.99,276.86z"/>
		<path class="st2" d="M340.18,250.64c0,0-0.33-16.63,12.02-27.45c12.35-10.82,22.95,5.55,11.76,13.3
			C352.78,244.24,343.77,243.57,340.18,250.64z"/>
	</g>
	<g>
		<path class="st2" d="M163.26,173.67c0,0-4.01-22.3-23.4-33.45c-19.39-11.15-29.17,13.55-12.15,20.91
			C144.72,168.5,156.58,165.19,163.26,173.67z"/>
		<path class="st2" d="M163.07,147.45c0,0,0.33-16.63-12.02-27.45c-12.35-10.82-22.95,5.55-11.76,13.3
			C150.48,141.05,159.48,140.38,163.07,147.45z"/>
	</g>
	<g>
		<path class="st2" d="M422.95,97.67c0,0,4.01-22.3,23.4-33.45c19.39-11.15,29.17,13.55,12.15,20.91
			C441.49,92.5,429.64,89.19,422.95,97.67z"/>
		<path class="st2" d="M423.14,71.45c0,0-0.33-16.63,12.02-27.45c12.35-10.82,22.95,5.55,11.76,13.3
			C435.74,65.05,426.73,64.38,423.14,71.45z"/>
	</g>
	<g>
		<g>
			<path class="st2" d="M348.65,319.9c-1.18-0.2-2.27-0.92-2.88-2.07c-1.04-1.95-0.31-4.38,1.64-5.42l0,0
				c0.22-0.12,21.76-11.85,27.58-29.72c0.69-2.11,2.96-3.26,5.05-2.57c2.11,0.69,3.26,2.95,2.57,5.05
				c-6.83,20.97-30.42,33.77-31.42,34.31C350.39,319.92,349.49,320.04,348.65,319.9z"/>
		</g>
		<g>
			<path class="st2" d="M352.15,331.32c-1.49-0.25-2.77-1.33-3.21-2.88c-0.59-2.13,0.65-4.34,2.79-4.94
				c0.24-0.07,17.06-4.95,30.55-19.33c1.51-1.62,4.05-1.7,5.67-0.18c1.61,1.51,1.7,4.05,0.18,5.67
				c-15.11,16.11-33.48,21.35-34.25,21.57C353.29,331.38,352.71,331.41,352.15,331.32z"/>
		</g>
	</g>
</g>
</svg>
