<?xml version="1.0" encoding="UTF-8"?>
<svg id="Layer_1" data-name="Layer 1" xmlns="http://www.w3.org/2000/svg" viewBox="0 0 1918.14 300.87">
  <defs>
    <style>
      .cls-1 {
        fill: #ffdf40;
      }

      .cls-1, .cls-2, .cls-3 {
        stroke-width: 0px;
      }

      .cls-2 {
        fill: #635947;
      }

      .cls-3 {
        fill: #ffa600;
      }
    </style>
  </defs>
  <g>
    <polygon class="cls-3" points="158.17 0 207.05 99.04 316.35 114.92 237.26 192.01 255.93 300.87 158.17 249.47 60.42 300.87 79.09 192.01 0 114.92 109.3 99.04 158.17 0"/>
    <polygon class="cls-1" points="158.17 165.56 158.17 0 207.05 99.04 158.17 165.56"/>
    <polygon class="cls-1" points="158.17 165.56 207.05 99.04 316.35 114.92 158.17 165.56"/>
    <polygon class="cls-1" points="158.17 165.56 237.26 192.01 255.93 300.87 158.17 165.56"/>
    <path class="cls-1" d="M158.17,165.56v83.91l-97.76,51.39s104.31-140.77,97.76-135.3Z"/>
    <polygon class="cls-1" points="158.17 165.56 0 114.92 109.3 99.04 158.17 165.56"/>
  </g>
  <g>
    <polygon class="cls-3" points="556.83 0 605.71 99.04 715.01 114.92 635.92 192.01 654.59 300.87 556.83 249.47 459.07 300.87 477.74 192.01 398.66 114.92 507.95 99.04 556.83 0"/>
    <polygon class="cls-1" points="556.83 165.56 556.83 0 605.71 99.04 556.83 165.56"/>
    <polygon class="cls-1" points="556.83 165.56 605.71 99.04 715.01 114.92 556.83 165.56"/>
    <polygon class="cls-1" points="556.83 165.56 635.92 192.01 654.59 300.87 556.83 165.56"/>
    <path class="cls-1" d="M556.83,165.56v83.91l-97.76,51.39s104.31-140.77,97.76-135.3Z"/>
    <polygon class="cls-1" points="556.83 165.56 398.66 114.92 507.95 99.04 556.83 165.56"/>
  </g>
  <g>
    <polygon class="cls-3" points="952.9 0 1001.78 99.04 1111.07 114.92 1031.98 192.01 1050.65 300.87 952.9 249.47 855.14 300.87 873.81 192.01 794.72 114.92 904.02 99.04 952.9 0"/>
    <polygon class="cls-1" points="952.9 165.56 952.9 0 1001.78 99.04 952.9 165.56"/>
    <polygon class="cls-1" points="952.9 165.56 1001.78 99.04 1111.07 114.92 952.9 165.56"/>
    <polygon class="cls-1" points="952.9 165.56 1031.98 192.01 1050.65 300.87 952.9 165.56"/>
    <path class="cls-1" d="M952.9,165.56v83.91l-97.76,51.39s104.31-140.77,97.76-135.3Z"/>
    <polygon class="cls-1" points="952.9 165.56 794.72 114.92 904.02 99.04 952.9 165.56"/>
  </g>
  <g>
    <polygon class="cls-3" points="1351.41 0 1400.29 99.04 1509.58 114.92 1430.5 192.01 1449.16 300.87 1351.41 249.47 1253.65 300.87 1272.32 192.01 1193.23 114.92 1302.53 99.04 1351.41 0"/>
    <polygon class="cls-1" points="1351.41 165.56 1351.41 0 1400.29 99.04 1351.41 165.56"/>
    <polygon class="cls-1" points="1351.41 165.56 1400.29 99.04 1509.58 114.92 1351.41 165.56"/>
    <polygon class="cls-1" points="1351.41 165.56 1430.5 192.01 1449.16 300.87 1351.41 165.56"/>
    <path class="cls-1" d="M1351.41,165.56v83.91l-97.76,51.39s104.31-140.77,97.76-135.3Z"/>
    <polygon class="cls-1" points="1351.41 165.56 1193.23 114.92 1302.53 99.04 1351.41 165.56"/>
  </g>
  <polygon class="cls-2" points="1759.96 0 1808.84 99.04 1918.14 114.92 1839.05 192.01 1857.72 300.87 1759.96 249.47 1662.2 300.87 1680.87 192.01 1601.79 114.92 1711.08 99.04 1759.96 0"/>
</svg>