<?xml version="1.0" encoding="UTF-8"?>
<svg id="Layer_1" data-name="Layer 1" xmlns="http://www.w3.org/2000/svg" viewBox="0 0 1903.85 319.43">
  <defs>
    <style>
      .cls-1 {
        fill: #ffdf40;
      }

      .cls-1, .cls-2 {
        stroke-width: 0px;
      }

      .cls-2 {
        fill: #ffa600;
      }
    </style>
  </defs>
  <g>
    <polygon class="cls-2" points="167.93 0 219.83 105.15 335.87 122.01 251.9 203.86 271.72 319.43 167.93 264.86 64.15 319.43 83.97 203.86 0 122.01 116.04 105.15 167.93 0"/>
    <polygon class="cls-1" points="167.93 175.78 167.93 0 219.83 105.15 167.93 175.78"/>
    <polygon class="cls-1" points="167.93 175.78 219.83 105.15 335.87 122.01 167.93 175.78"/>
    <polygon class="cls-1" points="167.93 175.78 251.9 203.86 271.72 319.43 167.93 175.78"/>
    <path class="cls-1" d="M167.93,175.78v89.08l-103.79,54.56s110.74-149.45,103.79-143.65Z"/>
    <polygon class="cls-1" points="167.93 175.78 0 122.01 116.04 105.15 167.93 175.78"/>
  </g>
  <g>
    <polygon class="cls-2" points="559.93 0 611.82 105.15 727.86 122.01 643.89 203.86 663.71 319.43 559.93 264.86 456.14 319.43 475.96 203.86 391.99 122.01 508.03 105.15 559.93 0"/>
    <polygon class="cls-1" points="559.93 175.78 559.93 0 611.82 105.15 559.93 175.78"/>
    <polygon class="cls-1" points="559.93 175.78 611.82 105.15 727.86 122.01 559.93 175.78"/>
    <polygon class="cls-1" points="559.93 175.78 643.89 203.86 663.71 319.43 559.93 175.78"/>
    <path class="cls-1" d="M559.93,175.78v89.08l-103.79,54.56s110.74-149.45,103.79-143.65Z"/>
    <polygon class="cls-1" points="559.93 175.78 391.99 122.01 508.03 105.15 559.93 175.78"/>
  </g>
  <g>
    <polygon class="cls-2" points="949.94 0 1001.83 105.15 1117.87 122.01 1033.9 203.86 1053.73 319.43 949.94 264.86 846.15 319.43 865.97 203.86 782 122.01 898.04 105.15 949.94 0"/>
    <polygon class="cls-1" points="949.94 175.78 949.94 0 1001.83 105.15 949.94 175.78"/>
    <polygon class="cls-1" points="949.94 175.78 1001.83 105.15 1117.87 122.01 949.94 175.78"/>
    <polygon class="cls-1" points="949.94 175.78 1033.9 203.86 1053.73 319.43 949.94 175.78"/>
    <path class="cls-1" d="M949.94,175.78v89.08l-103.79,54.56s110.74-149.45,103.79-143.65Z"/>
    <polygon class="cls-1" points="949.94 175.78 782 122.01 898.04 105.15 949.94 175.78"/>
  </g>
  <g>
    <polygon class="cls-2" points="1347.57 0 1399.46 105.15 1515.5 122.01 1431.53 203.86 1451.35 319.43 1347.57 264.86 1243.78 319.43 1263.6 203.86 1179.63 122.01 1295.67 105.15 1347.57 0"/>
    <polygon class="cls-1" points="1347.57 175.78 1347.57 0 1399.46 105.15 1347.57 175.78"/>
    <polygon class="cls-1" points="1347.57 175.78 1399.46 105.15 1515.5 122.01 1347.57 175.78"/>
    <polygon class="cls-1" points="1347.57 175.78 1431.53 203.86 1451.35 319.43 1347.57 175.78"/>
    <path class="cls-1" d="M1347.57,175.78v89.08l-103.79,54.56s110.74-149.45,103.79-143.65Z"/>
    <polygon class="cls-1" points="1347.57 175.78 1179.63 122.01 1295.67 105.15 1347.57 175.78"/>
  </g>
  <g>
    <polygon class="cls-2" points="1735.92 0 1787.81 105.15 1903.85 122.01 1819.88 203.86 1839.71 319.43 1735.92 264.86 1632.13 319.43 1651.95 203.86 1567.98 122.01 1684.02 105.15 1735.92 0"/>
    <polygon class="cls-1" points="1735.92 175.78 1735.92 0 1787.81 105.15 1735.92 175.78"/>
    <polygon class="cls-1" points="1735.92 175.78 1787.81 105.15 1903.85 122.01 1735.92 175.78"/>
    <polygon class="cls-1" points="1735.92 175.78 1819.88 203.86 1839.71 319.43 1735.92 175.78"/>
    <path class="cls-1" d="M1735.92,175.78v89.08l-103.79,54.56s110.74-149.45,103.79-143.65Z"/>
    <polygon class="cls-1" points="1735.92 175.78 1567.98 122.01 1684.02 105.15 1735.92 175.78"/>
  </g>
</svg>