<?xml version="1.0" encoding="UTF-8"?>
<svg id="Layer_1" data-name="Layer 1" xmlns="http://www.w3.org/2000/svg" viewBox="0 0 1080 1080">
  <defs>
    <style>
      .cls-1 {
        fill: #fff;
      }

      .cls-1, .cls-2 {
        stroke-width: 0px;
      }

      .cls-2 {
        fill: #b9c4e1;
      }
    </style>
  </defs>
  <circle class="cls-2" cx="540" cy="540" r="535"/>
  <ellipse class="cls-1" cx="540" cy="452.37" rx="208.12" ry="269.04"/>
  <path class="cls-1" d="M540,1075c152.32,0,289.67-63.77,387.1-165.93-52.12-97.22-205.69-167.68-387.1-167.68s-334.99,70.46-387.1,167.68c97.43,102.16,234.78,165.93,387.1,165.93Z"/>
  <rect class="cls-1" x="446.03" y="540" width="187.94" height="339.76" rx="9.62" ry="9.62"/>
  <path class="cls-1" d="M757.05,697.37c35.46-61.11,56.6-137.57,56.6-220.61,0-200.17-122.52-362.43-273.65-362.43s-273.65,162.27-273.65,362.43c0,83.04,21.13,159.5,56.6,220.61h434.1Z"/>
</svg>