<?xml version="1.0" standalone="no"?>
<!DOCTYPE svg PUBLIC "-//W3C//DTD SVG 20010904//EN"
 "http://www.w3.org/TR/2001/REC-SVG-20010904/DTD/svg10.dtd">
<svg version="1.0" xmlns="http://www.w3.org/2000/svg"
 width="3840.000000pt" height="3840.000000pt" viewBox="0 0 3840.000000 3840.000000"
 preserveAspectRatio="xMidYMid meet">
<metadata>
Created by potrace 1.14, written by Peter Selinger 2001-2017
</metadata>
<g transform="translate(0.000000,3840.000000) scale(0.100000,-0.100000)"
fill="#000000" stroke="none">
<path d="M15580 34997 c-3 -3 -57 -8 -120 -12 -63 -4 -117 -8 -120 -10 -3 -1
-34 -6 -70 -9 -118 -12 -343 -47 -500 -77 -758 -147 -1415 -410 -2005 -802
-107 -71 -324 -232 -394 -292 -252 -215 -434 -398 -610 -610 -117 -141 -114
-136 -141 -175 -13 -19 -32 -44 -42 -54 -10 -11 -18 -23 -18 -27 0 -4 -6 -14
-14 -22 -8 -7 -51 -70 -95 -138 -45 -68 -86 -129 -91 -136 -6 -7 -10 -15 -10
-19 0 -3 -13 -26 -30 -51 -16 -24 -30 -46 -30 -49 0 -2 -12 -23 -26 -46 -14
-23 -27 -48 -28 -55 -1 -8 -9 -19 -17 -24 -8 -5 -9 -9 -4 -9 6 0 6 -3 0 -8
-10 -6 -38 -63 -36 -70 1 -1 -5 -10 -14 -18 -8 -9 -13 -19 -10 -24 3 -5 1 -10
-3 -12 -10 -3 -62 -111 -62 -127 0 -6 -4 -11 -10 -11 -5 0 -10 -9 -10 -20 0
-11 -5 -20 -12 -20 -6 0 -9 -3 -5 -6 3 -4 -1 -21 -10 -38 -9 -17 -18 -37 -19
-45 -2 -8 -8 -17 -14 -21 -7 -4 -11 -10 -11 -14 4 -26 -1 -46 -9 -41 -5 3 -11
-1 -11 -9 -2 -21 -3 -25 -22 -68 -10 -21 -17 -43 -17 -50 0 -8 -7 -23 -15 -34
-8 -12 -16 -33 -19 -49 -3 -15 -12 -38 -20 -50 -12 -18 -12 -25 -3 -28 9 -4 9
-6 -1 -6 -7 -1 -10 -5 -7 -11 3 -5 1 -10 -5 -10 -7 0 -10 -7 -6 -15 3 -8 1
-15 -4 -15 -5 0 -7 -9 -5 -20 2 -11 0 -18 -6 -15 -8 5 -14 -15 -10 -37 0 -5
-3 -8 -7 -8 -4 0 -9 -9 -10 -20 -4 -43 -6 -50 -13 -50 -4 0 -6 -9 -4 -20 2
-11 -1 -20 -7 -20 -5 0 -8 -7 -4 -15 3 -8 2 -15 -3 -15 -7 0 -11 -15 -12 -53
0 -9 -4 -15 -9 -12 -5 3 -9 -3 -9 -12 -1 -37 -8 -62 -20 -77 -10 -12 -11 -16
-1 -16 10 0 10 -3 0 -15 -6 -8 -9 -19 -5 -25 3 -5 1 -10 -5 -10 -6 0 -9 -4 -5
-9 3 -5 1 -12 -4 -16 -5 -3 -9 -13 -9 -23 1 -25 -5 -46 -17 -54 -6 -5 -5 -8 3
-8 6 0 12 -5 12 -11 0 -5 -4 -7 -10 -4 -6 3 -11 -5 -11 -19 -2 -35 -3 -39 -13
-55 -7 -10 -5 -12 5 -6 11 6 11 5 2 -5 -6 -7 -9 -19 -6 -28 5 -11 3 -13 -7 -7
-10 6 -12 4 -6 -10 4 -11 2 -22 -6 -27 -10 -6 -10 -8 1 -8 11 0 11 -3 1 -15
-6 -8 -9 -19 -5 -25 3 -5 1 -10 -4 -10 -6 0 -11 -5 -11 -11 0 -5 6 -7 13 -3 9
6 9 4 1 -7 -6 -8 -10 -22 -9 -31 2 -10 -1 -18 -7 -18 -5 0 -7 -9 -3 -19 3 -11
1 -22 -4 -25 -5 -4 -8 -18 -5 -32 3 -15 1 -23 -5 -20 -6 4 -8 -2 -6 -14 2 -11
0 -22 -6 -25 -5 -4 -9 -12 -9 -18 0 -7 4 -6 10 3 6 9 10 10 10 3 0 -6 -5 -15
-10 -18 -6 -4 -8 -11 -4 -16 3 -5 0 -17 -8 -26 -11 -14 -11 -16 2 -8 12 7 13
6 4 -6 -6 -8 -11 -26 -10 -41 1 -16 -3 -28 -9 -28 -5 0 -3 -5 5 -10 10 -6 11
-10 2 -10 -6 0 -11 -3 -11 -7 1 -5 1 -10 -1 -13 -1 -3 -3 -16 -6 -30 -3 -19
-2 -21 6 -10 6 9 10 10 10 3 0 -6 -5 -15 -10 -18 -6 -4 -8 -16 -4 -27 3 -11 2
-18 -3 -15 -5 3 -8 -12 -7 -34 1 -22 -3 -42 -8 -45 -5 -3 -4 -12 3 -20 9 -11
9 -14 -1 -14 -7 0 -10 -6 -7 -13 3 -8 1 -20 -3 -27 -5 -8 -4 -22 1 -32 5 -10
6 -18 1 -18 -4 0 -7 -17 -7 -37 1 -21 -3 -44 -8 -50 -6 -8 -6 -13 0 -13 5 0
10 -7 10 -15 0 -8 -5 -11 -10 -8 -6 4 -8 -1 -4 -12 4 -9 3 -23 -3 -30 -8 -9
-8 -15 0 -20 8 -5 7 -11 -2 -23 -10 -12 -10 -14 0 -8 6 4 12 2 12 -3 0 -6 -6
-11 -12 -11 -9 0 -8 -4 2 -10 8 -5 11 -10 5 -10 -5 0 -11 -11 -11 -25 -1 -16
2 -22 10 -18 6 4 5 -1 -2 -10 -8 -9 -11 -21 -8 -26 4 -5 2 -12 -3 -15 -11 -7
-9 -25 4 -45 5 -10 4 -16 -3 -19 -7 -2 -9 -9 -5 -15 11 -18 12 -38 2 -31 -5 3
-9 0 -9 -5 0 -6 5 -11 11 -11 8 0 8 -4 1 -12 -15 -19 -15 -30 0 -39 9 -6 9 -9
1 -9 -8 0 -11 -13 -8 -37 2 -21 -1 -46 -7 -56 -5 -11 -6 -17 -1 -14 5 4 10 -7
10 -23 0 -16 -3 -27 -7 -25 -8 5 -4 -50 4 -64 4 -5 2 -12 -4 -16 -6 -4 -7 -12
-3 -18 11 -18 14 -49 5 -43 -5 3 -9 -1 -9 -9 0 -8 4 -12 9 -9 4 3 8 1 8 -5 0
-5 -5 -13 -10 -16 -7 -4 -7 -12 -2 -18 4 -7 7 -38 6 -69 -1 -38 2 -55 9 -51 6
4 7 1 2 -7 -14 -22 -15 -81 -1 -73 6 4 5 -1 -3 -10 -9 -12 -10 -17 -2 -17 9 0
9 -5 1 -20 -8 -15 -8 -20 1 -20 9 0 9 -3 0 -14 -8 -10 -9 -16 -1 -21 5 -3 10
-11 10 -16 0 -6 -6 -7 -12 -3 -10 6 -10 4 -2 -7 6 -8 10 -33 9 -56 -1 -28 2
-40 9 -36 6 4 5 -1 -3 -10 -9 -11 -10 -17 -2 -17 6 0 11 -5 11 -11 0 -5 -5 -7
-11 -3 -8 4 -8 1 -1 -12 5 -11 8 -28 6 -39 -1 -10 3 -26 9 -34 9 -12 9 -13 0
-7 -9 5 -13 0 -13 -13 0 -12 6 -21 13 -21 8 0 7 -4 -3 -10 -8 -5 -10 -10 -4
-10 8 0 11 -17 10 -47 -2 -27 2 -54 7 -60 6 -9 6 -13 -2 -13 -8 0 -9 -6 -3
-17 5 -10 8 -28 6 -40 -2 -13 1 -23 7 -23 7 0 7 -6 -2 -17 -14 -16 -14 -20 1
-38 5 -6 7 -24 6 -42 -1 -17 1 -30 5 -27 4 2 5 -14 3 -36 -2 -23 0 -39 5 -36
4 3 7 -9 6 -27 -2 -18 2 -40 7 -51 7 -13 7 -16 -1 -12 -8 5 -8 0 -2 -16 4 -13
7 -31 6 -40 -2 -10 2 -18 8 -18 7 0 5 -5 -3 -10 -10 -6 -11 -10 -3 -10 9 0 12
-13 9 -40 -2 -23 0 -37 5 -34 6 3 8 -10 6 -30 -2 -20 -1 -36 2 -36 4 0 7 -10
8 -22 2 -52 8 -78 18 -78 5 0 3 -5 -5 -10 -13 -9 -13 -10 0 -10 13 0 13 -1 0
-10 -8 -5 -10 -10 -3 -10 6 0 10 -11 8 -25 -1 -14 1 -28 5 -30 5 -3 6 -14 3
-25 -3 -13 0 -20 8 -20 11 0 11 -2 -1 -10 -12 -8 -12 -10 -1 -10 8 0 11 -3 8
-6 -3 -4 -2 -16 4 -27 8 -14 8 -18 0 -13 -8 5 -8 -1 -1 -20 6 -15 9 -33 6 -41
-3 -7 -2 -13 2 -13 8 0 15 -38 14 -77 0 -13 5 -23 10 -23 6 0 8 -11 6 -25 -3
-14 -1 -28 4 -31 4 -3 6 -10 3 -15 -4 -5 -3 -15 2 -21 4 -7 9 -24 9 -38 1 -14
3 -25 4 -25 1 0 4 -9 6 -20 2 -11 6 -33 9 -50 3 -16 7 -40 7 -52 1 -13 6 -23
11 -23 5 0 7 -9 4 -20 -3 -11 -1 -20 4 -20 6 0 9 -6 8 -12 -3 -22 13 -118 20
-118 4 0 8 -10 8 -22 2 -43 7 -68 13 -68 3 0 7 -10 8 -22 3 -26 10 -63 12 -63
1 0 4 -10 6 -22 2 -13 6 -33 8 -45 2 -13 5 -25 7 -28 1 -3 3 -9 4 -15 2 -5 4
-12 5 -15 1 -3 3 -12 5 -20 10 -38 27 -106 30 -120 2 -8 8 -27 14 -42 6 -16 8
-28 6 -28 -2 0 0 -12 6 -27 6 -16 33 -104 59 -198 125 -443 258 -849 426
-1301 67 -183 262 -677 295 -749 10 -22 45 -103 77 -180 63 -148 165 -379 212
-480 15 -33 60 -130 100 -215 158 -341 420 -859 648 -1280 38 -70 234 -426
262 -475 48 -84 173 -301 222 -385 52 -89 208 -348 536 -888 78 -128 142 -235
142 -237 0 -2 23 -40 50 -85 28 -45 50 -83 50 -85 0 -2 20 -36 43 -77 73 -123
298 -530 422 -763 108 -204 441 -870 515 -1030 166 -359 218 -475 317 -705
309 -713 552 -1355 798 -2110 91 -279 201 -639 239 -781 8 -30 37 -135 65
-234 56 -203 151 -568 186 -720 12 -55 35 -152 50 -215 15 -63 28 -122 30
-130 2 -8 24 -114 49 -235 25 -121 50 -238 55 -260 10 -43 70 -365 95 -510 9
-49 18 -101 21 -115 3 -14 23 -140 45 -280 35 -229 50 -329 65 -440 2 -19 13
-102 24 -185 22 -160 66 -554 76 -670 3 -38 8 -86 10 -105 2 -19 6 -62 9 -95
15 -167 20 -227 31 -400 3 -49 8 -115 10 -145 3 -30 7 -107 10 -170 4 -63 8
-144 10 -180 26 -496 26 -1507 0 -1945 -2 -38 -7 -124 -10 -190 -4 -66 -8
-142 -10 -170 -2 -27 -6 -88 -10 -135 -8 -121 -14 -186 -30 -370 -11 -123 -40
-401 -50 -480 -3 -19 -11 -89 -19 -155 -8 -66 -17 -136 -20 -155 -3 -19 -10
-71 -16 -115 -24 -169 -80 -508 -116 -700 -36 -188 -109 -518 -145 -653 -17
-63 -29 -115 -27 -117 2 -2 35 26 74 63 39 37 133 125 210 197 181 169 888
875 1080 1079 82 87 156 166 165 175 26 27 319 351 394 436 39 43 77 86 85 95
34 36 317 368 456 535 937 1125 1780 2353 2462 3588 71 128 138 250 149 272
11 22 46 87 77 145 106 194 423 843 540 1102 428 949 727 1754 1041 2803 93
310 284 1057 339 1325 3 14 28 135 56 269 46 223 113 573 126 661 3 19 14 85
24 145 10 61 28 173 40 250 28 183 28 183 35 235 3 25 10 77 15 115 35 253 73
583 95 835 3 36 8 81 10 100 2 19 7 78 11 130 3 52 8 103 9 112 2 9 7 77 10
150 4 73 9 140 10 149 2 9 6 83 10 165 4 82 8 167 10 189 7 94 19 682 19 925
0 234 -11 758 -18 910 -2 30 -7 127 -11 215 -4 88 -9 167 -10 176 -2 9 -7 70
-10 135 -4 66 -8 130 -10 144 -1 14 -6 72 -10 130 -4 58 -9 113 -11 123 -1 9
-6 54 -9 100 -9 119 -57 558 -80 722 -2 17 -9 68 -15 115 -6 47 -13 96 -15
110 -2 14 -7 45 -10 70 -25 187 -102 657 -140 855 -9 44 -17 91 -20 105 -115
612 -324 1470 -496 2035 -294 962 -600 1769 -995 2625 -55 121 -363 736 -427
856 -532 988 -1085 1814 -1729 2584 -43 51 -212 246 -227 261 -9 9 -52 56 -96
105 -89 99 -524 537 -626 629 -139 127 -245 218 -494 424 -216 179 -687 495
-965 648 -537 296 -1104 497 -1580 559 -25 3 -74 10 -110 16 -66 10 -581 23
-590 15z"/>
<path d="M32998 28915 c-2 -1 -52 -5 -113 -9 -60 -3 -126 -8 -145 -11 -19 -2
-78 -9 -130 -15 -127 -15 -337 -53 -495 -89 -120 -28 -402 -108 -456 -130 -13
-5 -58 -22 -99 -37 -442 -158 -938 -427 -1364 -738 -102 -75 -350 -270 -382
-300 -6 -6 -42 -38 -79 -71 -337 -295 -702 -682 -1000 -1060 -304 -386 -690
-963 -910 -1360 -15 -27 -49 -88 -75 -135 -100 -181 -400 -767 -400 -783 0 -3
-22 -51 -49 -108 -163 -346 -396 -915 -550 -1344 -246 -687 -474 -1451 -655
-2195 -134 -553 -270 -1201 -357 -1700 -11 -63 -22 -126 -24 -140 -8 -41 -63
-372 -69 -410 -3 -19 -14 -91 -25 -160 -11 -69 -23 -145 -26 -170 -3 -25 -10
-70 -15 -100 -5 -30 -12 -73 -15 -95 -3 -22 -12 -83 -21 -135 -20 -124 -21
-130 -33 -198 -11 -64 -18 -103 -31 -182 -4 -30 -25 -140 -45 -245 -20 -104
-39 -203 -42 -220 -8 -53 -143 -686 -174 -820 -59 -254 -162 -663 -225 -900
-60 -223 -77 -283 -133 -470 -12 -39 -23 -79 -26 -90 -22 -105 -360 -1138
-429 -1315 -8 -19 -23 -60 -34 -90 -146 -397 -263 -694 -406 -1037 -90 -217
-225 -525 -303 -693 -20 -41 -48 -102 -63 -135 -15 -33 -44 -96 -65 -140 -49
-106 -386 -781 -418 -837 -13 -23 -47 -86 -75 -138 -77 -146 -265 -487 -321
-580 -11 -19 -30 -52 -41 -73 -156 -287 -671 -1100 -960 -1517 -158 -227 -533
-744 -591 -814 -5 -6 -53 -67 -105 -136 -53 -69 -122 -156 -153 -195 -110
-137 -275 -340 -281 -345 -3 -3 -61 -72 -130 -155 -117 -140 -381 -443 -476
-545 -22 -25 -70 -76 -105 -114 -135 -147 -210 -226 -369 -389 -91 -94 -170
-175 -176 -181 -199 -197 -560 -542 -630 -603 -12 -10 -57 -50 -100 -89 -68
-62 -121 -108 -304 -267 -196 -170 -612 -496 -800 -628 l-114 -80 124 6 c69 3
159 7 200 10 41 2 125 7 185 10 61 4 130 8 155 10 25 2 88 6 140 10 102 6 151
10 390 30 158 13 221 19 430 40 74 7 153 16 190 20 19 2 78 9 130 15 143 16
178 20 265 31 44 5 96 12 115 14 19 2 87 11 150 20 63 9 133 18 155 21 22 3
69 10 105 15 100 15 111 17 170 25 30 4 57 8 60 9 3 0 28 4 55 9 43 6 414 67
498 82 832 143 1912 399 2722 645 973 296 1976 672 2765 1037 36 16 99 45 140
64 421 194 1038 509 1445 738 279 157 646 373 790 465 28 17 120 76 205 130
574 364 1189 801 1710 1214 136 108 402 323 426 346 6 5 33 28 60 50 451 372
1053 935 1564 1462 396 409 737 793 1169 1318 161 196 481 612 658 855 883
1215 1614 2480 2213 3830 505 1140 940 2446 1175 3535 14 66 34 158 45 205 10
47 21 96 24 110 2 14 20 108 40 210 67 349 148 877 181 1180 3 30 8 71 10 90
2 19 7 64 10 100 4 36 8 81 10 100 2 19 6 69 10 110 3 41 7 95 10 120 40 365
51 1335 21 1720 -2 25 -7 88 -10 140 -4 52 -11 140 -16 195 -6 55 -13 125 -15
155 -9 84 -44 354 -62 460 -8 52 -17 109 -20 125 -2 17 -22 120 -44 230 -170
850 -454 1576 -842 2155 -62 93 -161 228 -208 285 -274 331 -508 538 -905 798
-301 197 -621 374 -909 502 -146 65 -176 77 -375 152 -314 117 -786 234 -1085
268 -27 3 -61 8 -75 10 -14 2 -52 6 -85 9 -33 3 -91 8 -130 12 -67 6 -521 14
-527 9z"/>
<path d="M3650 24873 c-412 -27 -830 -116 -1150 -243 -293 -117 -498 -239
-778 -463 -297 -237 -516 -455 -784 -775 -156 -187 -369 -527 -492 -782 -177
-369 -310 -822 -342 -1160 -3 -30 -7 -65 -9 -76 -9 -40 -19 -259 -19 -394 0
-596 137 -1209 407 -1825 55 -125 241 -487 317 -615 85 -144 229 -368 332
-514 63 -89 293 -393 308 -406 3 -3 37 -43 75 -90 186 -226 360 -416 620 -675
263 -262 274 -272 630 -584 104 -92 317 -266 488 -400 124 -97 481 -362 582
-432 28 -19 52 -36 55 -39 24 -26 687 -462 865 -570 274 -166 581 -347 740
-435 194 -108 323 -179 405 -222 52 -28 136 -72 185 -98 50 -27 351 -180 670
-340 545 -274 711 -361 1022 -536 614 -346 1152 -687 1793 -1139 19 -14 37
-27 40 -30 3 -3 21 -17 40 -30 225 -154 899 -685 1195 -941 101 -88 241 -211
309 -273 43 -39 88 -79 100 -89 230 -201 750 -716 1056 -1046 63 -69 122 -132
130 -141 8 -8 47 -52 85 -95 39 -44 77 -87 85 -95 34 -33 354 -410 450 -530
19 -24 40 -48 45 -54 6 -6 38 -47 73 -91 35 -44 69 -87 76 -95 188 -230 558
-743 817 -1135 88 -132 164 -245 169 -252 6 -7 10 -15 10 -18 0 -3 20 -36 44
-73 68 -106 136 -217 216 -352 40 -69 80 -136 88 -150 9 -14 15 -27 15 -30 0
-3 7 -16 17 -30 20 -29 32 -49 145 -255 290 -530 525 -1023 725 -1525 77 -192
209 -559 211 -583 0 -6 4 -4 7 6 6 13 11 6 22 -30 l14 -48 8 30 c19 66 179
708 203 815 30 135 111 512 119 555 3 17 8 41 11 55 32 159 133 730 149 845 3
22 17 114 30 205 14 91 27 183 30 205 2 22 14 117 25 210 24 190 24 196 46
405 2 19 9 87 15 150 6 63 12 138 15 165 3 28 7 86 10 130 3 44 7 98 10 120 2
22 7 94 10 160 4 66 8 134 10 150 27 236 27 1756 0 2010 -2 22 -7 85 -10 140
-4 55 -8 120 -10 145 -2 25 -6 83 -10 130 -3 47 -8 105 -10 130 -3 25 -12 115
-21 200 -8 85 -18 175 -20 200 -4 37 -32 267 -49 395 -184 1390 -580 2837
-1137 4160 -165 393 -460 1013 -624 1315 -466 858 -882 1509 -1412 2210 -112
148 -427 547 -442 560 -3 3 -41 48 -85 100 -119 142 -117 140 -294 339 -168
190 -204 229 -396 431 -987 1036 -2090 1922 -3278 2632 -109 65 -200 118 -202
118 -2 0 -38 20 -79 45 -42 25 -78 45 -81 45 -2 0 -30 15 -62 34 -148 85 -543
285 -768 388 -1087 500 -2093 784 -3055 862 -144 12 -621 17 -750 9z m12067
-20685 c-3 -8 -6 -5 -6 6 -1 11 2 17 5 13 3 -3 4 -12 1 -19z"/>
</g>
</svg>
