<?xml version="1.0" encoding="UTF-8"?>
<svg id="Layer_1" data-name="Layer 1" xmlns="http://www.w3.org/2000/svg" xmlns:xlink="http://www.w3.org/1999/xlink" viewBox="0 0 300 250">
  <defs>
    <style>
      .cls-1 {
        fill: url(#linear-gradient-12);
      }

      .cls-1, .cls-2, .cls-3, .cls-4, .cls-5, .cls-6, .cls-7, .cls-8, .cls-9, .cls-10, .cls-11, .cls-12 {
        stroke-width: 0px;
      }

      .cls-2 {
        fill: url(#linear-gradient);
      }

      .cls-3 {
        fill: url(#linear-gradient-2);
      }

      .cls-3, .cls-5 {
        isolation: isolate;
        opacity: .52;
      }

      .cls-4 {
        fill: url(#linear-gradient-11);
      }

      .cls-5 {
        fill: url(#linear-gradient-6);
      }

      .cls-6 {
        fill: url(#linear-gradient-5);
      }

      .cls-7 {
        fill: url(#linear-gradient-7);
      }

      .cls-8 {
        fill: url(#linear-gradient-3);
      }

      .cls-9 {
        fill: url(#linear-gradient-9);
      }

      .cls-10 {
        fill: url(#linear-gradient-8);
      }

      .cls-11 {
        fill: url(#linear-gradient-10);
      }

      .cls-12 {
        fill: url(#linear-gradient-4);
      }
    </style>
    <linearGradient id="linear-gradient" x1="135.94" y1="103.27" x2="299.18" y2="103.27" gradientTransform="translate(0 252) scale(1 -1)" gradientUnits="userSpaceOnUse">
      <stop offset="0" stop-color="#654bdc"/>
      <stop offset="1" stop-color="#00dcfc"/>
    </linearGradient>
    <linearGradient id="linear-gradient-2" x1="213.72" y1="114.76" x2="299.18" y2="114.76" gradientTransform="translate(0 252) scale(1 -1)" gradientUnits="userSpaceOnUse">
      <stop offset="0" stop-color="#fff"/>
      <stop offset="1" stop-color="#00dcfc"/>
    </linearGradient>
    <linearGradient id="linear-gradient-3" x1="199.87" y1="38.05" x2="279.04" y2="165.36" xlink:href="#linear-gradient"/>
    <linearGradient id="linear-gradient-4" x1="135.93" y1="95.58" x2="227.7" y2="95.58" gradientTransform="translate(0 252) scale(1 -1)" gradientUnits="userSpaceOnUse">
      <stop offset="0" stop-color="#654bdc"/>
      <stop offset="1" stop-color="#fff"/>
    </linearGradient>
    <linearGradient id="linear-gradient-5" x1="-281.43" y1="-68.56" x2="-118.18" y2="-68.56" gradientTransform="translate(237.37 -67.05) rotate(-40.17) scale(1 -1)" gradientUnits="userSpaceOnUse">
      <stop offset="0" stop-color="#fdb400"/>
      <stop offset="1" stop-color="#fe4559"/>
    </linearGradient>
    <linearGradient id="linear-gradient-6" x1="-210.52" y1="-43.17" x2="-125.24" y2="-43.17" gradientTransform="translate(250.68 -61.67) rotate(-40.55) scale(1 -1)" gradientUnits="userSpaceOnUse">
      <stop offset="0" stop-color="#fff"/>
      <stop offset="1" stop-color="#fdb400"/>
    </linearGradient>
    <linearGradient id="linear-gradient-7" x1="-217.49" y1="-133.78" x2="-138.32" y2="-6.47" xlink:href="#linear-gradient-5"/>
    <linearGradient id="linear-gradient-8" x1="-281.44" y1="-76.24" x2="-189.65" y2="-76.24" gradientTransform="translate(237.37 -67.05) rotate(-40.17) scale(1 -1)" gradientUnits="userSpaceOnUse">
      <stop offset="0" stop-color="#fdb400"/>
      <stop offset="1" stop-color="#fff"/>
    </linearGradient>
    <linearGradient id="linear-gradient-9" x1="-644.25" y1="-9.59" x2="-514.91" y2="-9.59" gradientTransform="translate(232.9 -398.02) rotate(-72.46) scale(1 -1)" gradientUnits="userSpaceOnUse">
      <stop offset="0" stop-color="#b85dfa"/>
      <stop offset="1" stop-color="#a208ba"/>
    </linearGradient>
    <linearGradient id="linear-gradient-10" x1=".83" y1="138.25" x2="112.91" y2="138.25" gradientTransform="translate(0 252) scale(1 -1)" gradientUnits="userSpaceOnUse">
      <stop offset="0" stop-color="#b85dfa"/>
      <stop offset="1" stop-color="#fff"/>
    </linearGradient>
    <linearGradient id="linear-gradient-11" x1="-593.59" y1="-61.26" x2="-530.86" y2="39.61" xlink:href="#linear-gradient-9"/>
    <linearGradient id="linear-gradient-12" x1="-642.99" y1="-15.85" x2="-570.27" y2="-15.85" gradientTransform="translate(233.51 -396.53) rotate(-72.35) scale(1 -1)" gradientUnits="userSpaceOnUse">
      <stop offset="0" stop-color="#a81dca"/>
      <stop offset="1" stop-color="#fff"/>
    </linearGradient>
  </defs>
  <path class="cls-2" d="M135.94,248.25s52.2-34.24,63.98-113.41c11.77-79.17,52.65-99.8,84.52-76.76,39.59,28.61,2.57,183.76-148.49,190.17Z"/>
  <path class="cls-3" d="M284.43,58.08c-23.85-17.24-52.74-10.02-70.7,27.88,15.65,21.91,45.65,77.3,5.92,139.29,79.94-45.71,95.63-144.87,64.78-167.17Z"/>
  <path class="cls-8" d="M284.43,58.08c-10.2-7.37-21.3-10.25-32.1-8.2,7.19,2.59,29.86,13.77,26.48,50.98-4.02,44.13-25.77,101.38-142.87,147.38,151.06-6.41,188.08-161.56,148.49-190.17Z"/>
  <path class="cls-12" d="M207.39,117.72c7.49-36.91,20.31-53.13,20.31-53.13h0c-12.56,13.65-22.8,36.67-27.8,70.26-11.77,79.17-63.98,113.41-63.98,113.41,56.39-32.63,63.98-93.62,71.47-130.53Z"/>
  <path class="cls-6" d="M130.75,242.92s17.8-59.84-24.27-127.93C64.4,46.92,82.33,4.78,121.54,1.82c48.7-3.67,120.51,138.75,9.21,241.1Z"/>
  <path class="cls-5" d="M121.12,1.96c-29.32,2.41-46.59,26.68-35.6,67.15,26.13,6.48,84.22,29.37,94.35,102.31C210.9,84.72,159.06-1.15,121.12,1.96Z"/>
  <path class="cls-7" d="M121.54,1.82c-12.54.95-22.89,5.91-29.81,14.44,7.17-2.66,31.7-8.74,53.12,21.88,25.4,36.31,45.7,94.1-14.1,204.78C242.05,140.57,170.25-1.85,121.54,1.82Z"/>
  <path class="cls-10" d="M101.16,97.09c-18.09-33.03-18.76-53.71-18.76-53.71h0c-.8,18.53,6.22,42.73,24.07,71.62,42.08,68.08,24.27,127.93,24.27,127.93,22.05-61.3-11.5-112.8-29.58-145.84Z"/>
  <path class="cls-9" d="M123.11,242.92s-13.41-47.62-70.4-75.41C-4.29,139.73-10.12,103.91,14.9,85.33c31.06-23.07,139.43,41.93,108.22,157.59Z"/>
  <path class="cls-11" d="M20.62,146.79c13.87-11.11,43.44-25.58,92.29-6.9-26.28-47.87-78.08-69.36-98.02-54.55-19.1,14.19-20.18,38.42,5.73,61.45Z"/>
  <path class="cls-4" d="M14.89,85.33c-8,5.94-12.82,13.65-13.85,22.29,3.67-4.81,17.53-19.27,44.84-7.83,32.39,13.57,70.44,43.68,77.23,143.13C154.33,127.27,45.95,62.26,14.89,85.33Z"/>
  <path class="cls-1" d="M41.61,157.73c-26.06-14.53-35.24-28.11-35.24-28.11h0c7.28,12.77,22.2,26.03,46.36,37.87,56.95,27.91,70.26,75.55,70.26,75.55-11.08-50.41-55.31-70.79-81.39-85.31Z"/>
</svg>