<?xml version="1.0" encoding="UTF-8"?>
<svg id="Layer_1" data-name="Layer 1" xmlns="http://www.w3.org/2000/svg" viewBox="0 0 1080 1080">
  <defs>
    <style>
      .cls-1 {
        fill: #fff;
      }

      .cls-1, .cls-2 {
        stroke-width: 0px;
      }

      .cls-2 {
        fill: #b9c4e1;
      }
    </style>
  </defs>
  <circle class="cls-2" cx="540" cy="540" r="537.9" transform="translate(-223.68 540) rotate(-45)"/>
  <ellipse class="cls-1" cx="540" cy="471.22" rx="209.25" ry="289.82"/>
  <path class="cls-1" d="M536.7,742.49c-175.15,0-331.73,41.97-435.87,107.91,97.43,137.59,257.75,227.5,439.17,227.5s339.48-88.64,437.1-224.59c-104.1-67.61-262.69-110.83-440.41-110.83Z"/>
  <rect class="cls-1" x="428.19" y="540" width="223.61" height="341.6" rx="9.62" ry="9.62"/>
  <path class="cls-1" d="M363.79,487.68c6.26,46.47-4.05,86.75-23.04,89.98-18.99,3.23-39.46-31.82-45.73-78.28-6.26-46.47,4.05-86.75,23.04-89.98,18.99-3.23,39.46,31.82,45.73,78.28Z"/>
  <path class="cls-1" d="M716.21,487.68c-6.26,46.47,4.05,86.75,23.04,89.98,18.99,3.23,39.46-31.82,45.73-78.28,6.26-46.47-4.05-86.75-23.04-89.98-18.99-3.23-39.46,31.82-45.73,78.28Z"/>
  <path class="cls-1" d="M338.07,459.81c-7.04-46.39-14.07-92.79-21.11-139.18-2.55-16.84-5.02-34.6,1.13-50.48,6.15-15.89,24.18-28.54,40.14-22.57-6.39-32.27,29.32-56.11,60.43-66.82,52.13-17.95,108.04-27.09,162.72-20.02,54.68,7.06,108.07,31.26,144.94,72.26,11.67,12.98,21.72,27.72,27.28,44.27,10.7,31.83,3.89,66.58-3.01,99.44-5.48,26.11-10.96,52.23-16.44,78.34-1.25,5.96-2.65,12.22-6.72,16.75-6.49,7.22-17.43,7.76-27.14,7.79-103.76.22-207.52.45-311.28.67-19.51.04-44.98-4.76-47.55-24.11"/>
</svg>